<?xml version="1.0" encoding="utf-8"?>
<!-- Generator: Adobe Illustrator 15.1.0, SVG Export Plug-In . SVG Version: 6.00 Build 0)  -->
<!DOCTYPE svg PUBLIC "-//W3C//DTD SVG 1.0//EN" "http://www.w3.org/TR/2001/REC-SVG-20010904/DTD/svg10.dtd">
<svg version="1.0" id="Layer_1" xmlns="http://www.w3.org/2000/svg" xmlns:xlink="http://www.w3.org/1999/xlink" x="0px" y="0px"
	 width="22.8px" height="22.8px" viewBox="0 0 22.8 22.8" style="enable-background:new 0 0 22.8 22.8;" xml:space="preserve">
<style type="text/css">
<![CDATA[
	.st0{fill:#040A2B;}
]]>
</style>
<polygon class="st0" points="19.399,7.5 16.8,5.2 9.3,14 4.8,10.2 2.5,12.8 9.6,18.8 "/>
<path class="st0" d="M11.399,22.8C5.1,22.8,0,17.7,0,11.399C0,5.1,5.1,0,11.399,0C17.7,0,22.8,5.1,22.8,11.399
	C22.8,17.7,17.7,22.8,11.399,22.8z M11.399,1C5.7,1,1,5.7,1,11.399c0,5.7,4.7,10.4,10.399,10.4c5.7,0,10.4-4.7,10.4-10.4
	C21.8,5.7,17.1,1,11.399,1z"/>
</svg>
