<?xml version="1.0" encoding="utf-8"?>
<!-- Generator: Adobe Illustrator 18.1.1, SVG Export Plug-In . SVG Version: 6.00 Build 0)  -->
<svg version="1.1" id="Layer_1" xmlns="http://www.w3.org/2000/svg" xmlns:xlink="http://www.w3.org/1999/xlink" x="0px" y="0px"
	 viewBox="306.8 655.1 100 100" enable-background="new 306.8 655.1 100 100" xml:space="preserve">
<g id="Your_Icon">
	<path id="refresh-3-icon" fill="#D9D9D9" d="M362.8,695.6l-2.3,2.3c-1.2-1.2-2.9-2-4.8-2c-3.8,0-6.8,3.1-6.8,6.8c0,0,0,0,0,0h2.7
		l-4.2,4.2l-4.2-4.2h2.6l0,0c0-5.6,4.5-10.1,10.1-10.1C358.4,692.6,360.9,693.7,362.8,695.6z M368.2,702.3l-4.2-4.2l-4.2,4.2h2.7
		c0,0,0,0,0,0c0,3.8-3.1,6.8-6.8,6.8c-1.9,0-3.6-0.8-4.8-2l-2.3,2.3c1.8,1.8,4.3,2.9,7.1,2.9c5.6,0,10.1-4.5,10.1-10.1c0,0,0,0,0,0
		H368.2L368.2,702.3z"/>
</g>
</svg>
