<?xml version="1.0" encoding="utf-8"?>
<!-- Generator: Adobe Illustrator 18.1.1, SVG Export Plug-In . SVG Version: 6.00 Build 0)  -->
<!DOCTYPE svg PUBLIC "-//W3C//DTD SVG 1.1//EN" "http://www.w3.org/Graphics/SVG/1.1/DTD/svg11.dtd">
<svg version="1.1" id="Layer_1" xmlns="http://www.w3.org/2000/svg" xmlns:xlink="http://www.w3.org/1999/xlink" x="0px" y="0px"
	 viewBox="-220.3 257 100 100" enable-background="new -220.3 257 100 100" xml:space="preserve">
<g id="XMLID_1_">
	<g id="XMLID_2_">
		<g>
			<g id="XMLID_3_">
				<g>
					<path fill="#F05C72" d="M-159.8,300c1.8,1.4,2.7,3.4,2.6,5.8c-0.3,4-5.7,9-10.8,13.5c-0.6,0.5-1.7,1.4-2,1.8
						c-0.4-0.4-1.6-1.5-2.4-2.1c-5.1-4.3-10.5-9.2-10.8-13.1c-0.1-2.4,0.8-4.4,2.6-5.8c1.9-1.4,4.6-1.9,6.8-1.1
						c1.5,0.5,2.8,1.5,3.6,2.6c0.8-1.2,2.1-2.1,3.6-2.6C-164.4,298.1-161.7,298.6-159.8,300z"/>
				</g>
			</g>
		</g>
	</g>
</g>
</svg>
