<?xml version="1.0" encoding="utf-8"?>
<!-- Generator: Adobe Illustrator 15.1.0, SVG Export Plug-In . SVG Version: 6.00 Build 0)  -->
<!DOCTYPE svg PUBLIC "-//W3C//DTD SVG 1.1//EN" "http://www.w3.org/Graphics/SVG/1.1/DTD/svg11.dtd">
<svg version="1.1" id="Layer_1" xmlns="http://www.w3.org/2000/svg" xmlns:xlink="http://www.w3.org/1999/xlink" x="0px" y="0px"
	 width="159.212px" height="138.019px" viewBox="6.706 601.273 159.212 138.019"
	 enable-background="new 6.706 601.273 159.212 138.019" xml:space="preserve">
<g id="XMLID_1_">
	<g id="XMLID_2_">
		<g>
			<g id="XMLID_3_">
				<g>
					<path fill="#F05C72" d="M149.96,610.16c11.016,8.567,16.524,20.808,15.912,35.496c-1.836,24.479-34.884,55.08-66.096,82.619
						c-3.672,3.061-10.404,8.568-12.24,11.017c-2.448-2.448-9.792-9.181-14.688-12.853c-31.212-26.315-64.26-56.304-66.096-80.172
						c-0.612-14.688,4.896-26.928,15.912-35.496c11.628-8.567,28.152-11.628,41.616-6.731c9.18,3.06,17.136,9.18,22.032,15.912
						c4.896-7.345,12.852-12.853,22.032-15.912C121.808,598.532,138.332,601.592,149.96,610.16z"/>
				</g>
			</g>
		</g>
	</g>
</g>
</svg>
