<?xml version="1.0" encoding="utf-8"?>
<!-- Generator: Adobe Illustrator 18.1.1, SVG Export Plug-In . SVG Version: 6.00 Build 0)  -->
<!DOCTYPE svg PUBLIC "-//W3C//DTD SVG 1.1//EN" "http://www.w3.org/Graphics/SVG/1.1/DTD/svg11.dtd">
<svg version="1.1" id="Layer_1" xmlns="http://www.w3.org/2000/svg" xmlns:xlink="http://www.w3.org/1999/xlink" x="0px" y="0px"
	 viewBox="-345 257 100 100" enable-background="new -345 257 100 100" xml:space="preserve">
<g id="XMLID_7_">
	<g id="XMLID_8_">
		<g>
			<g id="XMLID_9_">
				<g>
					<g>
						<path fill="#F05C72" d="M-304.6,300.3c0.6,0,1.2,0.1,1.7,0.3c1.1,0.4,2.1,1.1,2.7,2l1.4,2.1l1.4-2.1c0.6-0.9,1.6-1.6,2.7-2
							c0.5-0.2,1.1-0.3,1.7-0.3c1.3,0,2.6,0.4,3.5,1.1c1.3,1,2,2.5,1.9,4.3c-0.2,3.6-7,9.4-10.2,12.3l-0.7,0.6
							c-0.1,0-0.1,0.1-0.2,0.1c-0.4-0.4-0.9-0.8-1.3-1.1c-3.2-2.7-10-8.4-10.2-11.8c-0.1-1.8,0.6-3.3,1.9-4.3
							C-307.2,300.7-305.9,300.3-304.6,300.3 M-304.6,298.5c-1.6,0-3.3,0.5-4.6,1.5c-1.8,1.4-2.7,3.4-2.6,5.8
							c0.3,3.8,5.7,8.8,10.8,13.1c0.8,0.6,2,1.7,2.4,2.1c0.4-0.3,1.4-1.2,2-1.8c5.1-4.4,10.5-9.5,10.8-13.5c0.1-2.4-0.8-4.4-2.6-5.8
							c-1.3-1-2.9-1.5-4.6-1.5c-0.8,0-1.5,0.1-2.3,0.4c-1.5,0.5-2.8,1.5-3.6,2.6c-0.8-1.2-2.1-2.1-3.6-2.6
							C-303.1,298.6-303.9,298.5-304.6,298.5L-304.6,298.5z"/>
					</g>
				</g>
			</g>
		</g>
	</g>
</g>
</svg>
