<?xml version="1.0" encoding="utf-8"?>
<!-- Generator: Adobe Illustrator 18.1.1, SVG Export Plug-In . SVG Version: 6.00 Build 0)  -->
<svg version="1.2" baseProfile="tiny" id="Layer_1" xmlns="http://www.w3.org/2000/svg" xmlns:xlink="http://www.w3.org/1999/xlink"
	 x="0px" y="0px" viewBox="0 0 147.4 20.9" xml:space="preserve">
<path id="swoosh" fill="#FFFFFF" d="M107,17.8c-4.2,1.8-10.8,3.8-13.5-0.6c-1.5-2.4-0.6-6.3,1.7-9.7c1.4-2.2,3.3-4.2,5.1-6.3
	c-1,1.7-3.9,7.2-0.1,10c1.5,1.1,4,1.2,7.3,0.4L146,1.4L107,17.8z"/>
<g>
	<path fill="#FFFFFF" d="M14.5,1v18.8h-2.8V5.2h-0.1L8.7,19.9H7.2L4.3,5.2H4.2v14.7H1.4V1h4.3l2.3,11H8l2.3-11H14.5z"/>
	<path fill="#FFFFFF" d="M17.4,19.9V1H26v2.8h-5.4v4.9h4.2v2.8h-4.2v5.5h5.8v2.8H17.4z"/>
	<path fill="#FFFFFF" d="M32.6,19.9h-3.2V1h4.5C35.7,1,37,1.5,38,2.3c0.9,0.9,1.4,2.3,1.4,4.3c0,0.8-0.1,1.4-0.2,2
		c-0.1,0.5-0.3,1-0.5,1.4c-0.2,0.4-0.5,0.7-0.7,0.9c-0.3,0.2-0.5,0.4-0.8,0.5l2.7,8.5h-3.3l-2.3-7.8c-0.2,0-0.5,0.1-0.8,0.1
		c-0.3,0-0.6,0-0.9,0V19.9z M32.6,9.5h1.1c0.4,0,0.8,0,1.1-0.1c0.3-0.1,0.6-0.2,0.7-0.5C35.8,8.7,35.9,8.4,36,8
		c0.1-0.4,0.1-0.8,0.1-1.4c0-1.1-0.2-1.9-0.5-2.3c-0.4-0.4-1-0.6-1.9-0.6h-1.1V9.5z"/>
	<path fill="#FFFFFF" d="M49.3,7.3V5.9c0-0.8-0.2-1.4-0.5-1.7c-0.3-0.4-0.7-0.5-1.1-0.5c-0.7,0-1.1,0.2-1.4,0.5
		C46.1,4.5,46,5,46,5.7v9.5c0,0.7,0.1,1.2,0.4,1.6s0.7,0.5,1.4,0.5c0.6,0,1-0.2,1.2-0.5c0.2-0.3,0.3-0.8,0.3-1.4v-2.3h3.2v2.2
		c0,0.7-0.1,1.3-0.3,1.9c-0.2,0.6-0.5,1.1-0.9,1.5c-0.4,0.4-0.9,0.8-1.5,1c-0.6,0.3-1.3,0.4-2.1,0.4c-0.9,0-1.6-0.1-2.2-0.4
		s-1.1-0.6-1.5-1c-0.4-0.4-0.7-0.9-0.9-1.5c-0.2-0.6-0.3-1.2-0.3-1.9V5.6c0-0.7,0.1-1.3,0.3-1.9c0.2-0.6,0.5-1.1,0.9-1.5
		c0.4-0.4,0.9-0.8,1.5-1s1.4-0.4,2.2-0.4c0.8,0,1.5,0.1,2.1,0.4c0.6,0.3,1.1,0.7,1.5,1.1s0.7,1,0.9,1.6c0.2,0.6,0.3,1.3,0.3,2v1.4
		H49.3z"/>
	<path fill="#FFFFFF" d="M55.7,19.9V1h3.2v7.7h3.4V1h3.2v18.8h-3.2v-8.3h-3.4v8.3H55.7z"/>
	<path fill="#42AC4A" d="M69,1h3.2v14.2c0,1.4,0.6,2.1,1.7,2.1s1.7-0.7,1.7-2.1V1h3.2v14.1c0,1.6-0.4,2.9-1.3,3.7
		c-0.9,0.9-2.1,1.3-3.6,1.3c-1.5,0-2.8-0.4-3.6-1.3C69.5,18,69,16.8,69,15.1V1z"/>
</g>
</svg>
