<?xml version="1.0" encoding="utf-8"?>
<!-- Generator: Adobe Illustrator 15.1.0, SVG Export Plug-In . SVG Version: 6.00 Build 0)  -->
<!DOCTYPE svg PUBLIC "-//W3C//DTD SVG 1.1//EN" "http://www.w3.org/Graphics/SVG/1.1/DTD/svg11.dtd">
<svg version="1.1" id="Layer_1" xmlns="http://www.w3.org/2000/svg" xmlns:xlink="http://www.w3.org/1999/xlink" x="0px" y="0px"
	 width="243.863px" height="243.251px" viewBox="124.016 777.636 243.863 243.251"
	 enable-background="new 124.016 777.636 243.863 243.251" xml:space="preserve">
<path fill="#FFFFFF" d="M366.368,994.896l-76.5-76.5c9.792-14.688,15.3-32.436,15.3-50.184c0-24.48-9.18-47.124-26.316-64.261
	c-17.136-17.136-39.78-26.315-64.26-26.315c-24.48,0-47.124,9.18-64.26,26.315c-17.136,17.137-26.316,39.78-26.316,64.261
	c0,24.479,9.18,47.124,26.316,64.26c17.136,17.136,39.78,26.315,64.26,26.315c18.36,0,36.108-5.508,50.796-15.911l76.5,76.5
	c2.448,2.448,7.345,1.836,10.404-1.225l12.852-12.852C368.204,1002.24,368.816,997.956,366.368,994.896z M213.98,934.308
	c-36.72,0-66.096-29.988-66.096-66.096c0-36.72,29.988-66.097,66.096-66.097s66.096,29.988,66.096,66.097
	C280.076,904.932,250.7,934.308,213.98,934.308z"/>
</svg>
