<?xml version="1.0" encoding="utf-8"?>
<!-- Generator: Adobe Illustrator 15.1.0, SVG Export Plug-In . SVG Version: 6.00 Build 0)  -->
<!DOCTYPE svg PUBLIC "-//W3C//DTD SVG 1.1//EN" "http://www.w3.org/Graphics/SVG/1.1/DTD/svg11.dtd">
<svg version="1.1" id="Layer_1" xmlns="http://www.w3.org/2000/svg" xmlns:xlink="http://www.w3.org/1999/xlink" x="0px" y="0px"
	 width="122.399px" height="122.4px" viewBox="-107.312 991.736 122.399 122.4"
	 enable-background="new -107.312 991.736 122.399 122.4" xml:space="preserve">
<g>
	<path fill="#A4A4AB" d="M1.624,1052.936c0-1.836,0-3.672-0.612-5.508l14.076-12.852c-1.224-4.284-3.06-7.956-4.896-11.628
		l-19.584,1.224c-2.448-3.06-4.896-5.508-7.956-7.955l1.224-19.584c-3.672-1.836-7.344-3.672-11.628-4.896l-12.852,14.076
		c-1.836,0-3.672-0.612-5.508-0.612s-3.672,0-5.508,0.612l-12.852-14.076c-4.284,1.225-7.956,3.061-11.628,4.896l1.224,19.584
		c-3.06,2.447-5.508,4.896-7.956,7.955l-19.584-1.224c-1.836,3.672-3.672,7.344-4.896,11.628l14.076,12.852
		c0,1.836-0.612,3.672-0.612,5.508s0,3.672,0.612,5.509l-14.076,12.853c1.224,4.283,3.06,7.955,4.896,11.627l19.584-1.224
		c2.448,3.06,4.896,5.509,7.956,7.956l-1.224,19.584c3.672,1.836,7.344,3.672,11.628,4.896l12.852-14.076
		c1.836,0,3.672,0.611,5.508,0.611s3.672,0,5.508-0.611l12.852,14.076c4.284-1.225,7.956-3.061,11.628-4.896l-1.224-19.584
		c3.06-2.448,5.508-4.896,7.956-7.956l19.584,1.224c1.836-3.672,3.672-7.344,4.896-11.627l-14.076-12.853
		C1.624,1057.22,1.624,1055.384,1.624,1052.936z M-45.5,1085.984c-18.36,0-33.048-14.688-33.048-33.049
		c0-18.359,14.688-33.048,33.048-33.048s33.048,14.688,33.048,33.048C-12.452,1071.297-27.14,1085.984-45.5,1085.984z"/>
	<path fill="#A4A4AB" d="M-28.364,1052.936c0,9.793-7.956,17.137-17.136,17.137c-9.792,0-17.136-7.956-17.136-17.137
		c0-9.791,7.956-17.135,17.136-17.135C-35.708,1035.8-28.364,1043.756-28.364,1052.936z"/>
</g>
</svg>
