<?xml version="1.0" encoding="utf-8"?>
<!-- Generator: Adobe Illustrator 18.1.1, SVG Export Plug-In . SVG Version: 6.00 Build 0)  -->
<!DOCTYPE svg PUBLIC "-//W3C//DTD SVG 1.1//EN" "http://www.w3.org/Graphics/SVG/1.1/DTD/svg11.dtd">
<svg version="1.1" id="Layer_1" xmlns="http://www.w3.org/2000/svg" xmlns:xlink="http://www.w3.org/1999/xlink" x="0px" y="0px"
	 viewBox="-351.5 655.1 100 100" enable-background="new -351.5 655.1 100 100" xml:space="preserve">
<g>
	<path fill="#A4A4AB" d="M-293.8,705.4c0-0.3,0-0.6-0.1-0.9l2.3-2.1c-0.2-0.7-0.5-1.3-0.8-1.9l-3.2,0.2c-0.4-0.5-0.8-0.9-1.3-1.3
		l0.2-3.2c-0.6-0.3-1.2-0.6-1.9-0.8l-2.1,2.3c-0.3,0-0.6-0.1-0.9-0.1c-0.3,0-0.6,0-0.9,0.1l-2.1-2.3c-0.7,0.2-1.3,0.5-1.9,0.8
		l0.2,3.2c-0.5,0.4-0.9,0.8-1.3,1.3l-3.2-0.2c-0.3,0.6-0.6,1.2-0.8,1.9l2.3,2.1c0,0.3-0.1,0.6-0.1,0.9c0,0.3,0,0.6,0.1,0.9l-2.3,2.1
		c0.2,0.7,0.5,1.3,0.8,1.9l3.2-0.2c0.4,0.5,0.8,0.9,1.3,1.3l-0.2,3.2c0.6,0.3,1.2,0.6,1.9,0.8l2.1-2.3c0.3,0,0.6,0.1,0.9,0.1
		c0.3,0,0.6,0,0.9-0.1l2.1,2.3c0.7-0.2,1.3-0.5,1.9-0.8l-0.2-3.2c0.5-0.4,0.9-0.8,1.3-1.3l3.2,0.2c0.3-0.6,0.6-1.2,0.8-1.9l-2.3-2.1
		C-293.8,706.1-293.8,705.8-293.8,705.4z M-301.5,710.8c-3,0-5.4-2.4-5.4-5.4c0-3,2.4-5.4,5.4-5.4c3,0,5.4,2.4,5.4,5.4
		C-296.1,708.4-298.5,710.8-301.5,710.8z"/>
	<path fill="#A4A4AB" d="M-298.7,705.4c0,1.6-1.3,2.8-2.8,2.8c-1.6,0-2.8-1.3-2.8-2.8c0-1.6,1.3-2.8,2.8-2.8
		C-299.9,702.6-298.7,703.9-298.7,705.4z"/>
</g>
</svg>
