<svg version="1.0" id="Layer_1" xmlns="http://www.w3.org/2000/svg" xmlns:xlink="http://www.w3.org/1999/xlink" x="0px" y="0px" width="296px" height="121px" viewBox="-5.5 -6.5 296 121" style="enable-background:new -5.5 -6.5 296 121;" xml:space="preserve">
<g>
	<path d="M102.651,23.329c0.199-0.098,0.399-0.199,0.596-0.299c0.401-0.101,0.799-0.201,1.098,0
		c0.799,0.299,0.499,1.194,0.102,1.695c-0.597,0.797-1.396,1.395-2.094,2.091c-0.696,0.797-1.196,1.792-1.494,2.69
		c-0.598,1.695-1.098,3.488-1.596,5.28c-0.995,3.586-1.596,7.273-2.193,10.958c-0.295,2.095-0.696,4.191-0.992,6.281
		c1.192-1.293,1.892-2.989,2.688-4.484c1.793-3.384,4.185-6.675,6.477-9.766c0.598-0.797,1.297-1.596,2.094-2.389
		c0.799-0.7,1.892-1.197,2.89-0.799c0.795,0.699-2.99,14.749-2.091,22.224c0.495,3.986,3.185,7.969,7.866,6.475
		c-0.497,2.688-3.883,2.186-5.775,1.494c-1.198-0.401-2.292-1.594-2.89-2.69c-0.699-1.292-1.099-2.79-1.396-4.183
		c-0.502-2.992-0.401-5.782-0.101-8.771c0.2-1.787,0.498-3.683,0.899-5.479c0.396-1.694,0.994-3.486,1.094-5.182
		c0.101-1.496-1.793,0.598-2.093,0.997c-1.294,1.693-2.393,3.486-3.486,5.381c-1.498,2.689-2.89,5.479-4.187,8.266
		c-0.798,1.598-1.493,3.191-2.292,4.789c-0.397,0.792-0.797,1.694-1.294,2.488c-0.302,0.593-0.498,1.396-0.998,1.889
		c-0.696,0.699-1.294,0.199-2.092,0.107c-0.598-0.107-0.102-2.497,0-2.79c0.3-1.097,0.696-2.096,1.098-3.192
		c0.798-2.688,1.494-5.48,1.992-8.275c0.396-2.188,0.798-4.378,1.195-6.569c0.4-2.094,0.696-4.285,1.196-6.379
		c0.498-1.99,1.096-3.983,1.792-5.98c0.302-0.994,0.699-1.891,1.194-2.788C100.658,25.322,101.555,23.927,102.651,23.329z"/>
	<path d="M143.502,41.164c0.1-0.097,0.202-0.298,0.401-0.397c1.395-1.694,2.79-3.286,4.085-4.982
		c2.987-3.587,5.977-7.274,8.465-11.358c0.7-1.194,1.403-2.393,1.996-3.589c0.902-1.69,1.888-3.286,2.591-5.082
		c0.498-1.193,1.495-4.084,0.199-5.178c-0.501-0.401-1.396-0.598-1.996-0.501c-2.09,0-4.177,1.197-5.973,2.191
		c-1.996,1.2-3.989,2.595-5.78,4.088c-1.597,1.396-3.487,3.785-4.883,5.48c-1.594,1.891-1.994,2.59-3.19,4.681
		c-0.993-0.099-0.993-0.298-1.692-0.897c1.592-3.884,4.481-7.271,7.573-10.062c2.89-2.592,6.076-5.382,9.769-6.676
		c3.884-1.496,9.556-1.894,8.96,3.687c-0.199,1.792-0.891,3.688-1.591,5.28c-5.08,10.761-14.846,21.025-21.223,29.792
		c4.483-1.895,9.265-6.176,15.038-3.683c0.202,0.093,1.805-1.595,1.999-1.794c0.7-0.598,1.301-1.196,1.995-1.698
		c1.393-1.093,2.788-2.191,4.377-3.085c0.902-0.501,1.494-1.097,2.194-1.796c0.703-0.595,2.09-0.995,2.198,0.401
		c0,1.194-1.094,2.093-1.797,2.987c-0.592,0.897-0.993,1.996-1.494,2.991c-1.193,2.489-2.289,4.877-3.092,7.475
		c-0.8,2.688-1.393,5.479-1.694,8.269c-0.199,1.788-0.199,3.591-0.199,5.481c3.792-3.092,5.779-7.671,8.675-11.562
		c1.688-2.188,3.286-4.476,4.086-7.266c0.193-0.803,0.293-1.996,0.794-2.693c0.596-0.898,1.595-0.3,2.389,0.195
		c0,4.686-4.284,13.257-2.588,19.436c0.1,0.193,1.888-1.201,2.087-1.401c0.701-0.794,1.296-1.589,1.896-2.491
		c1.495-2.286,2.79-4.584,4.186-6.873c0.398-0.595,0.794-1.295,1.102-1.795c0.492-0.896,3.283-4.779,3.884-6.474
		c1.195-3.29-1.201-4.285-1.896-6.974c0.493-1.996,2.79-0.998,3.593,0.196c0.985,1.495,1.293,3.39,2.389,4.883
		c2.688,3.59,8.066,4.486,9.262,8.369c1.296,4.283-0.691,7.174-2.488,10.365c5.479-4.587,11.36-8.57,17.037-12.956
		c0.604-0.4,4.889-4.48,5.581-2.988c0.993,2.096-1.201,3.59-1.896,5.085c-0.894,3.585-2.488,6.375-2.488,10.859
		c0-0.401,1.397-1.193,1.694-1.396c1.195-0.894,2.292-1.987,3.385-2.989c1.403-1.295,3.59-3.191,5.578-3.283
		c0.202,0,0.604,0.692,0.703,0.892c0.199,0.604,0.302,1.196,0.393,1.788c0.202,1.299,0.401,2.497,1.201,3.593
		c3.391,4.778,11.961,4.186,19.93,3.884c10.561-0.492,22.718-0.293,31.18-2.588c0.202-1.094-0.892-1.697-0.394-2.592
		c1.498-0.894,3.685,1.097,3.184,3.885c-0.694,1.096-1.586,0.803-3.184,1.096c-8.871,1.594-20.627,2.195-31.486,2.591
		c-7.578,0.299-16.938,0.7-21.225-3.978c-1.196-1.304-1.489-3.693-2.29-4.886c0-0.103-4.586,3.884-4.977,4.284
		c-0.803,0.793-1.497,1.587-2.295,2.39c-0.803,0.999-1.791,3.089-3.288,1.694c-1.198-1.094-0.999-2.99-0.999-4.484
		c0.1-2.488,0.694-4.889,1.497-7.277c0.196-0.598,0.398-1.193,0.598-1.788c0.095-0.308,0.294-1.401,0.493-1.493
		c-6.873,3.683-12.354,9.362-18.23,14.348c-0.803,0.695-1.497,1.589-2.491,1.99c-2.195,0.895-2.488-1.395-1.888-2.989
		c0.786-1.896,2.189-3.394,3.283-5.088c0.601-0.894,1.096-1.987,1.295-3.081c0.8-6.181-5.782-7.677-8.971-11.063
		c-0.895,1.799-2.09,4.281-3.283,6.274c-1.201,2.096-2.79,4.889-4.385,7.176c-1.494,2.098-2.79,4.486-4.385,6.475
		c-1.295,1.602-2.79,2.897-4.979,1.896c-1.896-3.191-0.803-8.569-0.199-12.655c-3.792,5.287-6.582,11.662-11.761,15.545
		c-0.692,0.1-1.003-0.193-1.396-0.393c-0.1-0.108-1.996,7.67-2.195,8.26c-1.696,4.486-3.582,8.871-5.776,13.057
		c-0.599,1.201-1.193,2.298-1.891,3.487c-3.488,5.974-7.376,12.457-13.453,16.149c-2.89,1.785-6.376,0.794-6.678-2.597
		c-0.397-5.48,1.695-10.762,3.589-15.747c1.493-3.983,3.188-7.967,4.784-11.85c0.098-0.402,0.298-0.695,0.397-1.097
		c0,0,3.388-7.975,5.779-12.362c2.589-4.877,4.783-9.862,8.069-14.35c0.999-1.293,2.189-2.679,3.188-3.976
		c-5.677-2.095-10.357,3.285-14.945,5.773c-1.094,0.604-3.688,2.69-4.185,0.604c-0.199-0.996,0.799-1.896,1.294-2.6
		C139.218,46.646,141.31,43.857,143.502,41.164z M158.056,45.343c0.985,1.697,1.687,4.093,2.39,5.783
		c1.387-3.685,2.79-8.367,4.284-11.357C162.233,40.967,159.551,43.256,158.056,45.343z M146.195,62.591
		c-2.99,5.674-5.582,11.653-7.873,17.63c-2.291,5.785-4.98,11.858-6.274,17.934c-0.302,1.598-0.503,3.191-0.603,4.689
		c-0.097,1.096-0.297,2.588,0.603,3.38c1.093,1.005,3.486-0.792,4.379-1.492c3.291-2.483,5.881-5.58,8.074-8.963
		c1.495-2.289,2.89-4.687,4.183-7.175c0.598-1.097,1.195-2.3,1.696-3.391c2.491-5.378,4.98-11.161,6.272-17.14
		c1.296-6.173,2.898-15.244-0.401-20.622c-0.091,0-0.19,0-0.393,0c-0.593,0.1-0.994,0.8-1.293,1.201
		c-1.395,1.688-2.594,3.585-3.687,5.47C149.182,56.902,147.687,59.695,146.195,62.591z"/>
	<path d="M35.094,31.7c0.3-0.3,1.098-0.497,1.495-0.598c0.598-0.201,1.101-0.501,1.697-0.696c1.294-0.501,2.588-0.898,3.883-1.2
		c2.494-0.496,5.481-0.994,7.973-0.195c0.696,0.195,1.294,0.597,1.891,0.994c1.396,1.098,2.193,2.292,2.395,4.084
		c0.295,1.896,0.396,3.888,0.099,5.78c-0.099,0.498-0.199,1.099-0.3,1.596c0,0.201-0.2,1.493-0.396,1.596
		c0.296-0.103,0.893-0.401,1.093-0.798c0.201-0.299,0.201-0.5,0.397-1.098c0.102-0.499,0.302-1.095,0.5-1.792
		c0.498-1.796,1.096-3.687,1.692-5.082c0.602-1.294,1.2-2.689,1.996-3.884c0.498-0.697,0.993-1.395,1.692-1.896
		c0.495-0.297,0.998-0.397,1.495-0.498c2.488-0.201,1.596,4.185,1.194,5.582c-0.696,2.493-2.093,4.681-3.786,6.675
		c-0.499,0.498-0.996,1.096-1.493,1.592c-0.2,0.201-0.497,0.401-0.798,0.699c-0.201,0.1-0.496,0.398-0.599,0.501
		c-0.797,2.886-2.492,7.271-2.091,10.965c0.298,3.188,1.993,3.883,4.682,2.585c2.891-1.293,5.78-4.484,8.27-7.573
		c3.091-3.885,5.579-7.074,7.675-10.663c0.196-2.689,0.894-5.378,1.691-8.068c0.302-1.1,0.698-2.294,1.1-3.388
		c0.295-0.797,1.891-4.386,2.984-2.991c0.401,0.499,0.598,1.295,0.699,1.894c0.896,7.074-4.783,11.259-5.877,17.239
		c1.294,0.897,2.987,0.597,4.382,0.097c2.89-0.994,5.583-2.692,8.171-4.381c0.798-0.501,1.496-1,2.194-1.495
		c0.894-0.699,1.791-1.395,2.589-2.193c0.3-0.299,0.696-0.696,0.998-0.998c0.1-0.096,0.893-1.093,0.995-1.093
		c0.299,0.1-0.698,1.495,0.4,0.897c0.196,0-0.201,0.696-0.201,0.794c-0.101,0.301-0.302,0.601-0.597,0.797
		c-0.498,0.598-1.1,1.098-1.596,1.695c-2.193,2.091-4.883,3.788-7.472,5.38c-2.493,1.491-5.084,2.693-7.973,3.186
		c-0.897,0.106-1.695,0.201-2.588,0.201c-0.502,1.295-0.698,2.697-0.999,4.084c-0.498,2.39-1.296,4.985-1.095,7.878
		c0,0.291,0.097,0.598,0.097,0.892c-0.097,0.401-0.498,0.694-0.598,1.002c-0.298,0.595-0.696,0.694-1.293,0.694
		c-0.299,0-0.498-0.1-0.899-0.301c-0.196-4.584,1.496-8.869,1.997-13.448c-3.291,3.283-8.275,11.559-14.148,12.949
		c-1.101,0.308-2.295,0.199-3.389-0.294c-0.798-0.301-1.494-0.702-1.896-1.494c-1.493-3.291-0.298-7.576,0.497-11.461
		c-2.985,1.594-5.379,6.775-7.867,9.764c-2.595,3.191-5.68,5.982-9.168,8.169c-1.796,1.093-4.185,2.696-6.376,2.589
		c-1.297-0.092-1.697-1.293-1.596-2.39c0.201-1.192,0.998-2.187,1.792-3.089c2.091-2.289,4.684-3.983,7.273-5.771
		c2.589-1.896,5.283-3.692,7.772-5.58c1.395-1.102,2.79-2.197,4.185-3.391c3.888-5.78,5.48-17.34-5.083-16.341
		c-5.777,0.597-10.36,4.781-14.846,6.674c-0.497,4.682-0.995,9.868-1.892,14.152c-0.596,2.881-0.994,5.873-1.596,9.062
		c-0.196,1.096-0.295,2.496-1.395,3.092c-1.491,0.699-1.294-1.797-1.294-2.492c0-0.199,0.497-0.6,0.598-0.891
		c0.401-0.803,0.5-1.605,0.601-2.397c0.296-2.194,0.698-4.284,1.095-6.374c0.101-0.602,0.301-1.202,0.396-1.795
		c0.302-1.496,0.602-3.091,0.9-4.584c0.3-1.993,0.595-3.885,0.896-5.881c0-0.296,0.1-0.598,0.1-0.995
		c-0.696,0.397-2.292,0.995-2.592,0.699c-2.689-2.589,1.596-3.588,3.292-5.283c0.098-0.098,0.195-1.591,0.295-1.993
		c0.401-3.786,0.598-5.579,0.999-8.47c0.497-2.388,0.897-4.38,2.091-4.581c0.699-0.1-0.3,5.28-0.799,7.969
		c-0.299,2.594-0.595,3.29-0.896,5.879c3.488-2.091,7.075-5.68,10.166-9.367c2.689-3.188,6.177-7.771,7.67-12.454
		c1.497-4.782,0.899-9.864-5.477-8.967c-3.489,0.498-7.075,1.993-9.765,3.287c-3.291,1.596-6.974,4.084-10.366,6.678
		c-4.682,3.488-8.866,7.572-12.352,12.254c-1.297,1.795-2.496,3.387-3.688,5.283c-1.095,1.792-2.293,3.783-3.188,5.677
		c-0.501,0.995-0.998,2.194-1.098,3.29c-0.101,0.696,0,1.493,0.199,2.191c0.101,0.199,0.201,0.596-0.1,0.797
		c-1.294,0.699-2.091,0.298-2.589-0.896c-0.201-0.397,0.397-1.596,0.498-1.993c0.597-2.091,1.294-4.084,2.292-6.082
		c1.194-2.586,2.791-4.977,4.385-7.269c3.088-4.186,6.473-8.369,10.361-11.757c2.992-2.592,6.177-4.887,9.465-6.877
		c1.896-1.194,3.787-2.192,5.678-3.288c2.991-1.593,6.778-2.99,10.267-3.586c3.286-0.598,7.269,1.097,7.771,4.981
		c0.598,4.783-1.296,8.168-3.192,11.36C44.561,21.535,39.58,27.614,35.094,31.7z M58.611,38.177
		c1.296-1.199,3.286-4.285,2.889-5.881C59.907,33.792,58.811,36.282,58.611,38.177z M35.593,59.895
		c-2.49,1.896-4.186,3.392-3.289,4.385c5.68-2.289,10.463-5.882,13.453-11.058C41.97,54.815,39.379,56.902,35.593,59.895z"/>
</g>
</svg>