<?xml version="1.0" standalone="no"?>
<!DOCTYPE svg PUBLIC "-//W3C//DTD SVG 1.1//EN" "http://www.w3.org/Graphics/SVG/1.1/DTD/svg11.dtd" >
<svg xmlns="http://www.w3.org/2000/svg" xmlns:xlink="http://www.w3.org/1999/xlink" version="1.1">
<metadata>
Created by FontForge 20141024 at Tue Jun  9 03:00:03 2015
 By System Administrator
 The digitally encoded machine readable software for producing the
 Typefaces licensed to you is copyrighted (c) 1989, 1990, 2002 Adobe Systems.
 All rights reserved. This software is the property of Adobe Systems
 Incorporated and its licensors, and may not be reproduced, used,
 displayed, modified, disclosed, or transferred  without the express
 written approval of Adobe.
 
 The digitally encoded machine readable outline data for producing the Typefaces 
 provided as part of your laser printer is copyrighted (c) 1981, 2002 Heidelberger Druckmaschinen AG. 
 All rights reserved. This data is the property of Heidelberger Druckmaschinen AG, 
 and may not be reproduced, used, displayed, modified, disclosed or transferred 
 without the express written approval of Heidelberger Druckmaschinen AG. 
</metadata>
<defs>
<font id="TradeGothicLTStd-Light" horiz-adv-x="556" >
  <font-face 
    font-family="Trade Gothic LT Std"
    font-weight="300"
    font-stretch="normal"
    units-per-em="1000"
    panose-1="0 0 4 0 0 0 0 0 0 0"
    ascent="722"
    descent="-278"
    x-height="520"
    cap-height="722"
    bbox="-167 -212 1000 949"
    underline-thickness="50"
    underline-position="-50"
    stemh="44"
    stemv="60"
    unicode-range="U+0020-FB02"
  />
<missing-glyph horiz-adv-x="500" 
d="M0 0v700h500v-700h-500zM250 395l170 255h-340zM280 350l170 -255v510zM80 50h340l-170 255zM50 605v-510l170 255z" />
    <glyph glyph-name="fi" unicode="fi" horiz-adv-x="500" 
d="M262 472h-106v-472h-60v472h-86v48h86v74c0 90 36 138 125 138c22 0 43 -4 65 -8v-50c-19 6 -37 10 -59 10c-47 0 -71 -23 -71 -83v-81h106v-48zM419 520v-520h-60v520h60zM419 634h-60v88h60v-88z" />
    <glyph glyph-name="fl" unicode="fl" horiz-adv-x="500" 
d="M262 472h-106v-472h-60v472h-86v48h86v74c0 90 36 138 125 138c22 0 43 -4 65 -8v-50c-19 6 -37 10 -59 10c-47 0 -71 -23 -71 -83v-81h106v-48zM359 0v722h60v-722h-60z" />
    <glyph glyph-name=".notdef" horiz-adv-x="500" 
d="M0 0v700h500v-700h-500zM250 395l170 255h-340zM280 350l170 -255v510zM80 50h340l-170 255zM50 605v-510l170 255z" />
    <glyph glyph-name="space" unicode=" " horiz-adv-x="278" 
 />
    <glyph glyph-name="exclam" unicode="!" horiz-adv-x="222" 
d="M68 722h86l-18 -500h-50zM154 0h-86v90h86v-90z" />
    <glyph glyph-name="quotedbl" unicode="&#x22;" horiz-adv-x="333" 
d="M86 496v226h50v-226h-50zM197 496v226h50v-226h-50z" />
    <glyph glyph-name="numbersign" unicode="#" 
d="M502 283v-48h-113l-33 -235h-49l33 235h-148l-33 -235h-49l33 235h-118v48h124l23 157h-118v48h124l33 234h50l-33 -234h147l33 234h50l-33 -234h106v-48h-113l-22 -157h106zM369 440h-148l-22 -157h147z" />
    <glyph glyph-name="dollar" unicode="$" 
d="M255 722v70h48v-70c91 -4 165 -64 189 -118c-2 -1 -38 -31 -43 -34c-31 57 -80 95 -146 103v-282c101 -29 216 -76 216 -202c0 -123 -104 -188 -216 -189v-119h-48v119c-97 4 -184 56 -226 146l47 33c32 -72 97 -131 179 -131v297c-96 27 -200 76 -200 193
c0 121 87 182 200 184zM255 405v269c-77 0 -146 -50 -146 -131c0 -88 73 -119 146 -138zM303 332v-284c82 1 162 61 162 143c0 87 -90 116 -162 141z" />
    <glyph glyph-name="percent" unicode="%" horiz-adv-x="889" 
d="M246 722c90 0 164 -74 164 -164s-74 -164 -164 -164s-164 74 -164 164s74 164 164 164zM246 674c-64 0 -117 -52 -116 -116c-1 -64 52 -116 116 -116s117 52 116 116c1 64 -52 116 -116 116zM643 328c90 0 164 -74 164 -164s-74 -164 -164 -164s-164 74 -164 164
s74 164 164 164zM643 280c-64 0 -117 -52 -116 -116c-1 -64 52 -116 116 -116s117 52 116 116c1 64 -52 116 -116 116zM684 732l-425 -742h-52l424 742h53z" />
    <glyph glyph-name="ampersand" unicode="&#x26;" horiz-adv-x="667" 
d="M109 172c0 -85 78 -128 154 -128c85 0 137 45 161 70c-49 45 -144 180 -184 246c-80 -44 -131 -90 -131 -188zM218 574c0 -47 17 -94 44 -132c66 36 116 97 116 156c0 45 -25 80 -81 80c-47 0 -79 -30 -79 -104zM539 340l62 -12c-17 -77 -48 -150 -91 -213
c33 -34 74 -62 124 -65v-60c-64 3 -122 34 -168 79c-55 -50 -130 -79 -206 -79c-113 0 -217 61 -217 186c0 106 47 156 166 237c-33 49 -57 110 -57 168c0 96 57 151 148 151c82 0 144 -51 144 -138c0 -98 -75 -153 -148 -207c56 -79 106 -164 168 -230c36 55 62 118 75 183
z" />
    <glyph glyph-name="quoteright" unicode="&#x2019;" horiz-adv-x="222" 
d="M76 722h86v-90l-63 -150h-39l58 150h-42v90z" />
    <glyph glyph-name="parenleft" unicode="(" horiz-adv-x="333" 
d="M206 732h72c-104 -123 -150 -276 -150 -407s46 -284 150 -407h-72c-92 123 -138 276 -138 407s46 284 138 407z" />
    <glyph glyph-name="parenright" unicode=")" horiz-adv-x="333" 
d="M127 -82h-72c104 123 150 276 150 407s-46 284 -150 407h72c92 -123 138 -276 138 -407s-46 -284 -138 -407z" />
    <glyph glyph-name="asterisk" unicode="*" horiz-adv-x="500" 
d="M278 722l-11 -141l130 53l16 -50l-140 -34l91 -103l-44 -35l-68 124l-70 -124l-45 30l93 108l-143 30l18 52l132 -51l-13 141h54z" />
    <glyph glyph-name="plus" unicode="+" horiz-adv-x="600" 
d="M273 287v233h54v-233h233v-54h-233v-233h-54v233h-233v54h233z" />
    <glyph glyph-name="comma" unicode="," horiz-adv-x="278" 
d="M96 90h86v-90l-63 -150h-39l58 150h-42v90z" />
    <glyph glyph-name="hyphen" unicode="-" horiz-adv-x="333" 
d="M291 233h-249v54h249v-54z" />
    <glyph glyph-name="period" unicode="." horiz-adv-x="278" 
d="M182 0h-86v90h86v-90z" />
    <glyph glyph-name="slash" unicode="/" horiz-adv-x="278" 
d="M290 732l-243 -742h-59l247 742h55z" />
    <glyph glyph-name="zero" unicode="0" 
d="M278 732c176 0 250 -167 250 -371s-74 -371 -250 -371s-250 167 -250 371s74 371 250 371zM278 678c-130 0 -184 -129 -184 -317s54 -317 184 -317s184 129 184 317s-54 317 -184 317z" />
    <glyph glyph-name="one" unicode="1" 
d="M444 0h-310v54h124v606l-138 -20v39l162 53h42v-678h120v-54z" />
    <glyph glyph-name="two" unicode="2" 
d="M110 515l-58 11c24 130 112 206 235 206c131 0 212 -78 212 -202c0 -92 -37 -151 -177 -250c-82 -58 -214 -158 -218 -226h396v-54h-456v42c0 50 41 129 247 282c139 105 148 130 148 204c0 87 -49 150 -159 150c-86 0 -146 -55 -170 -163z" />
    <glyph glyph-name="three" unicode="3" 
d="M14 134l53 30c44 -92 99 -120 193 -120c121 0 178 56 178 158c0 104 -72 154 -208 154h-66v54h54c130 0 198 44 198 140c0 90 -60 128 -157 128c-67 0 -116 -31 -166 -94l-47 34c68 82 139 114 218 114c93 0 218 -41 218 -176c0 -83 -32 -132 -116 -170
c80 -30 138 -83 138 -182c0 -152 -104 -214 -247 -214c-117 0 -202 46 -243 144z" />
    <glyph glyph-name="four" unicode="4" 
d="M346 660l-266 -424h273v424h-7zM14 182v51l317 489h88v-487h109v-53h-109v-182h-66v182h-339z" />
    <glyph glyph-name="five" unicode="5" 
d="M124 327l-52 9l32 386h359v-54h-310l-20 -251c44 42 98 64 162 64c139 0 221 -111 221 -242c0 -145 -87 -249 -252 -249c-90 0 -176 46 -218 135l54 35c40 -82 95 -116 172 -116c129 0 184 94 184 190c0 114 -62 193 -170 193c-62 0 -134 -37 -162 -100z" />
    <glyph glyph-name="six" unicode="6" 
d="M495 672l-30 -49c-37 43 -87 55 -142 55c-165 0 -221 -185 -221 -322c48 54 119 96 194 96c147 0 232 -104 232 -238c0 -138 -113 -224 -244 -224c-201 0 -248 179 -248 345c0 182 84 397 288 397c63 0 121 -22 171 -60zM462 225c0 99 -63 173 -177 173
c-106 0 -181 -115 -181 -141c0 -130 72 -213 182 -213c112 0 176 69 176 181z" />
    <glyph glyph-name="seven" unicode="7" 
d="M55 668v54h446v-39l-307 -683h-71l308 668h-376z" />
    <glyph glyph-name="eight" unicode="8" 
d="M278 732c137 0 226 -62 226 -183c0 -79 -48 -137 -138 -169c124 -56 166 -122 166 -194c0 -144 -104 -196 -254 -196s-254 52 -254 196c0 72 42 138 166 194c-90 32 -138 90 -138 169c0 121 89 183 226 183zM90 186c0 -98 82 -142 188 -142s188 44 188 142
c0 78 -70 118 -188 166c-118 -48 -188 -88 -188 -166zM118 552c0 -78 70 -122 160 -146c90 24 160 68 160 146c0 85 -66 126 -160 126s-160 -41 -160 -126z" />
    <glyph glyph-name="nine" unicode="9" 
d="M51 50l30 51c37 -35 75 -57 139 -57c168 0 224 161 224 316c-48 -56 -119 -98 -194 -98c-147 0 -232 112 -232 230c0 152 113 240 244 240c201 0 248 -179 248 -345c0 -182 -64 -397 -272 -397c-79 0 -137 22 -187 60zM84 497c0 -103 63 -181 177 -181
c106 0 181 117 181 143c0 136 -72 219 -182 219c-112 0 -176 -69 -176 -181z" />
    <glyph glyph-name="colon" unicode=":" horiz-adv-x="278" 
d="M182 0h-86v90h86v-90zM182 304h-86v90h86v-90z" />
    <glyph glyph-name="semicolon" unicode=";" horiz-adv-x="278" 
d="M96 90h86v-90l-63 -150h-39l58 150h-42v90zM182 304h-86v90h86v-90z" />
    <glyph glyph-name="less" unicode="&#x3c;" horiz-adv-x="600" 
d="M560 52v-58l-520 238v56l520 238v-58l-452 -208z" />
    <glyph glyph-name="equal" unicode="=" horiz-adv-x="600" 
d="M560 387v-54h-520v54h520zM560 187v-54h-520v54h520z" />
    <glyph glyph-name="greater" unicode="&#x3e;" horiz-adv-x="600" 
d="M40 -6v58l452 208l-452 208v58l520 -238v-56z" />
    <glyph glyph-name="question" unicode="?" horiz-adv-x="389" 
d="M79 584l-50 25c27 74 80 123 165 123c86 0 165 -56 165 -163c0 -133 -170 -177 -170 -301v-48h-54v72c0 103 158 166 158 290c0 62 -44 96 -100 96c-66 0 -98 -53 -114 -94zM202 0h-86v90h86v-90z" />
    <glyph glyph-name="at" unicode="@" horiz-adv-x="800" 
d="M338 189c95 0 170 153 170 244c0 48 -41 97 -81 97c-104 0 -177 -142 -177 -239c0 -61 39 -102 88 -102zM540 497l26 66h54l-98 -295c-7 -21 -13 -41 -13 -56c0 -18 8 -29 26 -29c81 0 165 129 165 243c0 159 -135 262 -283 262c-181 0 -317 -153 -317 -331
c0 -177 143 -323 319 -323c101 0 205 53 265 138h52c-62 -113 -189 -182 -317 -182c-210 0 -371 168 -371 374c0 203 168 368 367 368c188 0 337 -130 337 -309c0 -154 -123 -286 -227 -286c-35 0 -65 23 -68 70l-2 -2c-32 -33 -79 -68 -131 -68c-84 0 -136 68 -136 149
c0 142 98 296 243 296c46 0 87 -24 109 -85z" />
    <glyph glyph-name="A" unicode="A" horiz-adv-x="611" 
d="M186 290h241l-120 378h-2zM25 0l231 722h101l228 -722h-70l-73 236h-273l-74 -236h-70z" />
    <glyph glyph-name="B" unicode="B" horiz-adv-x="667" 
d="M166 348v-294h171c127 0 184 46 184 148c0 83 -60 146 -205 146h-150zM166 668v-266h157c85 0 169 28 169 134s-66 132 -196 132h-130zM100 0v722h202c178 0 256 -56 256 -181c0 -78 -30 -123 -102 -156c79 -35 131 -96 131 -187c0 -150 -101 -198 -257 -198h-230z" />
    <glyph glyph-name="C" unicode="C" horiz-adv-x="611" 
d="M557 523l-61 -13c-31 106 -89 168 -176 168c-143 0 -206 -140 -206 -317s63 -317 213 -317c116 0 158 82 182 176l62 -11c-27 -129 -94 -219 -245 -219c-175 0 -278 148 -278 371s103 371 278 371c129 0 200 -91 231 -209z" />
    <glyph glyph-name="D" unicode="D" horiz-adv-x="667" 
d="M166 668v-614h140c160 0 246 112 246 307s-86 307 -246 307h-140zM100 0v722h204c224 0 314 -168 314 -361s-90 -361 -314 -361h-204z" />
    <glyph glyph-name="E" unicode="E" 
d="M531 0h-431v722h412v-54h-346v-266h249v-54h-249v-294h365v-54z" />
    <glyph glyph-name="F" unicode="F" 
d="M166 0h-66v722h424v-54h-358v-266h261v-54h-261v-348z" />
    <glyph glyph-name="G" unicode="G" horiz-adv-x="667" 
d="M572 523l-62 -11c-22 92 -79 166 -186 166c-127 0 -210 -122 -210 -317c0 -155 45 -317 231 -317c102 0 169 78 169 174v66h-182v54h248v-338h-57v71h-2c-43 -56 -96 -81 -196 -81c-161 0 -277 132 -277 371s125 371 280 371c134 0 219 -86 244 -209z" />
    <glyph glyph-name="H" unicode="H" horiz-adv-x="722" 
d="M100 0v722h66v-320h390v320h66v-722h-66v348h-390v-348h-66z" />
    <glyph glyph-name="I" unicode="I" horiz-adv-x="278" 
d="M106 0v722h66v-722h-66z" />
    <glyph glyph-name="J" unicode="J" horiz-adv-x="444" 
d="M0 86l53 31c29 -50 51 -73 114 -73c64 0 97 39 97 128v550h66v-570c0 -108 -66 -162 -167 -162c-87 0 -126 31 -163 96z" />
    <glyph glyph-name="K" unicode="K" horiz-adv-x="611" 
d="M100 0v722h66v-392l330 392h81l-233 -276l261 -446h-74l-229 398l-136 -157v-241h-66z" />
    <glyph glyph-name="L" unicode="L" horiz-adv-x="500" 
d="M100 0v722h66v-668h322v-54h-388z" />
    <glyph glyph-name="M" unicode="M" horiz-adv-x="833" 
d="M166 0h-66v722h116l199 -612h2l200 612h116v-722h-66v668h-2l-217 -668h-63l-217 668h-2v-668z" />
    <glyph glyph-name="N" unicode="N" horiz-adv-x="722" 
d="M100 0v722h111l343 -602h2v602h66v-722h-68l-386 668h-2v-668h-66z" />
    <glyph glyph-name="O" unicode="O" horiz-adv-x="667" 
d="M333 732c181 0 285 -158 285 -371s-104 -371 -285 -371s-285 158 -285 371s104 371 285 371zM333 44c133 0 219 114 219 317s-86 317 -219 317s-219 -114 -219 -317s86 -317 219 -317z" />
    <glyph glyph-name="P" unicode="P" horiz-adv-x="611" 
d="M166 0h-66v722h218c172 0 244 -80 244 -201s-72 -201 -244 -201h-152v-320zM166 668v-294h152c125 0 178 52 178 147s-53 147 -178 147h-152z" />
    <glyph glyph-name="Q" unicode="Q" horiz-adv-x="667" 
d="M644 0v-60c-63 0 -131 23 -169 91c-40 -27 -88 -41 -142 -41c-181 0 -285 158 -285 371s104 371 285 371s285 -158 285 -371c0 -122 -34 -226 -98 -292c31 -54 61 -69 124 -69zM352 157v65c57 -10 104 -42 140 -96c39 54 60 133 60 235c0 203 -86 317 -219 317
s-219 -114 -219 -317s86 -317 219 -317c43 0 82 12 114 36c-31 53 -54 71 -95 77z" />
    <glyph glyph-name="R" unicode="R" horiz-adv-x="667" 
d="M166 668v-284h178c96 0 156 53 156 142s-52 142 -156 142h-178zM416 342l177 -342h-72l-168 330h-187v-330h-66v722h244c142 0 222 -78 222 -196c0 -95 -47 -158 -150 -184z" />
    <glyph glyph-name="S" unicode="S" 
d="M32 183l61 19c28 -110 92 -158 206 -158c90 0 144 57 144 144c0 194 -391 118 -391 357c0 107 74 187 208 187c114 0 198 -62 231 -173l-57 -17c-26 80 -82 136 -174 136c-84 0 -142 -48 -142 -133c0 -49 14 -84 147 -134c203 -76 244 -126 244 -230
c0 -123 -103 -191 -220 -191c-138 0 -217 61 -257 193z" />
    <glyph glyph-name="T" unicode="T" 
d="M31 668v54h494v-54h-214v-668h-66v668h-214z" />
    <glyph glyph-name="U" unicode="U" horiz-adv-x="722" 
d="M100 722h66v-492c0 -138 67 -186 195 -186s195 48 195 186v492h66v-486c0 -164 -86 -246 -261 -246s-261 82 -261 246v486z" />
    <glyph glyph-name="V" unicode="V" 
d="M242 0l-234 722h70l196 -628h2l202 628h70l-240 -722h-66z" />
    <glyph glyph-name="W" unicode="W" horiz-adv-x="833" 
d="M207 0l-191 722h67l154 -602h2l144 602h66l141 -602h2l157 602h67l-193 -722h-66l-141 594h-2l-141 -594h-66z" />
    <glyph glyph-name="X" unicode="X" 
d="M237 378l-212 344h78l173 -288l169 288h78l-208 -344l229 -378h-78l-190 316l-186 -316h-78z" />
    <glyph glyph-name="Y" unicode="Y" 
d="M241 0v306l-221 416h74l178 -357l190 357h74l-229 -416v-306h-66z" />
    <glyph glyph-name="Z" unicode="Z" 
d="M77 668v54h428v-56l-377 -612h382v-54h-464v54l377 614h-346z" />
    <glyph glyph-name="bracketleft" unicode="[" horiz-adv-x="333" 
d="M88 722h186v-36h-126v-722h126v-36h-186v794z" />
    <glyph glyph-name="backslash" unicode="\" horiz-adv-x="278" 
d="M231 -10l-243 742h55l247 -742h-59z" />
    <glyph glyph-name="bracketright" unicode="]" horiz-adv-x="333" 
d="M245 -72h-186v36h126v722h-126v36h186v-794z" />
    <glyph glyph-name="asciicircum" unicode="^" horiz-adv-x="600" 
d="M273 722h53l218 -426h-66l-180 354l-176 -354h-66z" />
    <glyph glyph-name="underscore" unicode="_" horiz-adv-x="500" 
d="M500 -125h-500v50h500v-50z" />
    <glyph glyph-name="quoteleft" unicode="&#x2018;" horiz-adv-x="222" 
d="M146 492h-86v90l63 150h39l-58 -150h42v-90z" />
    <glyph glyph-name="a" unicode="a" horiz-adv-x="500" 
d="M424 0h-58l-8 63c-62 -49 -109 -73 -189 -73c-81 0 -143 50 -143 136c0 142 116 168 333 216v36c0 69 -30 104 -119 104c-62 0 -113 -34 -151 -94l-40 24c45 84 109 118 193 118c118 0 174 -48 174 -163v-272c0 -26 2 -60 8 -95zM356 124v170
c-238 -52 -270 -101 -270 -167c0 -57 39 -89 93 -89c56 0 125 33 177 86z" />
    <glyph glyph-name="b" unicode="b" 
d="M92 0v722h60v-270c51 54 93 78 163 78c121 0 205 -114 205 -267c0 -177 -74 -273 -209 -273c-71 0 -129 24 -167 78l-10 -68h-42zM152 389v-256c39 -54 82 -95 156 -95c104 0 152 94 152 214c0 135 -53 230 -161 230c-59 0 -127 -58 -147 -93z" />
    <glyph glyph-name="c" unicode="c" horiz-adv-x="500" 
d="M450 389l-55 -15c-27 60 -66 108 -135 108c-98 0 -164 -61 -164 -222c0 -133 60 -222 164 -222c74 0 114 41 156 108l48 -23c-44 -74 -105 -133 -204 -133c-146 0 -224 113 -224 270c0 179 90 270 224 270c98 0 159 -55 190 -141z" />
    <glyph glyph-name="d" unicode="d" 
d="M464 722v-722h-42l-10 68c-38 -54 -96 -78 -167 -78c-135 0 -209 96 -209 273c0 153 84 267 205 267c70 0 112 -24 163 -78v270h60zM404 133v256c-20 35 -88 93 -147 93c-108 0 -161 -95 -161 -230c0 -120 48 -214 152 -214c74 0 117 41 156 95z" />
    <glyph glyph-name="e" unicode="e" horiz-adv-x="500" 
d="M458 258h-362c0 -118 49 -220 167 -220c67 0 100 23 152 105l49 -26c-56 -92 -107 -127 -206 -127c-136 0 -222 87 -222 270c0 161 82 270 214 270c141 0 208 -111 208 -272zM96 306h302c-12 107 -59 175 -150 176c-106 1 -151 -107 -152 -176z" />
    <glyph glyph-name="f" unicode="f" horiz-adv-x="278" 
d="M262 472h-106v-472h-60v472h-86v48h86v74c0 90 36 138 125 138c22 0 43 -4 65 -8v-50c-19 6 -37 10 -59 10c-47 0 -71 -23 -71 -83v-81h106v-48z" />
    <glyph glyph-name="g" unicode="g" horiz-adv-x="500" 
d="M481 540v-54c-27 0 -62 -3 -83 -24c23 -28 37 -59 37 -109c0 -128 -91 -182 -201 -182c-33 0 -58 7 -84 16c-33 -12 -48 -31 -48 -50c0 -30 20 -45 161 -45c156 0 221 -50 221 -135c0 -76 -58 -141 -237 -141s-227 61 -227 123c0 45 18 83 91 110v2c-38 8 -69 24 -69 68
s40 80 78 88c-47 32 -75 82 -75 136c0 114 80 187 206 187c50 0 88 -14 121 -36c30 30 68 46 109 46zM234 38c-118 0 -154 -43 -154 -88c0 -51 50 -86 158 -86c130 0 186 35 186 89c0 43 -34 85 -190 85zM105 349c0 -90 62 -130 135 -130c84 0 135 40 135 130
c0 91 -51 133 -135 133s-135 -52 -135 -133z" />
    <glyph glyph-name="h" unicode="h" 
d="M142 0h-60v722h60v-284c56 58 102 92 178 92c108 0 154 -62 154 -175v-355h-60v349c0 86 -26 133 -106 133c-64 0 -100 -39 -166 -99v-383z" />
    <glyph glyph-name="i" unicode="i" horiz-adv-x="222" 
d="M141 520v-520h-60v520h60zM141 634h-60v88h60v-88z" />
    <glyph glyph-name="j" unicode="j" horiz-adv-x="222" 
d="M-20 -178v49c14 -4 29 -7 42 -7c40 0 59 16 59 54v602h60v-603c0 -75 -39 -101 -107 -101c-18 0 -40 2 -54 6zM141 634h-60v88h60v-88z" />
    <glyph glyph-name="k" unicode="k" horiz-adv-x="500" 
d="M142 0h-60v722h60v-478l241 276h69l-169 -194l195 -326h-67l-166 284l-103 -116v-168z" />
    <glyph glyph-name="l" unicode="l" horiz-adv-x="222" 
d="M81 0v722h60v-722h-60z" />
    <glyph glyph-name="m" unicode="m" horiz-adv-x="833" 
d="M142 0h-60v520h60v-79c53 56 92 89 173 89c58 0 111 -37 126 -95c47 55 97 95 172 95c91 0 137 -50 137 -141v-389h-60v395c0 58 -32 87 -90 87c-46 0 -122 -49 -154 -99v-383h-60v395c0 58 -32 87 -90 87c-46 0 -122 -49 -154 -99v-383z" />
    <glyph glyph-name="n" unicode="n" 
d="M142 0h-60v520h60v-82c56 58 102 92 178 92c108 0 154 -62 154 -175v-355h-60v349c0 86 -26 133 -106 133c-64 0 -100 -39 -166 -99v-383z" />
    <glyph glyph-name="o" unicode="o" horiz-adv-x="500" 
d="M250 482c-107 0 -154 -81 -154 -222s47 -222 154 -222s154 81 154 222s-47 222 -154 222zM250 530c162 0 214 -129 214 -270s-52 -270 -214 -270s-214 129 -214 270s52 270 214 270z" />
    <glyph glyph-name="p" unicode="p" 
d="M92 -184v704h60v-80h2c41 60 90 90 157 90c135 0 209 -130 209 -273c0 -181 -84 -267 -205 -267c-70 0 -112 24 -163 78v-252h-60zM152 387v-256c20 -35 88 -93 147 -93c108 0 161 86 161 230c0 108 -48 214 -152 214c-66 0 -105 -41 -156 -95z" />
    <glyph glyph-name="q" unicode="q" 
d="M464 516v-700h-60v251c-51 -53 -93 -77 -163 -77c-121 0 -205 113 -205 265c0 176 74 271 209 271c71 0 124 -30 167 -77l10 67h42zM404 130v254c-39 54 -82 94 -156 94c-104 0 -152 -93 -152 -212c0 -134 53 -228 161 -228c59 0 127 57 147 92z" />
    <glyph glyph-name="r" unicode="r" horiz-adv-x="333" 
d="M138 0h-60v520h60v-99h2c28 64 84 109 150 109h27v-58h-27c-66 0 -152 -78 -152 -178v-294z" />
    <glyph glyph-name="s" unicode="s" horiz-adv-x="444" 
d="M25 95l44 31c49 -70 93 -88 161 -88c66 0 116 43 116 99c0 151 -306 66 -306 251c0 98 77 142 165 142c87 0 142 -34 179 -94l-46 -32c-35 48 -73 78 -135 78c-58 0 -103 -28 -103 -91c0 -127 306 -52 306 -254c0 -93 -86 -147 -180 -147c-80 0 -152 32 -201 105z" />
    <glyph glyph-name="t" unicode="t" horiz-adv-x="278" 
d="M10 520h78v170h60v-170h114v-48h-114v-381c0 -35 16 -53 53 -53c20 0 42 5 61 11v-50c-20 -3 -41 -9 -61 -9c-85 0 -113 28 -113 91v391h-78v48z" />
    <glyph glyph-name="u" unicode="u" 
d="M414 520h60v-520h-60v82c-56 -58 -102 -92 -178 -92c-108 0 -154 62 -154 175v355h60v-349c0 -86 26 -133 106 -133c64 0 100 39 166 99v383z" />
    <glyph glyph-name="v" unicode="v" horiz-adv-x="444" 
d="M192 0l-178 520h64l142 -428h2l144 428h64l-179 -520h-59z" />
    <glyph glyph-name="w" unicode="w" horiz-adv-x="667" 
d="M152 0l-145 520h61l114 -418h2l119 418h59l116 -418h2l117 418h62l-151 -520h-59l-117 418h-2l-116 -418h-62z" />
    <glyph glyph-name="x" unicode="x" horiz-adv-x="444" 
d="M222 219l-140 -219h-72l176 276l-156 244h72l120 -188l120 188h72l-156 -244l176 -276h-72z" />
    <glyph glyph-name="y" unicode="y" horiz-adv-x="444" 
d="M78 520l143 -423h2l145 423h64l-194 -557c-35 -102 -72 -147 -166 -147c-26 0 -42 2 -56 6v49c18 -2 37 -7 60 -7c42 0 88 37 117 144l-181 512h66z" />
    <glyph glyph-name="z" unicode="z" horiz-adv-x="444" 
d="M49 472v48h356v-38l-300 -434h308v-48h-388v38l300 434h-276z" />
    <glyph glyph-name="braceleft" unicode="{" horiz-adv-x="333" 
d="M44 307v36c46 0 60 29 60 81v195c0 72 32 113 88 113h62v-36h-50c-26 0 -40 -10 -40 -66v-197c0 -66 -26 -96 -72 -107v-2c46 -11 72 -41 72 -107v-197c0 -56 14 -66 40 -66h50v-36h-62c-56 0 -88 41 -88 113v195c0 52 -14 81 -60 81z" />
    <glyph glyph-name="bar" unicode="|" horiz-adv-x="222" 
d="M84 -10v742h54v-742h-54z" />
    <glyph glyph-name="braceright" unicode="}" horiz-adv-x="333" 
d="M289 343v-36c-46 0 -60 -29 -60 -81v-195c0 -72 -32 -113 -88 -113h-62v36h50c26 0 40 10 40 66v197c0 66 26 96 72 107v2c-46 11 -72 41 -72 107v197c0 56 -14 66 -40 66h-50v36h62c56 0 88 -41 88 -113v-195c0 -52 14 -81 60 -81z" />
    <glyph glyph-name="asciitilde" unicode="~" horiz-adv-x="600" 
d="M511 325l38 -42c-23 -42 -62 -84 -135 -84c-36 0 -78 15 -119 32c-40 16 -81 34 -111 34c-43 0 -70 -35 -95 -70l-38 42c23 40 62 84 135 84c36 0 78 -15 119 -32c40 -16 81 -34 111 -34c43 0 70 35 95 70z" />
    <glyph glyph-name="exclamdown" unicode="&#xa1;" horiz-adv-x="222" 
d="M154 -202h-86l18 500h50zM68 520h86v-90h-86v90z" />
    <glyph glyph-name="cent" unicode="&#xa2;" 
d="M199 67l133 407c-13 5 -27 8 -44 8c-98 0 -164 -61 -164 -222c0 -88 26 -157 75 -193zM376 446l-131 -402c13 -4 28 -6 43 -6c74 0 114 41 156 108l48 -23c-44 -74 -105 -133 -204 -133c-20 0 -40 2 -58 7l-38 -117h-54l44 135c-78 42 -118 132 -118 245
c0 179 90 270 224 270c21 0 41 -3 59 -8l35 107h54l-42 -128c39 -25 67 -63 84 -112l-55 -15c-12 27 -27 52 -47 72z" />
    <glyph glyph-name="sterling" unicode="&#xa3;" 
d="M16 -10v62c86 38 115 129 115 217c0 23 -3 45 -5 66h-111v48h105c-4 49 -14 98 -14 147c0 122 79 202 202 202c115 0 193 -72 213 -183l-58 -14c-18 87 -60 143 -156 143c-97 0 -141 -61 -141 -151c0 -48 8 -97 16 -144h146v-48h-140c0 -17 3 -35 3 -53
c0 -65 -9 -109 -36 -168c48 -31 114 -70 173 -70c80 0 124 30 151 135l56 -12c-22 -112 -87 -177 -197 -177c-96 0 -148 37 -210 78c-28 -38 -65 -69 -112 -78z" />
    <glyph glyph-name="fraction" unicode="&#x2044;" horiz-adv-x="167" 
d="M-167 -10l444 742h57l-442 -742h-59z" />
    <glyph glyph-name="yen" unicode="&#xa5;" 
d="M483 440v-48h-130l-46 -86v-12h176v-48h-176v-246h-66v246h-176v48h176v12l-44 86h-132v48h108l-145 282h66l178 -357l190 357h66l-150 -282h105z" />
    <glyph glyph-name="florin" unicode="&#x192;" 
d="M499 726l-9 -45c-11 2 -22 3 -32 3c-122 0 -118 -146 -136 -249h127v-48h-132l-59 -398c-14 -94 -66 -173 -170 -173c-13 0 -26 1 -39 3l7 54c11 -4 24 -9 35 -9c77 0 100 68 116 175l51 348h-134v48h139c12 107 33 297 177 297c20 0 40 -1 59 -6z" />
    <glyph glyph-name="section" unicode="&#xa7;" horiz-adv-x="500" 
d="M399 634l-40 -25c-24 48 -58 79 -114 79c-45 0 -77 -24 -77 -80c0 -84 258 -212 258 -338c0 -82 -47 -108 -109 -112c31 -36 55 -79 55 -127c0 -78 -70 -111 -140 -111c-61 0 -122 37 -146 93l42 27c17 -43 57 -76 105 -76c55 0 89 24 89 74c0 90 -260 242 -260 358
c0 64 53 102 117 102l2 2c-33 24 -63 63 -63 116c0 68 54 116 132 116c69 0 120 -37 149 -98zM178 466c-30 0 -66 -24 -66 -60c0 -54 152 -216 196 -216c42 0 68 30 68 70c0 46 -140 206 -198 206z" />
    <glyph glyph-name="currency" unicode="&#xa4;" 
d="M488 609l38 -38l-54 -54c38 -44 54 -100 54 -156s-16 -112 -54 -156l54 -54l-38 -38l-56 55c-44 -37 -98 -55 -154 -55s-110 18 -154 55l-56 -55l-38 38l54 54c-38 44 -54 100 -54 156s16 112 54 156l-54 54l38 38l56 -55c44 37 98 55 154 55s110 -18 154 -55zM278 161
c107 0 194 92 194 200s-87 200 -194 200s-194 -92 -194 -200s87 -200 194 -200z" />
    <glyph glyph-name="quotesingle" unicode="'" horiz-adv-x="222" 
d="M86 496v226h50v-226h-50z" />
    <glyph glyph-name="quotedblleft" unicode="&#x201c;" horiz-adv-x="444" 
d="M183 492h-86v90l63 150h39l-58 -150h42v-90zM350 492h-86v90l63 150h39l-58 -150h42v-90z" />
    <glyph glyph-name="guillemotleft" unicode="&#xab;" horiz-adv-x="500" 
d="M418 414l-125 -152l125 -156h-66l-122 156l122 152h66zM269 414l-124 -152l124 -156h-66l-121 156l121 152h66z" />
    <glyph glyph-name="guilsinglleft" unicode="&#x2039;" horiz-adv-x="333" 
d="M251 414l-124 -152l124 -156h-66l-121 156l121 152h66z" />
    <glyph glyph-name="guilsinglright" unicode="&#x203a;" horiz-adv-x="333" 
d="M82 106l124 152l-124 156h66l121 -156l-121 -152h-66z" />
    <glyph glyph-name="endash" unicode="&#x2013;" horiz-adv-x="500" 
d="M500 238h-500v44h500v-44z" />
    <glyph glyph-name="dagger" unicode="&#x2020;" horiz-adv-x="500" 
d="M264 -80h-28l-20 404l18 177l-152 -18v62l152 -17l-14 204h60l-14 -204l152 17v-62l-152 18l18 -177z" />
    <glyph glyph-name="daggerdbl" unicode="&#x2021;" horiz-adv-x="500" 
d="M418 545v-62l-152 18l18 -175l-18 -175l152 18v-62l-152 17l14 -204h-60l14 204l-152 -17v62l152 -18l-18 175l18 175l-152 -18v62l152 -17l-14 204h60l-14 -204z" />
    <glyph glyph-name="periodcentered" unicode="&#xb7;" horiz-adv-x="278" 
d="M139 310c26 0 50 -22 50 -50s-24 -50 -50 -50s-50 22 -50 50s24 50 50 50z" />
    <glyph glyph-name="paragraph" unicode="&#xb6;" horiz-adv-x="500" 
d="M223 -80v416c-117 0 -207 87 -207 190c0 126 83 196 223 196h263v-44h-74v-758h-50v758h-105v-758h-50z" />
    <glyph glyph-name="bullet" unicode="&#x2022;" horiz-adv-x="500" 
d="M69 361c0 100 80 180 180 180s181 -80 181 -180s-81 -181 -181 -181s-180 81 -180 181z" />
    <glyph glyph-name="quotesinglbase" unicode="&#x201a;" horiz-adv-x="222" 
d="M76 90h86v-90l-63 -150h-39l58 150h-42v90z" />
    <glyph glyph-name="quotedblbase" unicode="&#x201e;" horiz-adv-x="444" 
d="M261 90h86v-90l-63 -150h-39l58 150h-42v90zM94 90h86v-90l-63 -150h-39l58 150h-42v90z" />
    <glyph glyph-name="quotedblright" unicode="&#x201d;" horiz-adv-x="444" 
d="M261 722h86v-90l-63 -150h-39l58 150h-42v90zM94 722h86v-90l-63 -150h-39l58 150h-42v90z" />
    <glyph glyph-name="guillemotright" unicode="&#xbb;" horiz-adv-x="500" 
d="M82 106l125 152l-125 156h66l122 -156l-122 -152h-66zM231 106l124 152l-124 156h66l121 -156l-121 -152h-66z" />
    <glyph glyph-name="ellipsis" unicode="&#x2026;" horiz-adv-x="1000" 
d="M210 0h-86v90h86v-90zM543 0h-86v90h86v-90zM876 0h-86v90h86v-90z" />
    <glyph glyph-name="perthousand" unicode="&#x2030;" horiz-adv-x="1000" 
d="M836 297c83 0 150 -68 150 -149s-67 -149 -150 -149s-150 68 -150 149s67 149 150 149zM836 253c-58 0 -106 -49 -106 -105s48 -105 106 -105s106 49 106 105s-48 105 -106 105zM467 297c83 0 150 -68 150 -149s-67 -149 -150 -149s-150 68 -150 149s67 149 150 149z
M467 253c-58 0 -106 -49 -106 -105s48 -105 106 -105s106 49 106 105s-48 105 -106 105zM164 722c83 0 150 -68 150 -149s-67 -149 -150 -149s-150 68 -150 149s67 149 150 149zM164 678c-58 0 -106 -49 -106 -105s48 -105 106 -105s106 49 106 105s-48 105 -106 105z
M544 732l-408 -742h-52l408 742h52z" />
    <glyph glyph-name="questiondown" unicode="&#xbf;" horiz-adv-x="389" 
d="M310 -64l50 -25c-27 -74 -80 -123 -165 -123c-86 0 -165 56 -165 163c0 133 170 177 170 301v48h54v-72c0 -103 -158 -166 -158 -290c0 -62 44 -96 100 -96c66 0 98 53 114 94zM187 520h86v-90h-86v90z" />
    <glyph glyph-name="grave" unicode="`" horiz-adv-x="222" 
d="M-14 716h77l111 -138h-51z" />
    <glyph glyph-name="acute" unicode="&#xb4;" horiz-adv-x="222" 
d="M159 716h77l-137 -138h-51z" />
    <glyph glyph-name="circumflex" unicode="&#x2c6;" horiz-adv-x="222" 
d="M145 716l114 -138h-66l-82 101l-82 -101h-66l114 138h68z" />
    <glyph glyph-name="tilde" unicode="&#x2dc;" horiz-adv-x="222" 
d="M-8 589h-38c4 46 37 97 88 97c25 0 50 -11 74 -22c25 -11 48 -22 69 -22c27 0 41 25 45 49h38c-9 -51 -29 -97 -89 -97c-21 0 -47 12 -72 23s-49 22 -68 22c-29 0 -43 -25 -47 -50z" />
    <glyph glyph-name="macron" unicode="&#xaf;" horiz-adv-x="222" 
d="M-37 617v44h296v-44h-296z" />
    <glyph glyph-name="breve" unicode="&#x2d8;" horiz-adv-x="222" 
d="M111 628c53 0 94 22 106 81h38c-5 -78 -60 -127 -144 -127s-139 49 -144 127h38c12 -59 53 -81 106 -81z" />
    <glyph glyph-name="dotaccent" unicode="&#x2d9;" horiz-adv-x="222" 
d="M78 682h66v-94h-66v94z" />
    <glyph glyph-name="dieresis" unicode="&#xa8;" horiz-adv-x="222" 
d="M0 682h66v-94h-66v94zM156 682h66v-94h-66v94z" />
    <glyph glyph-name="ring" unicode="&#x2da;" horiz-adv-x="222" 
d="M111 774c54 0 100 -44 100 -100s-46 -100 -100 -100s-100 44 -100 100s46 100 100 100zM111 740c-36 0 -66 -29 -66 -66s30 -66 66 -66s66 29 66 66s-30 66 -66 66z" />
    <glyph glyph-name="cedilla" unicode="&#xb8;" horiz-adv-x="222" 
d="M0 -188l14 36c16 -6 42 -16 59 -16c45 0 66 12 66 41c0 28 -23 41 -45 41c-16 0 -33 -4 -44 -9l-15 13l60 82h38l-43 -50l2 -2c6 3 18 6 31 6c48 0 78 -32 78 -84c0 -53 -61 -78 -105 -78c-33 0 -67 5 -96 20z" />
    <glyph glyph-name="hungarumlaut" unicode="&#x2dd;" horiz-adv-x="222" 
d="M85 716h77l-121 -138h-49zM224 716h77l-137 -138h-51z" />
    <glyph glyph-name="ogonek" unicode="&#x2db;" horiz-adv-x="222" 
d="M215 19v-9c-57 -22 -151 -56 -151 -129c0 -23 28 -47 57 -47c31 0 76 27 103 42l14 -30c-38 -24 -95 -52 -142 -52c-50 0 -94 21 -94 80c0 99 140 128 213 145z" />
    <glyph glyph-name="caron" unicode="&#x2c7;" horiz-adv-x="222" 
d="M77 578l-114 138h66l82 -101l82 101h66l-114 -138h-68z" />
    <glyph glyph-name="emdash" unicode="&#x2014;" horiz-adv-x="1000" 
d="M1000 282v-44h-1000v44h1000z" />
    <glyph glyph-name="AE" unicode="&#xc6;" horiz-adv-x="944" 
d="M250 290h229v376h-17zM18 0l402 722h465v-54h-340v-266h243v-54h-243v-294h359v-54h-425v236h-261l-126 -236h-74z" />
    <glyph glyph-name="ordfeminine" unicode="&#xaa;" horiz-adv-x="300" 
d="M59 643l-32 20c30 49 68 69 130 69c76 0 109 -28 109 -96v-156c0 -30 2 -43 6 -64h-44l-5 38c-35 -30 -65 -44 -117 -44c-53 0 -94 30 -94 81c0 105 139 113 204 132v25c0 26 -15 44 -64 44c-43 0 -69 -16 -93 -49zM216 496v84c-44 -14 -154 -27 -154 -88
c0 -24 19 -42 50 -42c37 0 82 19 104 46z" />
    <glyph glyph-name="Lslash" unicode="&#x141;" horiz-adv-x="500" 
d="M336 419l-170 -68v-297h322v-54h-388v324l-84 -34v62l84 34v336h66v-309l170 68v-62z" />
    <glyph glyph-name="Oslash" unicode="&#xd8;" horiz-adv-x="667" 
d="M503 577l-305 -478c35 -37 81 -55 135 -55c133 0 219 114 219 317c0 92 -17 165 -49 216zM163 144l306 478c-36 38 -82 56 -136 56c-133 0 -219 -114 -219 -317c0 -91 17 -164 49 -217zM626 770l-88 -137c52 -65 80 -161 80 -272c0 -213 -104 -371 -285 -371
c-67 0 -123 22 -167 59l-62 -97h-63l87 137c-53 67 -80 163 -80 272c0 213 104 371 285 371c67 0 124 -22 168 -60l62 98h63z" />
    <glyph glyph-name="OE" unicode="&#x152;" horiz-adv-x="1000" 
d="M960 0h-404c-33 0 -67 -2 -99 -5c-32 -2 -62 -5 -87 -5c-231 0 -322 152 -322 371c0 203 109 371 322 371c28 0 63 -2 96 -5c33 -2 64 -5 86 -5h389v-54h-341v-266h244v-54h-244v-294h360v-54zM534 144v434c0 64 -46 100 -142 100c-188 0 -278 -128 -278 -317
c0 -203 82 -317 278 -317c96 0 142 36 142 100z" />
    <glyph glyph-name="ordmasculine" unicode="&#xba;" horiz-adv-x="300" 
d="M66 571c0 -76 20 -115 84 -115c63 0 83 39 83 115c0 74 -20 115 -83 115c-64 0 -84 -41 -84 -115zM150 732c105 0 139 -77 139 -161s-34 -161 -139 -161c-106 0 -140 77 -140 161s34 161 140 161z" />
    <glyph glyph-name="ae" unicode="&#xe6;" horiz-adv-x="778" 
d="M338 124v170c-220 -52 -252 -101 -252 -167c0 -57 39 -89 93 -89c56 0 125 33 159 86zM736 258h-338c0 -118 37 -220 143 -220c67 0 100 23 152 105l49 -26c-56 -92 -107 -127 -206 -127c-70 0 -126 34 -166 88c-56 -69 -125 -88 -201 -88c-81 0 -143 50 -143 136
c0 142 116 168 312 216v36c0 53 -30 104 -110 104c-73 0 -113 -34 -137 -96l-44 26c35 84 93 118 177 118c63 0 127 -19 158 -85c39 56 94 85 158 85c140 0 196 -111 196 -272zM398 306h278c-12 107 -50 176 -138 176c-90 0 -134 -79 -140 -176z" />
    <glyph glyph-name="dotlessi" unicode="&#x131;" horiz-adv-x="222" 
d="M141 520v-520h-60v520h60z" />
    <glyph glyph-name="lslash" unicode="&#x142;" horiz-adv-x="222" 
d="M141 365v-365h-60v334l-80 -42v64l80 42v324h60v-293l80 41v-64z" />
    <glyph glyph-name="oslash" unicode="&#xf8;" horiz-adv-x="500" 
d="M128 106l213 346c-24 20 -54 30 -91 30c-107 0 -154 -81 -154 -222c0 -65 10 -117 32 -154zM373 413l-213 -346c23 -19 53 -29 90 -29c107 0 154 81 154 222c0 66 -10 118 -31 153zM488 600l-83 -135c43 -50 59 -126 59 -205c0 -141 -52 -270 -214 -270
c-49 0 -88 12 -117 33l-63 -103h-56l82 134c-44 51 -60 127 -60 206c0 141 52 270 214 270c49 0 88 -12 118 -33l63 103h57z" />
    <glyph glyph-name="oe" unicode="&#x153;" horiz-adv-x="833" 
d="M96 260c0 -141 47 -222 150 -222c97 0 144 81 144 222s-47 222 -144 222c-103 0 -150 -81 -150 -222zM791 258h-341c0 -118 36 -220 146 -220c67 0 100 23 152 105l49 -26c-56 -92 -107 -127 -206 -127c-84 0 -139 39 -175 114c-28 -64 -79 -114 -170 -114
c-158 0 -210 129 -210 270s52 270 210 270c90 0 145 -49 172 -113c22 54 74 113 172 113c138 0 201 -111 201 -272zM450 306h281c-12 107 -53 176 -142 176c-96 0 -133 -79 -139 -176z" />
    <glyph glyph-name="germandbls" unicode="&#xdf;" horiz-adv-x="500" 
d="M136 0h-60v533c0 113 58 189 176 189c102 0 172 -77 172 -178c0 -66 -32 -121 -92 -150c90 -28 137 -99 137 -193c0 -129 -61 -211 -171 -211c-28 0 -68 9 -92 23l21 45c21 -11 50 -20 74 -20c69 0 108 60 108 156c0 121 -63 166 -182 166v48c87 2 137 40 137 138
c0 80 -40 128 -121 128c-84 0 -107 -71 -107 -138v-536z" />
    <glyph glyph-name="onesuperior" unicode="&#xb9;" horiz-adv-x="333" 
d="M275 292h-202v44h73v346l-82 -20v37l93 33h41v-396h77v-44z" />
    <glyph glyph-name="logicalnot" unicode="&#xac;" horiz-adv-x="600" 
d="M506 133v200h-466v54h520v-254h-54z" />
    <glyph glyph-name="mu" unicode="&#xb5;" 
d="M414 520h60v-520h-60v82c-56 -58 -102 -92 -178 -92c-39 0 -71 8 -94 24v-198h-60v704h60v-349c0 -86 26 -133 106 -133c64 0 100 39 166 99v383z" />
    <glyph glyph-name="trademark" unicode="&#x2122;" horiz-adv-x="990" 
d="M374 722v-44h-133v-368h-50v368h-137v44h320zM533 722l133 -328l129 328h85v-412h-50v368h-2l-149 -368h-30l-149 368h-2v-368h-50v412h85z" />
    <glyph glyph-name="Eth" unicode="&#xd0;" horiz-adv-x="667" 
d="M166 402h196v-54h-196v-294h140c160 0 246 112 246 307s-86 307 -246 307h-140v-266zM10 402h90v320h204c224 0 314 -168 314 -361s-90 -361 -314 -361h-204v348h-90v54z" />
    <glyph glyph-name="onehalf" unicode="&#xbd;" horiz-adv-x="834" 
d="M299 292h-202v44h73v346l-82 -20v37l93 33h41v-396h77v-44zM545 309l-46 7c15 78 73 124 156 124c82 0 136 -48 136 -130s-74 -115 -139 -164c-72 -54 -106 -78 -108 -102h246v-44h-298v33c0 35 12 66 123 143c105 69 124 98 124 138c0 49 -32 82 -82 82
c-59 0 -98 -27 -112 -87zM169 -10l444 742h57l-442 -742h-59z" />
    <glyph glyph-name="plusminus" unicode="&#xb1;" horiz-adv-x="600" 
d="M273 335v185h54v-185h233v-54h-233v-185h-54v185h-233v54h233zM40 0v54h520v-54h-520z" />
    <glyph glyph-name="Thorn" unicode="&#xde;" horiz-adv-x="611" 
d="M166 170v-170h-66v722h66v-150h152c172 0 244 -80 244 -201s-72 -201 -244 -201h-152zM166 518v-294h152c125 0 178 52 178 147s-53 147 -178 147h-152z" />
    <glyph glyph-name="onequarter" unicode="&#xbc;" horiz-adv-x="834" 
d="M669 374l-151 -226h155v226h-4zM462 104v48l196 282h67v-286h71v-44h-71v-104h-52v104h-211zM299 292h-202v44h73v346l-82 -20v37l93 33h41v-396h77v-44zM181 -10l444 742h57l-442 -742h-59z" />
    <glyph glyph-name="divide" unicode="&#xf7;" horiz-adv-x="600" 
d="M560 233h-520v54h520v-54zM300 534c31 0 57 -26 57 -57s-26 -57 -57 -57s-57 26 -57 57s26 57 57 57zM300 100c31 0 57 -26 57 -57s-26 -57 -57 -57s-57 26 -57 57s26 57 57 57z" />
    <glyph glyph-name="brokenbar" unicode="&#xa6;" horiz-adv-x="222" 
d="M84 -10v280h54v-280h-54zM84 452v280h54v-280h-54z" />
    <glyph glyph-name="degree" unicode="&#xb0;" horiz-adv-x="400" 
d="M200 690c-59 0 -100 -45 -100 -104s41 -104 100 -104s100 45 100 104s-41 104 -100 104zM200 732c82 0 146 -65 146 -146s-64 -146 -146 -146s-146 65 -146 146s64 146 146 146z" />
    <glyph glyph-name="thorn" unicode="&#xfe;" 
d="M92 -184v906h60v-282h2c41 60 90 90 157 90c135 0 209 -130 209 -273c0 -181 -84 -267 -205 -267c-70 0 -112 24 -163 78v-252h-60zM152 387v-256c20 -35 88 -93 147 -93c108 0 161 86 161 230c0 108 -48 214 -152 214c-66 0 -105 -41 -156 -95z" />
    <glyph glyph-name="threequarters" unicode="&#xbe;" horiz-adv-x="834" 
d="M669 374l-151 -226h155v226h-4zM462 104v48l196 282h67v-286h71v-44h-71v-104h-52v104h-211zM30 372l41 24c28 -51 58 -66 119 -66c70 0 107 32 107 83c0 61 -47 87 -126 87h-43v44h35c75 0 119 22 119 78c0 42 -39 66 -85 66c-52 0 -76 -8 -108 -50l-36 23
c38 53 81 71 140 71c69 0 141 -33 141 -106c0 -50 -11 -80 -66 -102c52 -18 81 -50 81 -110c0 -91 -68 -128 -161 -128c-76 0 -131 28 -158 86zM197 -10l444 742h57l-442 -742h-59z" />
    <glyph glyph-name="twosuperior" unicode="&#xb2;" horiz-adv-x="333" 
d="M69 601l-46 7c15 78 73 124 156 124c82 0 136 -48 136 -130s-74 -115 -139 -164c-72 -54 -106 -78 -108 -102h246v-44h-298v33c0 35 12 66 123 143c105 69 124 98 124 138c0 49 -32 82 -82 82c-59 0 -98 -27 -112 -87z" />
    <glyph glyph-name="registered" unicode="&#xae;" horiz-adv-x="800" 
d="M322 336v-196h-60v441h169c99 0 143 -43 143 -122c0 -78 -51 -112 -102 -123l123 -196h-68l-120 196h-85zM322 386h69c58 0 123 -3 123 74c0 62 -50 71 -96 71h-96v-145zM400 732c205 0 371 -167 371 -371s-166 -371 -371 -371s-371 167 -371 371s166 371 371 371z
M400 40c178 0 311 142 311 321s-133 321 -311 321s-311 -142 -311 -321s133 -321 311 -321z" />
    <glyph glyph-name="minus" unicode="&#x2212;" horiz-adv-x="600" 
d="M560 233h-520v54h520v-54z" />
    <glyph glyph-name="eth" unicode="&#xf0;" horiz-adv-x="500" 
d="M250 482c-107 0 -154 -81 -154 -222s47 -222 154 -222s154 81 154 222s-47 222 -154 222zM174 696l53 26c26 -17 49 -34 70 -53l102 53l28 -40l-93 -49c103 -111 130 -245 130 -373c0 -141 -52 -270 -214 -270s-214 129 -214 270s52 270 214 270c40 0 73 -8 99 -22l2 2
c-18 34 -41 67 -68 97l-102 -53l-28 40l93 49c-21 19 -45 37 -72 53z" />
    <glyph glyph-name="multiply" unicode="&#xd7;" horiz-adv-x="600" 
d="M560 482l-222 -222l222 -222l-38 -38l-222 222l-222 -222l-38 38l222 222l-222 222l38 38l222 -222l222 222z" />
    <glyph glyph-name="threesuperior" unicode="&#xb3;" horiz-adv-x="333" 
d="M2 372l41 24c28 -51 58 -66 119 -66c70 0 107 32 107 83c0 61 -47 87 -126 87h-43v44h35c75 0 119 22 119 78c0 42 -39 66 -85 66c-52 0 -76 -8 -108 -50l-36 23c38 53 81 71 140 71c69 0 141 -33 141 -106c0 -50 -11 -80 -66 -102c52 -18 81 -50 81 -110
c0 -91 -68 -128 -161 -128c-76 0 -131 28 -158 86z" />
    <glyph glyph-name="copyright" unicode="&#xa9;" horiz-adv-x="800" 
d="M400 732c205 0 371 -167 371 -371s-166 -371 -371 -371s-371 167 -371 371s166 371 371 371zM400 40c178 0 311 142 311 321s-133 321 -311 321s-311 -142 -311 -321s133 -321 311 -321zM544 285h54c-22 -94 -93 -159 -187 -159c-137 0 -225 103 -225 236
c0 134 83 234 222 234c97 0 177 -55 190 -155h-54c-13 58 -62 105 -135 105c-104 0 -163 -82 -163 -183c0 -97 64 -187 165 -187c72 0 121 49 133 109z" />
    <glyph glyph-name="Aacute" unicode="&#xc1;" horiz-adv-x="611" 
d="M186 290h241l-120 378h-2zM25 0l231 722h101l228 -722h-70l-73 236h-273l-74 -236h-70zM351 891h77l-137 -138h-51z" />
    <glyph glyph-name="Acircumflex" unicode="&#xc2;" horiz-adv-x="611" 
d="M186 290h241l-120 378h-2zM25 0l231 722h101l228 -722h-70l-73 236h-273l-74 -236h-70zM337 891l114 -138h-66l-82 101l-82 -101h-66l114 138h68z" />
    <glyph glyph-name="Adieresis" unicode="&#xc4;" horiz-adv-x="611" 
d="M186 290h241l-120 378h-2zM25 0l231 722h101l228 -722h-70l-73 236h-273l-74 -236h-70zM192 857h66v-94h-66v94zM348 857h66v-94h-66v94z" />
    <glyph glyph-name="Agrave" unicode="&#xc0;" horiz-adv-x="611" 
d="M186 290h241l-120 378h-2zM25 0l231 722h101l228 -722h-70l-73 236h-273l-74 -236h-70zM178 891h77l111 -138h-51z" />
    <glyph glyph-name="Aring" unicode="&#xc5;" horiz-adv-x="611" 
d="M186 290h241l-120 378h-2zM25 0l231 722h101l228 -722h-70l-73 236h-273l-74 -236h-70zM303 949c54 0 100 -44 100 -100s-46 -100 -100 -100s-100 44 -100 100s46 100 100 100zM303 915c-36 0 -66 -29 -66 -66s30 -66 66 -66s66 29 66 66s-30 66 -66 66z" />
    <glyph glyph-name="Atilde" unicode="&#xc3;" horiz-adv-x="611" 
d="M186 290h241l-120 378h-2zM25 0l231 722h101l228 -722h-70l-73 236h-273l-74 -236h-70zM184 764h-38c4 46 37 97 88 97c25 0 50 -11 74 -22c25 -11 48 -22 69 -22c27 0 41 25 45 49h38c-9 -51 -29 -97 -89 -97c-21 0 -47 12 -72 23s-49 22 -68 22c-29 0 -43 -25 -47 -50z
" />
    <glyph glyph-name="Ccedilla" unicode="&#xc7;" horiz-adv-x="611" 
d="M557 523l-61 -13c-31 106 -89 168 -176 168c-143 0 -206 -140 -206 -317s63 -317 213 -317c116 0 158 82 182 176l62 -11c-27 -129 -94 -219 -245 -219l-34 -40l2 -2c6 3 18 6 31 6c48 0 78 -32 78 -84c0 -53 -61 -78 -105 -78c-33 0 -67 5 -96 20l14 36
c16 -6 42 -16 59 -16c45 0 66 12 66 41c0 28 -23 41 -45 41c-16 0 -33 -4 -44 -9l-15 13l54 74c-154 19 -243 161 -243 369c0 223 103 371 278 371c129 0 200 -91 231 -209z" />
    <glyph glyph-name="Eacute" unicode="&#xc9;" 
d="M531 0h-431v722h412v-54h-346v-266h249v-54h-249v-294h365v-54zM356 891h77l-137 -138h-51z" />
    <glyph glyph-name="Ecircumflex" unicode="&#xca;" 
d="M531 0h-431v722h412v-54h-346v-266h249v-54h-249v-294h365v-54zM342 891l114 -138h-66l-82 101l-82 -101h-66l114 138h68z" />
    <glyph glyph-name="Edieresis" unicode="&#xcb;" 
d="M531 0h-431v722h412v-54h-346v-266h249v-54h-249v-294h365v-54zM197 857h66v-94h-66v94zM353 857h66v-94h-66v94z" />
    <glyph glyph-name="Egrave" unicode="&#xc8;" 
d="M531 0h-431v722h412v-54h-346v-266h249v-54h-249v-294h365v-54zM183 891h77l111 -138h-51z" />
    <glyph glyph-name="Iacute" unicode="&#xcd;" horiz-adv-x="278" 
d="M106 0v722h66v-722h-66zM180 891h77l-137 -138h-51z" />
    <glyph glyph-name="Icircumflex" unicode="&#xce;" horiz-adv-x="278" 
d="M106 0v722h66v-722h-66zM166 891l114 -138h-66l-82 101l-82 -101h-66l114 138h68z" />
    <glyph glyph-name="Idieresis" unicode="&#xcf;" horiz-adv-x="278" 
d="M106 0v722h66v-722h-66zM21 857h66v-94h-66v94zM177 857h66v-94h-66v94z" />
    <glyph glyph-name="Igrave" unicode="&#xcc;" horiz-adv-x="278" 
d="M106 0v722h66v-722h-66zM7 891h77l111 -138h-51z" />
    <glyph glyph-name="Ntilde" unicode="&#xd1;" horiz-adv-x="722" 
d="M100 0v722h111l343 -602h2v602h66v-722h-68l-386 668h-2v-668h-66zM242 764h-38c4 46 37 97 88 97c25 0 50 -11 74 -22c25 -11 48 -22 69 -22c27 0 41 25 45 49h38c-9 -51 -29 -97 -89 -97c-21 0 -47 12 -72 23s-49 22 -68 22c-29 0 -43 -25 -47 -50z" />
    <glyph glyph-name="Oacute" unicode="&#xd3;" horiz-adv-x="667" 
d="M333 732c181 0 285 -158 285 -371s-104 -371 -285 -371s-285 158 -285 371s104 371 285 371zM333 44c133 0 219 114 219 317s-86 317 -219 317s-219 -114 -219 -317s86 -317 219 -317zM382 891h77l-137 -138h-51z" />
    <glyph glyph-name="Ocircumflex" unicode="&#xd4;" horiz-adv-x="667" 
d="M333 732c181 0 285 -158 285 -371s-104 -371 -285 -371s-285 158 -285 371s104 371 285 371zM333 44c133 0 219 114 219 317s-86 317 -219 317s-219 -114 -219 -317s86 -317 219 -317zM368 891l114 -138h-66l-82 101l-82 -101h-66l114 138h68z" />
    <glyph glyph-name="Odieresis" unicode="&#xd6;" horiz-adv-x="667" 
d="M333 732c181 0 285 -158 285 -371s-104 -371 -285 -371s-285 158 -285 371s104 371 285 371zM333 44c133 0 219 114 219 317s-86 317 -219 317s-219 -114 -219 -317s86 -317 219 -317zM223 857h66v-94h-66v94zM379 857h66v-94h-66v94z" />
    <glyph glyph-name="Ograve" unicode="&#xd2;" horiz-adv-x="667" 
d="M333 732c181 0 285 -158 285 -371s-104 -371 -285 -371s-285 158 -285 371s104 371 285 371zM333 44c133 0 219 114 219 317s-86 317 -219 317s-219 -114 -219 -317s86 -317 219 -317zM209 891h77l111 -138h-51z" />
    <glyph glyph-name="Otilde" unicode="&#xd5;" horiz-adv-x="667" 
d="M333 732c181 0 285 -158 285 -371s-104 -371 -285 -371s-285 158 -285 371s104 371 285 371zM333 44c133 0 219 114 219 317s-86 317 -219 317s-219 -114 -219 -317s86 -317 219 -317zM215 764h-38c4 46 37 97 88 97c25 0 50 -11 74 -22c25 -11 48 -22 69 -22
c27 0 41 25 45 49h38c-9 -51 -29 -97 -89 -97c-21 0 -47 12 -72 23s-49 22 -68 22c-29 0 -43 -25 -47 -50z" />
    <glyph glyph-name="Scaron" unicode="&#x160;" 
d="M32 183l61 19c28 -110 92 -158 206 -158c90 0 144 57 144 144c0 194 -391 118 -391 357c0 107 74 187 208 187c114 0 198 -62 231 -173l-57 -17c-26 80 -82 136 -174 136c-84 0 -142 -48 -142 -133c0 -49 14 -84 147 -134c203 -76 244 -126 244 -230
c0 -123 -103 -191 -220 -191c-138 0 -217 61 -257 193zM244 753l-114 138h66l82 -101l82 101h66l-114 -138h-68z" />
    <glyph glyph-name="Uacute" unicode="&#xda;" horiz-adv-x="722" 
d="M100 722h66v-492c0 -138 67 -186 195 -186s195 48 195 186v492h66v-486c0 -164 -86 -246 -261 -246s-261 82 -261 246v486zM404 891h77l-137 -138h-51z" />
    <glyph glyph-name="Ucircumflex" unicode="&#xdb;" horiz-adv-x="722" 
d="M100 722h66v-492c0 -138 67 -186 195 -186s195 48 195 186v492h66v-486c0 -164 -86 -246 -261 -246s-261 82 -261 246v486zM390 891l114 -138h-66l-82 101l-82 -101h-66l114 138h68z" />
    <glyph glyph-name="Udieresis" unicode="&#xdc;" horiz-adv-x="722" 
d="M100 722h66v-492c0 -138 67 -186 195 -186s195 48 195 186v492h66v-486c0 -164 -86 -246 -261 -246s-261 82 -261 246v486zM245 857h66v-94h-66v94zM401 857h66v-94h-66v94z" />
    <glyph glyph-name="Ugrave" unicode="&#xd9;" horiz-adv-x="722" 
d="M100 722h66v-492c0 -138 67 -186 195 -186s195 48 195 186v492h66v-486c0 -164 -86 -246 -261 -246s-261 82 -261 246v486zM231 891h77l111 -138h-51z" />
    <glyph glyph-name="Yacute" unicode="&#xdd;" 
d="M241 0v306l-221 416h74l178 -357l190 357h74l-229 -416v-306h-66zM326 891h77l-137 -138h-51z" />
    <glyph glyph-name="Ydieresis" unicode="&#x178;" 
d="M241 0v306l-221 416h74l178 -357l190 357h74l-229 -416v-306h-66zM167 857h66v-94h-66v94zM323 857h66v-94h-66v94z" />
    <glyph glyph-name="Zcaron" unicode="&#x17d;" 
d="M77 668v54h428v-56l-377 -612h382v-54h-464v54l377 614h-346zM244 753l-114 138h66l82 -101l82 101h66l-114 -138h-68z" />
    <glyph glyph-name="aacute" unicode="&#xe1;" horiz-adv-x="500" 
d="M424 0h-58l-8 63c-62 -49 -109 -73 -189 -73c-81 0 -143 50 -143 136c0 142 116 168 333 216v36c0 69 -30 104 -119 104c-62 0 -113 -34 -151 -94l-40 24c45 84 109 118 193 118c118 0 174 -48 174 -163v-272c0 -26 2 -60 8 -95zM356 124v170
c-238 -52 -270 -101 -270 -167c0 -57 39 -89 93 -89c56 0 125 33 177 86zM298 716h77l-137 -138h-51z" />
    <glyph glyph-name="acircumflex" unicode="&#xe2;" horiz-adv-x="500" 
d="M424 0h-58l-8 63c-62 -49 -109 -73 -189 -73c-81 0 -143 50 -143 136c0 142 116 168 333 216v36c0 69 -30 104 -119 104c-62 0 -113 -34 -151 -94l-40 24c45 84 109 118 193 118c118 0 174 -48 174 -163v-272c0 -26 2 -60 8 -95zM356 124v170
c-238 -52 -270 -101 -270 -167c0 -57 39 -89 93 -89c56 0 125 33 177 86zM284 716l114 -138h-66l-82 101l-82 -101h-66l114 138h68z" />
    <glyph glyph-name="adieresis" unicode="&#xe4;" horiz-adv-x="500" 
d="M424 0h-58l-8 63c-62 -49 -109 -73 -189 -73c-81 0 -143 50 -143 136c0 142 116 168 333 216v36c0 69 -30 104 -119 104c-62 0 -113 -34 -151 -94l-40 24c45 84 109 118 193 118c118 0 174 -48 174 -163v-272c0 -26 2 -60 8 -95zM356 124v170
c-238 -52 -270 -101 -270 -167c0 -57 39 -89 93 -89c56 0 125 33 177 86zM139 682h66v-94h-66v94zM295 682h66v-94h-66v94z" />
    <glyph glyph-name="agrave" unicode="&#xe0;" horiz-adv-x="500" 
d="M424 0h-58l-8 63c-62 -49 -109 -73 -189 -73c-81 0 -143 50 -143 136c0 142 116 168 333 216v36c0 69 -30 104 -119 104c-62 0 -113 -34 -151 -94l-40 24c45 84 109 118 193 118c118 0 174 -48 174 -163v-272c0 -26 2 -60 8 -95zM356 124v170
c-238 -52 -270 -101 -270 -167c0 -57 39 -89 93 -89c56 0 125 33 177 86zM125 716h77l111 -138h-51z" />
    <glyph glyph-name="aring" unicode="&#xe5;" horiz-adv-x="500" 
d="M424 0h-58l-8 63c-62 -49 -109 -73 -189 -73c-81 0 -143 50 -143 136c0 142 116 168 333 216v36c0 69 -30 104 -119 104c-62 0 -113 -34 -151 -94l-40 24c45 84 109 118 193 118c118 0 174 -48 174 -163v-272c0 -26 2 -60 8 -95zM356 124v170
c-238 -52 -270 -101 -270 -167c0 -57 39 -89 93 -89c56 0 125 33 177 86zM250 774c54 0 100 -44 100 -100s-46 -100 -100 -100s-100 44 -100 100s46 100 100 100zM250 740c-36 0 -66 -29 -66 -66s30 -66 66 -66s66 29 66 66s-30 66 -66 66z" />
    <glyph glyph-name="atilde" unicode="&#xe3;" horiz-adv-x="500" 
d="M424 0h-58l-8 63c-62 -49 -109 -73 -189 -73c-81 0 -143 50 -143 136c0 142 116 168 333 216v36c0 69 -30 104 -119 104c-62 0 -113 -34 -151 -94l-40 24c45 84 109 118 193 118c118 0 174 -48 174 -163v-272c0 -26 2 -60 8 -95zM356 124v170
c-238 -52 -270 -101 -270 -167c0 -57 39 -89 93 -89c56 0 125 33 177 86zM131 589h-38c4 46 37 97 88 97c25 0 50 -11 74 -22c25 -11 48 -22 69 -22c27 0 41 25 45 49h38c-9 -51 -29 -97 -89 -97c-21 0 -47 12 -72 23s-49 22 -68 22c-29 0 -43 -25 -47 -50z" />
    <glyph glyph-name="ccedilla" unicode="&#xe7;" horiz-adv-x="500" 
d="M450 389l-55 -15c-27 60 -66 108 -135 108c-98 0 -164 -61 -164 -222c0 -133 60 -222 164 -222c74 0 114 41 156 108l48 -23c-43 -73 -104 -132 -201 -133l-34 -40l2 -2c6 3 18 6 31 6c48 0 78 -32 78 -84c0 -53 -61 -78 -105 -78c-33 0 -67 5 -96 20l14 36
c16 -6 42 -16 59 -16c45 0 66 12 66 41c0 28 -23 41 -45 41c-16 0 -33 -4 -44 -9l-15 13l54 74c-125 15 -192 123 -192 268c0 179 90 270 224 270c98 0 159 -55 190 -141z" />
    <glyph glyph-name="eacute" unicode="&#xe9;" horiz-adv-x="500" 
d="M458 258h-362c0 -118 49 -220 167 -220c67 0 100 23 152 105l49 -26c-56 -92 -107 -127 -206 -127c-136 0 -222 87 -222 270c0 161 82 270 214 270c141 0 208 -111 208 -272zM96 306h302c-12 107 -59 175 -150 176c-106 1 -151 -107 -152 -176zM298 716h77l-137 -138h-51
z" />
    <glyph glyph-name="ecircumflex" unicode="&#xea;" horiz-adv-x="500" 
d="M458 258h-362c0 -118 49 -220 167 -220c67 0 100 23 152 105l49 -26c-56 -92 -107 -127 -206 -127c-136 0 -222 87 -222 270c0 161 82 270 214 270c141 0 208 -111 208 -272zM96 306h302c-12 107 -59 175 -150 176c-106 1 -151 -107 -152 -176zM284 716l114 -138h-66
l-82 101l-82 -101h-66l114 138h68z" />
    <glyph glyph-name="edieresis" unicode="&#xeb;" horiz-adv-x="500" 
d="M458 258h-362c0 -118 49 -220 167 -220c67 0 100 23 152 105l49 -26c-56 -92 -107 -127 -206 -127c-136 0 -222 87 -222 270c0 161 82 270 214 270c141 0 208 -111 208 -272zM96 306h302c-12 107 -59 175 -150 176c-106 1 -151 -107 -152 -176zM139 682h66v-94h-66v94z
M295 682h66v-94h-66v94z" />
    <glyph glyph-name="egrave" unicode="&#xe8;" horiz-adv-x="500" 
d="M458 258h-362c0 -118 49 -220 167 -220c67 0 100 23 152 105l49 -26c-56 -92 -107 -127 -206 -127c-136 0 -222 87 -222 270c0 161 82 270 214 270c141 0 208 -111 208 -272zM96 306h302c-12 107 -59 175 -150 176c-106 1 -151 -107 -152 -176zM125 716h77l111 -138h-51z
" />
    <glyph glyph-name="iacute" unicode="&#xed;" horiz-adv-x="222" 
d="M141 520v-520h-60v520h60zM159 716h77l-137 -138h-51z" />
    <glyph glyph-name="icircumflex" unicode="&#xee;" horiz-adv-x="222" 
d="M141 520v-520h-60v520h60zM145 716l114 -138h-66l-82 101l-82 -101h-66l114 138h68z" />
    <glyph glyph-name="idieresis" unicode="&#xef;" horiz-adv-x="222" 
d="M141 520v-520h-60v520h60zM0 682h66v-94h-66v94zM156 682h66v-94h-66v94z" />
    <glyph glyph-name="igrave" unicode="&#xec;" horiz-adv-x="222" 
d="M141 520v-520h-60v520h60zM-14 716h77l111 -138h-51z" />
    <glyph glyph-name="ntilde" unicode="&#xf1;" 
d="M142 0h-60v520h60v-82c56 58 102 92 178 92c108 0 154 -62 154 -175v-355h-60v349c0 86 -26 133 -106 133c-64 0 -100 -39 -166 -99v-383zM152 589h-38c4 46 37 97 88 97c25 0 50 -11 74 -22c25 -11 48 -22 69 -22c27 0 41 25 45 49h38c-9 -51 -29 -97 -89 -97
c-21 0 -47 12 -72 23s-49 22 -68 22c-29 0 -43 -25 -47 -50z" />
    <glyph glyph-name="oacute" unicode="&#xf3;" horiz-adv-x="500" 
d="M250 482c-107 0 -154 -81 -154 -222s47 -222 154 -222s154 81 154 222s-47 222 -154 222zM250 530c162 0 214 -129 214 -270s-52 -270 -214 -270s-214 129 -214 270s52 270 214 270zM293 716h77l-137 -138h-51z" />
    <glyph glyph-name="ocircumflex" unicode="&#xf4;" horiz-adv-x="500" 
d="M250 482c-107 0 -154 -81 -154 -222s47 -222 154 -222s154 81 154 222s-47 222 -154 222zM250 530c162 0 214 -129 214 -270s-52 -270 -214 -270s-214 129 -214 270s52 270 214 270zM279 716l114 -138h-66l-82 101l-82 -101h-66l114 138h68z" />
    <glyph glyph-name="odieresis" unicode="&#xf6;" horiz-adv-x="500" 
d="M250 482c-107 0 -154 -81 -154 -222s47 -222 154 -222s154 81 154 222s-47 222 -154 222zM250 530c162 0 214 -129 214 -270s-52 -270 -214 -270s-214 129 -214 270s52 270 214 270zM134 682h66v-94h-66v94zM290 682h66v-94h-66v94z" />
    <glyph glyph-name="ograve" unicode="&#xf2;" horiz-adv-x="500" 
d="M250 482c-107 0 -154 -81 -154 -222s47 -222 154 -222s154 81 154 222s-47 222 -154 222zM250 530c162 0 214 -129 214 -270s-52 -270 -214 -270s-214 129 -214 270s52 270 214 270zM120 716h77l111 -138h-51z" />
    <glyph glyph-name="otilde" unicode="&#xf5;" horiz-adv-x="500" 
d="M250 482c-107 0 -154 -81 -154 -222s47 -222 154 -222s154 81 154 222s-47 222 -154 222zM250 530c162 0 214 -129 214 -270s-52 -270 -214 -270s-214 129 -214 270s52 270 214 270zM126 589h-38c4 46 37 97 88 97c25 0 50 -11 74 -22c25 -11 48 -22 69 -22
c27 0 41 25 45 49h38c-9 -51 -29 -97 -89 -97c-21 0 -47 12 -72 23s-49 22 -68 22c-29 0 -43 -25 -47 -50z" />
    <glyph glyph-name="scaron" unicode="&#x161;" horiz-adv-x="444" 
d="M25 95l44 31c49 -70 93 -88 161 -88c66 0 116 43 116 99c0 151 -306 66 -306 251c0 98 77 142 165 142c87 0 142 -34 179 -94l-46 -32c-35 48 -73 78 -135 78c-58 0 -103 -28 -103 -91c0 -127 306 -52 306 -254c0 -93 -86 -147 -180 -147c-80 0 -152 32 -201 105z
M188 578l-114 138h66l82 -101l82 101h66l-114 -138h-68z" />
    <glyph glyph-name="uacute" unicode="&#xfa;" 
d="M414 520h60v-520h-60v82c-56 -58 -102 -92 -178 -92c-108 0 -154 62 -154 175v355h60v-349c0 -86 26 -133 106 -133c64 0 100 39 166 99v383zM326 716h77l-137 -138h-51z" />
    <glyph glyph-name="ucircumflex" unicode="&#xfb;" 
d="M414 520h60v-520h-60v82c-56 -58 -102 -92 -178 -92c-108 0 -154 62 -154 175v355h60v-349c0 -86 26 -133 106 -133c64 0 100 39 166 99v383zM312 716l114 -138h-66l-82 101l-82 -101h-66l114 138h68z" />
    <glyph glyph-name="udieresis" unicode="&#xfc;" 
d="M414 520h60v-520h-60v82c-56 -58 -102 -92 -178 -92c-108 0 -154 62 -154 175v355h60v-349c0 -86 26 -133 106 -133c64 0 100 39 166 99v383zM167 682h66v-94h-66v94zM323 682h66v-94h-66v94z" />
    <glyph glyph-name="ugrave" unicode="&#xf9;" 
d="M414 520h60v-520h-60v82c-56 -58 -102 -92 -178 -92c-108 0 -154 62 -154 175v355h60v-349c0 -86 26 -133 106 -133c64 0 100 39 166 99v383zM153 716h77l111 -138h-51z" />
    <glyph glyph-name="yacute" unicode="&#xfd;" horiz-adv-x="444" 
d="M78 520l143 -423h2l145 423h64l-194 -557c-35 -102 -72 -147 -166 -147c-26 0 -42 2 -56 6v49c18 -2 37 -7 60 -7c42 0 88 37 117 144l-181 512h66zM270 716h77l-137 -138h-51z" />
    <glyph glyph-name="ydieresis" unicode="&#xff;" horiz-adv-x="444" 
d="M78 520l143 -423h2l145 423h64l-194 -557c-35 -102 -72 -147 -166 -147c-26 0 -42 2 -56 6v49c18 -2 37 -7 60 -7c42 0 88 37 117 144l-181 512h66zM111 682h66v-94h-66v94zM267 682h66v-94h-66v94z" />
    <glyph glyph-name="zcaron" unicode="&#x17e;" horiz-adv-x="444" 
d="M49 472v48h356v-38l-300 -434h308v-48h-388v38l300 434h-276zM188 578l-114 138h66l82 -101l82 101h66l-114 -138h-68z" />
    <glyph glyph-name="Delta" unicode="&#x2206;" horiz-adv-x="647" 
d="M33 0v44l258 691h66l256 -690v-45h-580zM92 49h458l-157 422c-18 55 -56 143 -69 191h-5c-9 -39 -43 -121 -62 -175z" />
    <glyph glyph-name="Omega" unicode="&#x2126;" horiz-adv-x="724" 
d="M207 49v3c-75 67 -140 181 -140 329c0 208 132 345 298 345c175 0 292 -155 292 -341c0 -154 -72 -273 -142 -333v-3h156v-49h-233v36c81 56 160 176 160 339c-1 136 -79 301 -234 301c-145 0 -238 -135 -238 -303c0 -153 80 -283 160 -337v-36h-233v49h154z" />
    <glyph glyph-name="uni03BC" unicode="&#x3bc;" 
d="M414 520h60v-520h-60v82c-56 -58 -102 -92 -178 -92c-39 0 -71 8 -94 24v-198h-60v704h60v-349c0 -86 26 -133 106 -133c64 0 100 39 166 99v383z" />
    <glyph glyph-name="pi" unicode="&#x3c0;" horiz-adv-x="562" 
d="M534 479h-84v-329c0 -88 7 -124 15 -150h-57c-8 15 -16 56 -16 143v336h-196c-6 -140 -38 -384 -76 -479h-58c40 108 70 333 76 479c-67 0 -95 -5 -116 -13l-11 39c25 14 64 25 138 25h391z" />
    <glyph glyph-name="Euro" unicode="&#x20ac;" 
d="M532 618l-24 -73c-32 70 -100 133 -182 133c-119 0 -175 -125 -180 -238h326l-16 -48h-312c-1 -12 -1 -25 -1 -37c0 -20 1 -41 2 -61h277l-16 -48h-255c14 -104 73 -202 179 -202c79 0 136 41 178 108v-77c-43 -56 -110 -85 -179 -85c-153 0 -226 128 -244 256h-69l16 48
h47c-1 19 -2 38 -2 59c0 13 0 26 1 39h-62l17 48h48c13 161 95 292 247 292c83 0 160 -38 204 -114z" />
    <glyph glyph-name="afii61289" unicode="&#x2113;" horiz-adv-x="477" 
d="M422 142l31 -24c-42 -79 -102 -123 -181 -123c-113 0 -158 92 -161 197v14c-18 -15 -39 -33 -59 -50l-21 37c29 24 56 46 80 70v288c0 187 78 240 146 240c80 0 119 -71 119 -160c0 -132 -84 -257 -210 -382v-32c1 -127 56 -175 117 -175c66 0 115 54 139 100zM166 557
v-247c93 103 167 208 167 318c0 69 -21 117 -77 117c-41 0 -90 -48 -90 -188z" />
    <glyph glyph-name="estimated" unicode="&#x212e;" horiz-adv-x="895" 
d="M859 351h-667c-4 0 -6 -1 -6 -5v-202c0 -9 3 -16 9 -23c65 -67 154 -110 252 -110c107 0 201 49 266 123h59c-73 -86 -193 -143 -326 -143c-227 0 -411 165 -411 369c0 206 184 372 411 372c229 0 413 -166 413 -372v-9zM707 377v203c0 9 -3 18 -9 24
c-65 64 -153 106 -251 106c-97 0 -186 -43 -251 -109c-7 -7 -10 -15 -10 -25v-199c0 -2 2 -7 6 -7h511c3 0 4 5 4 7z" />
    <glyph glyph-name="partialdiff" unicode="&#x2202;" horiz-adv-x="539" 
d="M102 704l-23 43c33 27 84 56 162 56c125 0 246 -120 246 -386c0 -238 -85 -423 -255 -423c-127 0 -188 115 -188 234c0 159 103 260 213 260c95 0 154 -70 171 -102h1c1 13 1 34 1 48c0 196 -91 319 -194 319c-62 0 -106 -25 -134 -49zM237 44h1c102 0 169 128 183 276
c-17 49 -74 119 -156 119c-88 0 -162 -93 -162 -209c0 -109 52 -186 134 -186z" />
    <glyph glyph-name="product" unicode="&#x220f;" horiz-adv-x="694" 
d="M666 661h-112v-760h-57v760h-301v-760h-58v760h-111v54h639v-54z" />
    <glyph glyph-name="summation" unicode="&#x2211;" horiz-adv-x="554" 
d="M530 -99h-507v41l279 364l-266 368v41h478v-52h-396v-3l251 -346l-269 -353v-4h430v-56z" />
    <glyph glyph-name="uni2219" unicode="&#x2219;" horiz-adv-x="278" 
d="M139 310c26 0 50 -22 50 -50s-24 -50 -50 -50s-50 22 -50 50s24 50 50 50z" />
    <glyph glyph-name="radical" unicode="&#x221a;" horiz-adv-x="567" 
d="M565 847l-222 -1003h-55l-165 484l-75 -28l-13 38l126 48l136 -397c6 -23 13 -52 17 -71h1c3 18 8 46 12 69l192 860h46z" />
    <glyph glyph-name="infinity" unicode="&#x221e;" horiz-adv-x="783" 
d="M731 298v-1c0 -94 -73 -156 -152 -156c-65 0 -115 44 -186 122c-54 -60 -110 -122 -193 -122c-81 0 -148 68 -148 153c0 89 66 155 155 155c76 0 135 -61 189 -123c55 61 107 123 191 123c87 0 144 -62 144 -151zM206 181h1c67 0 120 67 163 112c-47 55 -96 118 -171 118
c-66 0 -103 -57 -103 -118c0 -62 44 -112 110 -112zM582 411h-1c-70 0 -127 -79 -163 -114c69 -74 110 -116 165 -116c67 0 105 58 105 113c0 75 -46 117 -106 117z" />
    <glyph glyph-name="integral" unicode="&#x222b;" horiz-adv-x="348" 
d="M333 856l-13 -42c-8 6 -24 11 -37 11c-16 0 -37 -7 -51 -24c-27 -31 -36 -85 -36 -186c0 -158 13 -361 13 -523c0 -114 -22 -173 -45 -207c-21 -30 -55 -46 -91 -46c-24 0 -50 10 -61 17l12 43c8 -4 26 -12 46 -12c17 0 36 9 48 24c20 27 36 74 36 182
c0 163 -13 370 -13 527c0 110 14 172 52 212c24 26 55 38 87 38c20 0 42 -8 53 -14z" />
    <glyph glyph-name="approxequal" unicode="&#x2248;" horiz-adv-x="571" 
d="M494 432l27 -22c-26 -51 -64 -94 -128 -94c-41 0 -70 17 -119 43c-32 18 -62 35 -96 35c-48 0 -77 -35 -102 -76l-28 21c31 60 79 95 136 95c50 0 87 -29 115 -43c35 -19 60 -35 98 -35c42 0 69 25 97 76zM494 265l27 -22c-26 -51 -64 -93 -127 -93c-42 0 -70 16 -120 43
c-32 18 -62 35 -96 35c-49 0 -77 -37 -102 -77l-28 22c31 59 79 94 136 94c50 0 87 -27 115 -42c34 -18 60 -35 98 -35c42 0 68 25 97 75z" />
    <glyph glyph-name="notequal" unicode="&#x2260;" horiz-adv-x="571" 
d="M400 510l-47 -103h164v-41h-181l-71 -151h252v-41h-269l-55 -120l-33 16l48 104h-156v41h174l70 151h-244v41h261l54 118z" />
    <glyph glyph-name="lessequal" unicode="&#x2264;" horiz-adv-x="571" 
d="M514 99l-456 229v43l456 229v-51l-410 -198v-2l410 -200v-50zM517 14h-465v43h465v-43z" />
    <glyph glyph-name="greaterequal" unicode="&#x2265;" horiz-adv-x="571" 
d="M59 600l456 -229v-43l-456 -229v50l409 199v2l-409 199v51zM517 14h-464v43h464v-43z" />
    <glyph glyph-name="lozenge" unicode="&#x25ca;" horiz-adv-x="569" 
d="M512 357l-205 -401h-48l-202 401l204 402h48zM457 355l-153 301c-8 16 -16 38 -20 51h-2c-4 -15 -10 -33 -19 -51l-152 -297l154 -302c9 -21 15 -39 18 -51h3c3 13 11 36 18 50z" />
    <glyph glyph-name="uni00A0" unicode="&#xa0;" horiz-adv-x="278" 
 />
    <glyph glyph-name="uni00AD" unicode="&#xad;" horiz-adv-x="333" 
d="M291 233h-249v54h249v-54z" />
    <glyph glyph-name="uni02C9" unicode="&#x2c9;" horiz-adv-x="222" 
d="M-37 617v44h296v-44h-296z" />
    <glyph glyph-name="uni03A9" unicode="&#x3a9;" horiz-adv-x="724" 
d="M207 49v3c-75 67 -140 181 -140 329c0 208 132 345 298 345c175 0 292 -155 292 -341c0 -154 -72 -273 -142 -333v-3h156v-49h-233v36c81 56 160 176 160 339c-1 136 -79 301 -234 301c-145 0 -238 -135 -238 -303c0 -153 80 -283 160 -337v-36h-233v49h154z" />
    <glyph glyph-name="uni2215" unicode="&#x2215;" horiz-adv-x="167" 
d="M-167 -10l444 742h57l-442 -742h-59z" />
    </font>
</defs>
</svg>
