<?xml version="1.0" standalone="no"?>
<!DOCTYPE svg PUBLIC "-//W3C//DTD SVG 1.1//EN" "http://www.w3.org/Graphics/SVG/1.1/DTD/svg11.dtd" >
<svg xmlns="http://www.w3.org/2000/svg" xmlns:xlink="http://www.w3.org/1999/xlink" version="1.1">
<metadata></metadata>
<defs>
<font id="optimadisplaylightlight" horiz-adv-x="681" >
<font-face units-per-em="2048" ascent="1638" descent="-410" />
<missing-glyph horiz-adv-x="491" />
<glyph horiz-adv-x="2048" />
<glyph horiz-adv-x="2048" />
<glyph unicode="&#xd;" />
<glyph unicode=" "  horiz-adv-x="491" />
<glyph unicode="&#x09;" horiz-adv-x="491" />
<glyph unicode="&#xa0;" horiz-adv-x="491" />
<glyph unicode="!" horiz-adv-x="550" d="M205 57.5q0 28.5 21.5 50t50 21.5t49 -20.5t20.5 -51.5q0 -29 -20.5 -49t-49 -20t-50 20.5t-21.5 49zM219 1292q0 70 11.5 96.5t44 26.5t44 -25.5t11.5 -97.5q0 -14 -2 -47t-2 -37l-35 -864h-27l-41 862q-4 20 -4 86z" />
<glyph unicode="&#x22;" horiz-adv-x="638" d="M133 891v436q0 33 2 50.5t11.5 31.5t28 14t26.5 -14t10 -32.5t2 -53.5v-432q0 -98 -39 -98q-27 0 -34 24.5t-7 73.5zM426 891v434q0 33 2 50.5t11.5 32.5t27.5 15q25 0 31 -22.5t6 -77.5v-432q0 -27 -1 -39t-4 -28.5t-11.5 -23.5t-20.5 -7q-27 0 -34 24.5t-7 73.5z" />
<glyph unicode="#" horiz-adv-x="1116" d="M68 469v78l239 -4l45 301l-229 -4v78l239 -7l62 449h80l-74 -449h342l62 449h79l-71 -449l209 7v-78l-220 4l-43 -301l211 4v-78l-221 6l-57 -475h-80l70 475h-346l-62 -475h-80l74 475zM375 541h346l43 305h-344z" />
<glyph unicode="$" horiz-adv-x="970" d="M82 84q16 47 22 90h13q53 -66 143 -107.5t197 -43.5l4 653q-166 57 -255 138t-89 208q0 150 94 243t252 111v156q33 -14 63 0v-154q193 0 305 -92q-25 -70 -26 -86h-19q-90 129 -260 135l-6 -594q188 -70 277.5 -150.5t89.5 -211.5q0 -164 -105.5 -272.5t-265.5 -126.5 l4 -218q-35 10 -69 0l6 215q-94 -4 -204 24t-171 83zM197 1055q0 -109 68.5 -176.5t197.5 -114.5v567q-119 -14 -192.5 -93t-73.5 -183zM514 25q121 18 207 103t86 220q0 104 -68.5 178t-220.5 131z" />
<glyph unicode="%" horiz-adv-x="1513" d="M72 1036q0 145 93 241.5t236 96.5q137 0 219 -94t82 -235.5t-90 -244t-227 -102.5q-145 0 -229 95.5t-84 242.5zM152 1022q0 -117 59 -200t172 -83q109 0 173.5 95.5t64.5 214.5q0 115 -59.5 199.5t-162.5 84.5q-117 0 -182 -93t-65 -218zM340 -68l762 1493q29 -6 61 0 l-762 -1493q-30 6 -61 0zM811 307.5q0 147.5 93 243.5t237 96q137 0 219 -94t82 -236q0 -139 -89 -241.5t-229 -102.5q-145 0 -229 93.5t-84 241zM891 295q0 -115 59.5 -199t171.5 -84q109 0 173.5 95.5t64.5 214.5q0 117 -58.5 200.5t-162.5 83.5q-117 0 -182.5 -92 t-65.5 -219z" />
<glyph unicode="&#x26;" horiz-adv-x="1306" d="M92 307q0 260 387 453q-47 68 -71.5 106.5t-52 106t-27.5 125.5q0 125 90 200.5t213 75.5q113 0 191.5 -56t78.5 -167q0 -61 -28.5 -118.5t-83 -108t-100.5 -83t-111 -71.5q223 -283 391 -465q49 55 125.5 176t115.5 221q21 -33 52 -51q-115 -213 -263 -385 q193 -217 246 -266q-49 4 -67 4q-16 0 -62 -4q-20 23 -85.5 98.5t-90.5 104.5q-209 -231 -469 -232q-176 0 -277.5 92.5t-101.5 243.5zM178 326q0 -133 91 -215t233 -82q121 0 230 64.5t177 142.5q-182 217 -403 489q-328 -190 -328 -399zM406 1122q0 -121 145 -319 q287 180 287 344q0 86 -60.5 135t-144.5 49q-94 0 -160.5 -59.5t-66.5 -149.5z" />
<glyph unicode="'" horiz-adv-x="313" d="M133 891v436q0 33 2 50.5t11.5 31.5t28 14t26.5 -14t10 -32.5t2 -53.5v-432q0 -98 -39 -98q-27 0 -34 24.5t-7 73.5z" />
<glyph unicode="(" horiz-adv-x="544" d="M129 573q0 492 326 836l26 -25q-279 -338 -278 -823q0 -225 62 -418.5t218 -390.5l-28 -26q-174 193 -250 393t-76 454z" />
<glyph unicode=")" horiz-adv-x="544" d="M61 1382l29 27q326 -355 326 -840q0 -494 -326 -843l-27 26q279 338 279 817q0 467 -281 813z" />
<glyph unicode="*" horiz-adv-x="806" d="M90 1229q20 20 37 59l262 -188l-22 325q39 -4 75 0l-22 -327l260 194q20 -39 39 -61l-285 -156l283 -153q-23 -33 -35 -62l-262 191l24 -326q-40 4 -77 0l22 324l-260 -189q-12 29 -35 60l283 155z" />
<glyph unicode="+" horiz-adv-x="1241" d="M104 639v74h480v477h73v-477h480v-74h-480v-483h-73v483h-480z" />
<glyph unicode="," horiz-adv-x="417" d="M51 -252l117 336q23 61 49 76q23 10 44.5 -3t17.5 -40q-4 -25 -33 -74l-168 -305z" />
<glyph unicode="-" d="M84 473v72h512v-72h-512z" />
<glyph unicode="." horiz-adv-x="417" d="M137 57.5q0 28.5 21.5 50t50.5 21.5t49.5 -20.5t20.5 -49t-20.5 -50t-49.5 -21.5t-50.5 20.5t-21.5 49z" />
<glyph unicode="/" horiz-adv-x="544" d="M-98 -217l649 1749q25 -8 72 0l-656 -1749q-43 4 -65 0z" />
<glyph unicode="0" horiz-adv-x="1183" d="M104 678q0 129 25 244.5t79 220t156.5 166t241.5 61.5q137 0 233.5 -59.5t146.5 -163t71.5 -216t21.5 -247.5q0 -139 -27.5 -262t-84 -226.5t-152.5 -165t-221 -61.5q-135 0 -234.5 59.5t-152.5 163t-78 223.5t-25 263zM195 682q0 -127 19 -237.5t62 -211t126 -159 t196 -58.5q137 0 229.5 105.5t127 250t34.5 312.5q0 88 -8 168t-34.5 169t-67.5 153.5t-112 106.5t-165 42q-121 0 -206 -60.5t-126 -163t-58 -203.5t-17 -214z" />
<glyph unicode="1" horiz-adv-x="548" d="M2 1206q111 49 182 86l176 92l15 -8q-2 -10 -5 -114.5t-6.5 -262t-3.5 -276.5q0 -535 11 -723q-33 4 -54 4q-10 0 -26.5 -2t-24.5 -2q12 217 13 641l-3 637l-10 4l-223 -119q-23 29 -41 43z" />
<glyph unicode="2" horiz-adv-x="985" d="M2 0v31q31 27 149.5 138.5t153.5 141.5q135 129 209 206t136.5 163t86 162t23.5 166q0 147 -87 230t-229 83q-98 0 -182 -56.5t-119 -142.5l-10 -4l-41 58q57 90 151.5 142t207.5 52q184 0 294.5 -90t110.5 -268q0 -207 -209 -430q-37 -39 -291 -289l-217 -207l4 -10 q248 0 369 4l369 10q-4 -29 -4 -47q0 -29 4 -43q-4 0 -64.5 2t-160 3t-197.5 1z" />
<glyph unicode="3" horiz-adv-x="927" d="M-6 43q12 31 20 72l9 6q113 -96 284 -96q184 0 303 107.5t119 273.5q0 135 -96 212.5t-275 77.5q-55 0 -102 -6q0 6 1 16.5t1 14.5q0 20 -2 31q27 -2 106 -2q119 0 212.5 87t93.5 224q0 125 -84 192.5t-209 67.5q-80 0 -156 -36t-108 -89l-13 -4l-28 68q127 111 319 110 q154 0 262.5 -73.5t108.5 -229.5q0 -240 -277 -334q2 -2 0 -8q147 -14 243.5 -94t96.5 -221q0 -195 -147.5 -314t-372.5 -119q-172 0 -309 66z" />
<glyph unicode="4" horiz-adv-x="1017" d="M14 397v23q193 262 316 436q199 281 352 514q29 -4 88 0q-6 -276 -8 -455l-2 -450l196 8q-6 -27 -2 -78l-196 4q4 -295 8 -399q-8 0 -24.5 1t-24.5 1t-25.5 -1t-25.5 -1q4 45 6 144.5t2 177.5v77zM121 475l6 -10h551v788l-6 4q-188 -268 -283 -403q-29 -41 -93.5 -131 t-110.5 -155.5t-64 -92.5z" />
<glyph unicode="5" horiz-adv-x="960" d="M18 63q18 41 25 78l12 2q94 -115 303 -114q182 0 295 118.5t113 286.5q0 154 -93 242t-243 88q-141 0 -254 -88l-18 12q12 139 12 313l-6 365l10 4q90 -8 348 -8q176 0 293 6l6 -8q-12 -47 -10 -86q-106 14 -270 16l-305 4q-2 -31 -5.5 -140.5t-5.5 -147.5l-6 -252 q100 63 244 63q170 0 284.5 -102.5t114.5 -272.5q0 -197 -144.5 -329.5t-365.5 -132.5q-209 0 -334 83z" />
<glyph unicode="6" horiz-adv-x="1081" d="M104 553q0 362 156 580q164 244 445 243q61 0 92 -6l18 -57q-49 16 -104 16q-229 0 -371.5 -217t-140.5 -569q45 125 150.5 197.5t238.5 72.5q168 0 289.5 -98t121.5 -293q0 -197 -118.5 -325t-315.5 -128q-244 0 -352.5 159t-108.5 425zM211 375q0 -139 95 -249 t261 -110q154 0 246 117t92 281q0 162 -95 254t-239 92q-147 0 -253.5 -109.5t-106.5 -275.5z" />
<glyph unicode="7" horiz-adv-x="944" d="M92 1274q4 29 4 47q0 16 -4 49q143 -10 400 -10h442v-23q-238 -422 -383 -688q-229 -422 -344 -649q-41 10 -90 0v12q217 383 360 631l359 635l-7 6q-252 0 -395 -2z" />
<glyph unicode="8" horiz-adv-x="1040" d="M88 375q0 129 84 231.5t213 130.5v11q-102 27 -163.5 108.5t-61.5 183.5q0 154 106.5 242t257.5 88q150 0 254.5 -86t104.5 -235q0 -102 -62.5 -187.5t-165.5 -111.5v-9q131 -29 214 -128t83 -230q0 -193 -117.5 -303.5t-316.5 -110.5q-195 0 -312.5 107.5t-117.5 298.5z M180 375q0 -160 91 -258.5t251 -98.5t249 99.5t89 261.5q0 137 -91 238.5t-246.5 101.5t-249 -104.5t-93.5 -239.5zM248 1034q0 -104 70.5 -187t203.5 -83q137 0 205 87t68 198q0 125 -76 199.5t-197 74.5q-119 0 -196.5 -79t-77.5 -210z" />
<glyph unicode="9" horiz-adv-x="1079" d="M82 926q0 188 118.5 316t319.5 128q236 0 345.5 -155t109.5 -429q0 -326 -164 -567q-164 -250 -444 -250q-84 0 -144 27q-6 20 -26 72l6 8q66 -57 172 -58q119 0 221 73t170 194q119 217 113 514q-43 -121 -149.5 -194t-237.5 -75q-172 -4 -291 98.5t-119 297.5zM174 932 q0 -162 93 -256t245 -92q143 0 248.5 108t105.5 264q0 139 -90 253t-260 114q-158 0 -250 -116.5t-92 -274.5z" />
<glyph unicode=":" horiz-adv-x="417" d="M137 57.5q0 28.5 21.5 50t50.5 21.5t49.5 -20.5t20.5 -49t-20.5 -50t-49.5 -21.5t-50.5 20.5t-21.5 49zM137 850q0 29 21.5 50.5t50.5 21.5t49.5 -20.5t20.5 -51.5q0 -29 -20.5 -50.5t-49.5 -21.5t-50.5 20.5t-21.5 51.5z" />
<glyph unicode=";" horiz-adv-x="417" d="M51 -252l117 336q23 61 49 76q23 10 44.5 -3t17.5 -40q-4 -25 -33 -74l-168 -305zM147 850q0 29 21.5 50.5t50.5 21.5t49.5 -20.5t20.5 -51.5q0 -29 -20.5 -50.5t-49.5 -21.5t-50.5 20.5t-21.5 51.5z" />
<glyph unicode="&#x3c;" horiz-adv-x="1241" d="M100 645v62l1043 479v-78l-940 -432l940 -432v-78z" />
<glyph unicode="=" horiz-adv-x="1241" d="M104 469v72h1033v-72h-1033zM104 807v72h1033v-72h-1033z" />
<glyph unicode="&#x3e;" horiz-adv-x="1241" d="M98 166v78l940 432l-940 432v78l1043 -479v-62z" />
<glyph unicode="?" horiz-adv-x="720" d="M117 1350q113 63 213 63q129 0 212 -72.5t83 -193.5q0 -86 -30 -148.5t-93 -132.5l-129 -141q-37 -41 -53.5 -60.5t-36 -59.5t-19.5 -77q0 -59 32 -94t79 -37q37 0 65 15l9 -6l-19 -46q-18 -8 -57 -8q-78 2 -130.5 50.5t-52.5 148.5q0 106 123 233l121 131 q115 123 115 240q0 86 -60.5 146.5t-164.5 60.5q-51 0 -109.5 -24.5t-87.5 -59.5q2 27 -10 72zM256 57.5q0 28.5 21.5 50t50 21.5t50 -20.5t21.5 -49t-21.5 -50t-50 -21.5t-50 20.5t-21.5 49z" />
<glyph unicode="@" horiz-adv-x="1638" d="M102.5 682q16.5 317 229.5 530t526 213q283 0 476.5 -174t183.5 -424q-10 -225 -148 -378q-61 -70 -146 -119t-165 -47q-168 8 -105 217q-53 -100 -132 -155.5t-169 -51.5q-119 6 -185.5 92t-61.5 205q6 176 126.5 317.5t288.5 141.5q88 0 147.5 -57.5t69.5 -137.5 l47 174h95l-160 -577q-31 -121 59 -127q61 -4 134 46t118 109q111 137 121 344q10 221 -164 381t-418 160q-293 0 -486.5 -189.5t-213.5 -478.5q-20 -305 148.5 -488t498.5 -183q174 0 349 89t274 232l33 -20q-90 -152 -275.5 -254.5t-386.5 -102.5q-360 0 -542.5 198 t-166 515zM498 567q-4 -92 40 -160.5t130 -72.5q88 -4 163.5 70.5t117 168t55.5 185.5q20 98 -33 174t-135 76q-139 0 -235.5 -144.5t-102.5 -296.5z" />
<glyph unicode="A" horiz-adv-x="1300" d="M18 0q88 190 312 707l309 720h41q188 -461 313 -759q185 -457 283 -668q-41 4 -57 4q-20 0 -62 -4q-35 106 -219 561q-186 2 -315 2l-293 -2q-150 -362 -219 -561q-29 4 -45 4q-14 0 -48 -4zM354 621q147 -4 262 -5l302 2l-279 678z" />
<glyph unicode="B" horiz-adv-x="1136" d="M178 0q14 195 15 737q0 418 -11 664q57 -4 117 -4q55 0 133 2t113 2q411 0 411 -306q0 -134 -92 -223.5t-231 -119.5q170 -14 272.5 -105.5t102.5 -228.5q0 -193 -131.5 -302.5t-354.5 -113.5h-229zM276 719q0 -117 1.5 -263.5t2.5 -239t1 -153.5q98 -10 245 -10 q162 0 273.5 95.5t111.5 252.5q0 143 -106.5 230.5t-282.5 87.5h-246zM276 766h179q168 0 289.5 85t121.5 226q0 274 -344 275q-92 0 -239 -6q-7 -80 -7 -580z" />
<glyph unicode="C" horiz-adv-x="1304" d="M96 698q0 307 198 521.5t537 214.5q242 -1 455 -99q-14 -31 -24 -86l-15 -2q-72 59 -185.5 97t-236.5 38q-289 0 -459.5 -199.5t-170.5 -488.5q0 -295 163.5 -485.5t462.5 -190.5q113 0 228.5 38t201.5 104q2 0 8.5 2t10.5 2l-15 -80q-172 -115 -438 -115 q-344 0 -532.5 195.5t-188.5 533.5z" />
<glyph unicode="D" horiz-adv-x="1474" d="M184 0q10 283 11 715q0 340 -9 688q45 -4 107.5 -4t146.5 2t131 2q135 0 212 -5t178.5 -36t175.5 -92q219 -181 219 -531q0 -199 -72 -351t-194 -247q-111 -86 -244 -113.5t-340 -27.5h-322zM278 526q0 -262 9 -465q150 -10 221 -10q348 0 512 121q106 78 171.5 228.5 t65.5 330.5q0 150 -49 284t-141 212q-96 80 -217 101.5t-305 21.5q-6 0 -258 -7q-4 -131 -8 -636q-1 -94 -1 -181z" />
<glyph unicode="E" horiz-adv-x="942" d="M176 0q10 344 10 754q0 354 -8 649q164 -6 307 -6q231 0 336 6q-4 -29 -4 -39q0 -25 4 -37q-111 8 -323 12h-84h-85h-48q-8 -227 -8 -443q0 -65 1 -128q60 -1 108.5 -1t86.5 1q205 4 305 10q-8 -29 -8 -39q0 -14 6 -37q-123 8 -289 9h-209q0 -565 2 -648h271 q100 0 284 13q-4 -12 -4 -37t4 -39q-254 4 -337 4q-236 0 -318 -4z" />
<glyph unicode="F" horiz-adv-x="884" d="M174 0q12 246 12 731q0 444 -8 672q76 -6 316 -6q8 0 327 6q-4 -29 -4 -37q0 -25 4 -37q-150 10 -321 10h-219q-6 -158 -7 -571q60 -1 110 -1t89 1q238 4 301 10q-8 -29 -8 -39q0 -14 6 -37q-123 8 -293 9h-205q0 -567 5 -711q-33 4 -54 4q-27 0 -51 -4z" />
<glyph unicode="G" horiz-adv-x="1525" d="M104 700q0 350 208 542t548 192q289 0 502 -119q-23 -59 -29 -86h-16q-179 155 -457 155h-4q-287 0 -470 -180t-183 -499q0 -305 168 -496t497 -191q233 0 408 91v264q0 186 -4 262q29 -4 51 -4q31 0 49 4q-6 -98 -6 -260v-301q-244 -104 -510 -105q-373 0 -562.5 194.5 t-189.5 536.5z" />
<glyph unicode="H" horiz-adv-x="1431" d="M178 0q12 332 12 764q0 362 -10 639q31 -6 56 -6q8 0 17 1t19.5 3t16.5 2l-13 -615q270 -4 435 -4l442 4q-6 475 -12 615q31 -6 55 -6q10 0 30.5 3t22.5 3q-10 -229 -10 -645q0 -502 10 -758q-37 4 -51 4q-12 0 -57 -4l14 725q-276 4 -444 4l-437 -4q4 -561 13 -725 q-41 4 -54 4q-18 0 -55 -4z" />
<glyph unicode="I" horiz-adv-x="466" d="M178 0q12 332 12 764q0 307 -12 639q31 -6 55 -6q8 0 17.5 1t20 3t16.5 2q-10 -240 -11 -639l11 -764q-6 0 -24.5 3t-29.5 3z" />
<glyph unicode="J" horiz-adv-x="464" d="M-55 -242q66 2 112.5 27t73.5 58.5t42 88t19.5 101.5t4.5 114q4 213 4 644q0 299 -11 612q18 -4 54 -4q33 0 53 4q-10 -152 -10 -676l6 -549v-16q0 -435 -334 -447q0 14 -14 43z" />
<glyph unicode="K" horiz-adv-x="1062" d="M178 0q12 332 12 756q0 342 -12 645q33 -4 51 -4q33 0 54 4q-8 -274 -9 -651h17q2 0 18.5 15t37 33.5t24.5 22.5q125 123 247 252l314 328q16 -2 45 -2q35 0 53 2q-25 -27 -86 -87.5t-154.5 -152.5t-164.5 -164l-246 -247q33 -37 128 -142.5t146 -161.5 q322 -358 400 -434v-12q-41 4 -62 4q-18 0 -59 -4q-98 121 -352 399q-209 238 -283 312h-23q0 -580 9 -711q-18 4 -52 4q-16 0 -53 -4z" />
<glyph unicode="L" horiz-adv-x="907" d="M174 0q12 238 12 729q0 522 -10 674l21 -2q20 -4 32 -4q31 0 56 6q-14 -248 -15 -670q0 -387 6 -670q103 -2 199 -2q250 0 445 15q-5 -20 -5 -39t5 -37q-143 4 -400 4q-229 0 -346 -4z" />
<glyph unicode="M" horiz-adv-x="1769" d="M92 0q27 160 98 651q74 506 101 768h35q150 -344 245 -557q248 -547 312 -678q31 63 276 594q162 340 299 641h31q51 -463 84 -757q45 -410 78 -662q-33 4 -52 4q-35 0 -53 -4q0 10 -17.5 214t-31.5 333q-49 481 -74 678q-20 -47 -62 -138.5t-98.5 -210t-86.5 -186.5 q-145 -309 -304 -674h-26q-117 287 -266 619q-43 98 -136.5 305t-121.5 268q-59 -471 -84 -671q-43 -348 -60 -537q-26 3 -47 3t-39 -3z" />
<glyph unicode="N" horiz-adv-x="1490" d="M178 0q18 203 19 770l-2 660h26q86 -117 541 -676q408 -504 473 -584q4 188 4 602q0 395 -10 631q14 -4 45 -4q29 0 41 4q-12 -150 -17 -696q-2 -291 -2 -474.5t2 -259.5h-28q-178 231 -555 703q-360 446 -457 563q-2 -119 -2 -575q0 -391 10 -664q-33 4 -43 4 q-12 0 -45 -4z" />
<glyph unicode="O" horiz-adv-x="1634" d="M100 700q0 326 204 530t509 204q309 0 516 -195.5t207 -525.5q0 -344 -200.5 -544t-522.5 -200q-313 0 -513 193.5t-200 537.5zM201 690q0 -307 172 -490.5t442 -183.5q272 0 446.5 192t174.5 499q0 299 -172 488t-443 189q-274 0 -447 -194.5t-173 -499.5z" />
<glyph unicode="P" horiz-adv-x="1019" d="M178 0q12 225 12 719q0 434 -12 684q25 -4 92 -4q16 0 112.5 2t117.5 2h10q453 0 453 -350q0 -203 -142.5 -302.5t-388.5 -105.5q-18 -1 -38 -1q-57 0 -118 5v-162q0 -94 11 -487q-37 4 -54 4q-18 0 -55 -4zM276 702q45 -6 138 -6q454 9 454 353q0 143 -95 223t-265 80 q-139 0 -227 -6q0 -4 -1 -76t-2.5 -169t-1.5 -161v-238z" />
<glyph unicode="Q" horiz-adv-x="1634" d="M100 700q0 326 203 530t510 204q315 0 519 -195.5t204 -525.5q0 -305 -154.5 -489.5t-408.5 -237.5q240 -141 436 -244q-45 -14 -90 -49q-47 35 -447 278q-31 -2 -49 -2q-324 0 -523.5 192.5t-199.5 538.5zM199 690q0 -307 172 -490.5t444 -183.5q274 0 447.5 194 t173.5 497q0 299 -172 488t-443 189q-281 0 -451.5 -199.5t-170.5 -494.5z" />
<glyph unicode="R" horiz-adv-x="1105" d="M178 0q12 319 12 743q0 342 -10 660q49 -2 102.5 -2t126 1t119.5 1q205 0 319 -84t114 -246q0 -166 -123 -258t-314 -117q352 -444 561 -698q-6 0 -29.5 3t-37.5 3q-12 0 -33.5 -3t-28.5 -3q-88 123 -264 345t-282 345h-134q0 -444 7 -690q-8 0 -24.5 2t-27 2t-28 -2 t-25.5 -2zM274 743q66 -4 144 -4q80 0 155.5 17.5t144 52.5t109.5 100.5t41 153.5q0 137 -96 213t-256 76q-125 0 -235 -4z" />
<glyph unicode="S" horiz-adv-x="972" d="M78 88q16 41 26 96h17q41 -72 129 -116.5t203 -44.5q160 0 257 96t97 241q0 121 -80 192t-250 130q-201 72 -282.5 161t-81.5 230q0 160 116.5 258.5t290.5 98.5q92 0 178 -28t136 -73q-14 -27 -35 -88h-17q-31 61 -107.5 99t-170.5 38q-133 0 -220 -82t-87 -211 q0 -127 82.5 -195.5t267.5 -133.5q178 -63 263 -152.5t85 -226.5q0 -176 -129 -290t-324 -114q-106 0 -205.5 32t-158.5 83z" />
<glyph unicode="T" horiz-adv-x="1114" d="M27 1325q5 27 5 48q0 16 -3 28q119 -10 530 -10q365 0 524 10q-5 -20 -5 -39.5t5 -38.5q-145 14 -483 14l-2 -120q0 -123 -1 -290t-1 -280q0 -393 8 -647q-33 4 -51 4q-33 0 -53 -4q10 313 10 647l-4 690q-270 0 -479 -12z" />
<glyph unicode="U" horiz-adv-x="1456" d="M176 1403q25 -6 53 -6q33 0 54 6q-10 -276 -11 -615q0 -227 7 -303q14 -238 133 -352q113 -104 327 -104q156 0 255.5 61.5t146.5 151.5q71 131 71 470v9q0 475 -8 682q22 -3 44 -3t42 3l-18 -821q-4 -229 -64 -340q-123 -270 -485 -271q-260 0 -404 131 q-137 133 -137 435q0 45 1 133t1 133q0 377 -8 600z" />
<glyph unicode="V" horiz-adv-x="1302" d="M31 1403q31 -6 63 -6q25 0 53 6q102 -283 218 -565l301 -717q6 16 110.5 265t153.5 368q145 354 252 649q24 -6 47 -6t45 6q-72 -158 -285 -660q-174 -406 -309 -743q-16 3 -34 3t-36 -3q-104 270 -278 688q-248 594 -301 715z" />
<glyph unicode="W" horiz-adv-x="2048" d="M117 1403q31 -6 57 -6q23 0 51 6q76 -289 185 -641q127 -422 194 -625q59 168 207 617l209 645q20 -4 38 -4t32 4q135 -438 210 -672q31 -94 105 -317.5t92 -276.5q147 453 225 705q131 426 170 563q22 -4 44 -4t42 4q-63 -164 -217 -633q-190 -573 -250 -768 q-18 3 -35.5 3t-35.5 -3q-16 55 -193 608q-82 262 -209 641q-137 -397 -190 -553l-232 -696q-16 3 -33.5 3t-35.5 -3q-68 236 -217 717q-47 154 -120 385t-93 301z" />
<glyph unicode="X" horiz-adv-x="1148" d="M57 0q100 143 475 723q-98 162 -430 680q33 -6 66 -6q23 0 53 6q203 -354 367 -602q272 399 391 602q24 -5 45.5 -5t42.5 5q-188 -260 -449 -653q31 -47 230 -360.5t248 -389.5q-27 4 -68 4q-35 0 -53 -4q-143 252 -410 672q-250 -381 -413 -672q-14 4 -46 4 q-20 0 -49 -4z" />
<glyph unicode="Y" horiz-adv-x="1148" d="M39 1403q31 -6 61.5 -6t59.5 6q121 -219 213 -375q45 -74 131 -214t98 -161q145 240 227 379q20 35 68.5 121t87.5 157.5t51 92.5q29 -5 53.5 -5t43.5 5q-106 -156 -259 -408q-203 -330 -241 -407q0 -395 10 -588q-45 4 -55 4q-20 0 -53 -4q10 266 10 578 q-20 35 -246 403q-55 88 -260 422z" />
<glyph unicode="Z" horiz-adv-x="1200" d="M35 2v23q82 106 520 710q350 475 438 606h-358q-127 -2 -516 -14q4 29 4 39q0 23 -4 35q104 -5 308 -5q102 0 228 1l490 4v-25q-121 -152 -518 -688q-80 -109 -176.5 -244t-175 -248.5t-89.5 -127.5l7 -9h325q111 0 265.5 5.5t254.5 9.5l101 4q-6 -23 -6 -43q0 -14 4 -35 q-2 0 -43 1t-106.5 2t-144.5 2t-175.5 2t-182.5 1z" />
<glyph unicode="[" horiz-adv-x="589" d="M209 -238q10 174 10 818q4 522 -4 821q31 -4 125 -4q55 0 149 4v-51l-192 4q-8 -190 -8 -781q0 -498 6 -766l182 5v-50q-90 4 -147 5z" />
<glyph unicode="\" horiz-adv-x="716" d="M-14 1532q37 -6 73 0l693 -1667q-39 6 -74 0z" />
<glyph unicode="]" horiz-adv-x="589" d="M100 -188l193 -5q8 190 8 783q0 500 -6 766l-182 -4v49q90 -4 149 -4l119 4q-6 -125 -10 -817q0 -575 6 -822q-16 2 -125 2q-102 0 -152 -2v50z" />
<glyph unicode="^" horiz-adv-x="1241" d="M104 563l474 832h86l471 -832h-58l-456 742l-459 -742h-58z" />
<glyph unicode="_" horiz-adv-x="1024" d="M-6 -166h1036v-59h-1036v59z" />
<glyph unicode="`" d="M70 1339q-18 27 3 49.5t48 12.5q16 -6 67 -53l281 -258h-47l-307 210q-37 29 -45 39z" />
<glyph unicode="a" horiz-adv-x="944" d="M94 227q0 156 123 228q78 43 256 71q176 29 213 68q4 14 4 96q0 115 -60.5 179.5t-174.5 64.5q-76 0 -146.5 -39t-105.5 -96h-19v73q150 117 295.5 117t220 -80t74.5 -217q0 -98 -5 -271t-5 -183q0 -137 12 -164q12 -29 45 -29q29 0 47 8v-35q-37 -18 -73 -18 q-94 0 -109 125q-127 -147 -311 -148q-121 0 -201 67t-80 183zM180 238q0 -100 65.5 -154.5t168.5 -54.5q168 4 268 155l8 351q-43 -20 -162 -41q-176 -29 -262 -81.5t-86 -174.5z" />
<glyph unicode="b" horiz-adv-x="1073" d="M143 0q8 211 9 821q0 467 -7 711q24 -5 48 -5t49 5q-10 -246 -11 -809q37 123 131.5 190.5t217.5 67.5q188 0 301.5 -130t113.5 -357q0 -215 -116.5 -364.5t-321.5 -149.5q-106 0 -200.5 56t-127.5 165q-2 -12 -18 -90t-25 -111h-43zM229 463q0 -223 90.5 -329.5 t239.5 -106.5q168 0 257 138t89 331q0 190 -94 311t-244 121q-164 0 -251 -124t-87 -331v-10z" />
<glyph unicode="c" horiz-adv-x="935" d="M76 483q0 233 137 369.5t358 136.5q182 0 310 -86l-29 -72h-12q-41 51 -116 83t-151 32q-188 0 -296.5 -128t-108.5 -326q0 -229 109.5 -349t291.5 -120q170 0 305 124l9 -6l-6 -61q-140 -103 -310 -103q-221 0 -356 128t-135 378z" />
<glyph unicode="d" horiz-adv-x="1071" d="M78 479q0 236 116.5 370t309.5 134q119 0 210 -65.5t126 -172.5q0 29 -1 138.5t-1 171.5q0 375 -4 477q12 -4 47 -4q31 0 45 4q-10 -324 -11 -717q0 -631 7 -815q-20 4 -41 4q-18 0 -43 -4q2 35 2 236q-92 -256 -344 -256q-195 0 -306.5 137t-111.5 362zM168 473 q0 -205 89 -324.5t257 -119.5q154 0 241 123.5t87 330.5v13q0 193 -85 313.5t-237 120.5q-172 0 -262 -125t-90 -332z" />
<glyph unicode="e" horiz-adv-x="964" d="M72 483q0 223 117.5 364.5t320.5 141.5q182 0 284.5 -112.5t112.5 -296.5v-54q-176 2 -387 4l-356 -2q-3 -32 -3 -63q0 -170 85 -293q100 -145 291 -145q180 0 313 129q12 12 22 12l-8 -70q-156 -121 -334 -121q-211 0 -334.5 137.5t-123.5 368.5zM168 580q133 -6 338 -7 q186 1 321 7q-10 158 -84.5 262t-232.5 104q-156 0 -240 -107.5t-102 -258.5z" />
<glyph unicode="f" horiz-adv-x="505" d="M49 901q4 33 0 51l146 -2l2 131q4 92 17 162t44 139.5t89.5 107.5t141.5 38q33 0 62 -8q-6 -25 -10 -82l-9 -6q-34 24 -86 24h-4q-92 0 -134 -75.5t-42 -176.5q0 -117 8 -215l2 -39l209 4q-6 -25 -2 -55l-207 4v-438q0 -309 9 -465q-37 4 -49 4q-31 0 -50 -4q8 141 9 471 v432z" />
<glyph unicode="g" horiz-adv-x="948" d="M74 -147q0 88 55 150.5t145 86.5v10q-53 12 -88.5 50t-35.5 96q0 109 141 160q-186 82 -187 270q0 76 36 142.5t98 103.5q90 54 232 54q22 0 46 -1l215 -10q13 -1 28 -1q43 0 99 5v-51l-213 14q86 -39 128 -110.5t42 -155.5q0 -80 -49 -151t-121 -101q-94 -39 -239 -39 q-104 0 -136 -19q-53 -29 -53 -86q0 -116 183 -116h3h156q154 0 238 -39q51 -25 83.5 -78.5t32.5 -114.5q0 -164 -139 -257t-323 -93q-160 0 -268.5 69.5t-108.5 211.5zM143 -143q0 -119 89.5 -182.5t232.5 -63.5q141 0 256 73.5t115 196.5q0 57 -19.5 97t-47.5 61.5t-77 33 t-92 14.5t-108 3q-162 0 -234 -41q-115 -68 -115 -192zM188 678q0 -119 72 -191.5t199 -72.5q117 0 194.5 74t77.5 180q0 121 -75.5 194.5t-196.5 73.5q-119 0 -195 -69.5t-76 -188.5z" />
<glyph unicode="h" horiz-adv-x="1042" d="M152 0q10 246 10 825q0 399 -8 707q18 -4 47 -4q33 0 49 4q-2 -61 -8 -760q104 209 329 209q166 0 258 -109q37 -43 53.5 -99t18.5 -91q1 -18 1 -46t-1 -67q-6 -162 -6 -278l4 -291q-20 4 -49 4q-31 0 -47 -4q12 266 12 506q1 25 1 49q0 151 -23 211q-31 76 -97.5 116 t-148.5 40q-178 0 -264 -150q-43 -74 -43 -254q0 -375 6 -518q-33 4 -47 4q-31 0 -47 -4z" />
<glyph unicode="i" horiz-adv-x="450" d="M160 1284q0 27 20.5 47.5t47 20.5t46 -20.5t19.5 -47.5t-19.5 -46t-46.5 -19q-29 0 -48 19t-19 46zM176 0q10 211 10 487q0 250 -10 482q18 -4 51 -4t47 4q-8 -283 -8 -484q0 -270 8 -485q-25 4 -47 4q-35 0 -51 -4z" />
<glyph unicode="j" horiz-adv-x="450" d="M-23 -377q61 2 102.5 25.5t62 53.5t31.5 89t12 98t1 119v477q0 338 -8 484q31 -4 53 -4l48 4q-4 -61 -9 -480v-471q0 -78 -4 -131t-20.5 -114.5t-46 -99.5t-84 -63.5t-129.5 -27.5zM164 1284q0 29 19.5 48.5t45.5 19.5q29 0 48.5 -20.5t19.5 -47.5t-19.5 -46t-48 -19 t-47 19t-18.5 46z" />
<glyph unicode="k" horiz-adv-x="862" d="M152 0q8 129 8 610q0 784 -6 922q16 -4 51 -4q12 0 45 4q-4 -78 -8 -639l-2 -352h10q12 4 29.5 17t30 24.5t39 36t40.5 36.5q98 94 150 142q68 63 176 172q25 -4 45 -4q31 0 47 4v-13q-104 -86 -242 -208q-211 -188 -233 -209q92 -98 231 -244l285 -285v-10q-16 4 -60 4 q-37 0 -55 -4q-16 20 -60 65.5t-106.5 110t-99.5 105.5q-43 47 -122 125.5t-93 95.5h-12q4 -469 6 -502q-14 4 -49 4q-20 0 -45 -4z" />
<glyph unicode="l" horiz-adv-x="450" d="M176 0q8 215 8 764q0 571 -8 766q14 -2 51 -2q8 0 24.5 1t22.5 1q-8 -291 -8 -768q-1 -108 -1 -210q0 -304 9 -550h-49q-35 0 -49 -2z" />
<glyph unicode="m" horiz-adv-x="1568" d="M152 0q10 199 10 453q0 117 -2 305t-2 211q8 -4 43 -4q12 0 45 4q-2 -31 -3 -101.5t-1 -91.5q100 205 305 205q104 0 177 -59.5t97 -163.5q102 223 322 223q147 0 219 -102q63 -93 63 -283v-29q-6 -258 -6 -274q0 -203 4 -293q-29 4 -49 4q-31 0 -47 -4q12 172 12 506 q0 217 -18 268q-53 150 -205 150q-143 0 -237 -146q-23 -35 -33 -71.5t-11 -64.5t-4 -95q0 -469 5 -547q-18 4 -45 4q-33 0 -50 -4q10 193 11 645q0 129 -62.5 203t-167.5 74q-74 0 -136 -39t-99 -105q-31 -55 -39 -106t-8 -144q0 -373 8 -528q-18 4 -47 4q-33 0 -49 -4z " />
<glyph unicode="n" horiz-adv-x="1042" d="M152 0q10 162 10 479q0 371 -4 490q33 -4 43 -4q31 0 45 4l-4 -197q104 209 329 209q166 0 258 -109q37 -43 53.5 -99t18.5 -91q1 -18 1 -46t-1 -67q-6 -162 -6 -278l4 -291q-20 4 -49 4q-31 0 -47 -4q12 266 12 506q1 25 1 49q0 151 -23 211q-31 76 -97.5 116t-148.5 40 q-178 0 -264 -150q-43 -74 -43 -254q0 -375 6 -518q-33 4 -47.5 4t-46.5 -4z" />
<glyph unicode="o" horiz-adv-x="1093" d="M72 479q0 229 133 369.5t350 140.5q209 0 337 -141.5t128 -362.5q0 -229 -133 -368.5t-346 -139.5q-211 0 -340 140.5t-129 361.5zM164 475q0 -115 36 -213t126 -168.5t221 -70.5q127 0 217 72.5t128 173.5t38 218q0 113 -35 212.5t-124 173t-218 73.5q-102 0 -180 -42 t-122 -112.5t-65.5 -150.5t-21.5 -166z" />
<glyph unicode="p" horiz-adv-x="1073" d="M141 -418q10 131 11 674q0 655 -2 713q20 -4 43 -4q18 0 43 4l-5 -240q92 256 351 256q190 0 300.5 -132t110.5 -349q0 -221 -115.5 -369.5t-314.5 -148.5q-121 0 -207 61.5t-125 173.5v-389l7 -250q-33 4 -48 4q-25 0 -49 -4zM231 467q0 -215 88.5 -324.5t239.5 -109.5 q162 0 253 133t91 332q0 201 -95 318.5t-247 117.5q-156 0 -243 -127t-87 -313v-27z" />
<glyph unicode="q" horiz-adv-x="1073" d="M78 479q0 236 116.5 370t309.5 134q119 0 209 -63.5t125 -165.5l-2 215q25 -4 43 -4q23 0 43 4q-2 -57 -2 -713q0 -543 10 -674q-25 4 -49 4q-14 0 -47 -4q6 178 6 250v401q-92 -253 -342 -253h-2q-195 0 -306.5 137t-111.5 362zM168 473q0 -199 90 -321.5t256 -122.5 q154 0 239 122.5t85 331.5v13q0 193 -83 313.5t-235 120.5q-170 0 -261 -128t-91 -329z" />
<glyph unicode="r" horiz-adv-x="585" d="M152 0q10 162 10 481q0 369 -4 488q33 -4 43 -4q16 0 45 4q-4 -127 -4 -199q35 94 106.5 152.5t151.5 58.5q44 0 75 -14q-6 -23 -8 -41l-4 -39l-10 -8q-31 18 -80 18q-141 0 -209 -156q-8 -20 -14 -44.5t-8 -61.5t-2 -53.5v-65.5v-53q0 -319 6 -463q-33 4 -47 4 q-31 0 -47 -4z" />
<glyph unicode="s" horiz-adv-x="757" d="M68 47q23 68 26 90h12q27 -47 98.5 -79.5t157.5 -32.5q104 0 175 59t71 156q0 49 -16.5 83.5t-58 59.5t-76.5 38t-109 36q-127 39 -190.5 101.5t-63.5 166.5q0 125 91 193.5t212 68.5q127 0 234 -53q-20 -53 -27 -80h-14q-29 41 -82 65.5t-111 24.5q-98 0 -164.5 -52 t-66.5 -149q0 -84 57.5 -131t163.5 -77q166 -47 229.5 -108.5t63.5 -170.5q0 -123 -94 -199.5t-228 -76.5q-176 0 -290 67z" />
<glyph unicode="t" horiz-adv-x="520" d="M35 893q2 31 0 59l135 -4q0 86 -4 238q41 6 98 43l-10 -283l219 4q-4 -33 -2 -57l-217 4l-10 -528q0 -45 -1 -91v-10q0 -42 8 -81q9 -44 23.5 -78.5t48 -55t83.5 -22.5q49 0 92 14v-37q-61 -24 -118 -24h-5q-145 0 -191 118q-23 50 -23 156q0 20 1 41q6 219 8 358v240 q-104 -2 -135 -4z" />
<glyph unicode="u" horiz-adv-x="1042" d="M140 330.5q0 27.5 1 64.5q6 166 6 283l-4 291q20 -4 50 -4q31 0 47 4q-12 -268 -13 -510q-1 -25 -1 -48q0 -156 24 -216q59 -147 246 -148q180 0 264 146q43 74 43 253q0 379 -6 523q33 -4 47 -4q31 0 47 4q-10 -162 -10 -480q0 -371 4 -489q-33 4 -43 4q-31 0 -45 -4 l4 193q-102 -205 -330 -205q-170 0 -258 102q-35 41 -52.5 97.5t-19.5 95.5q-1 20 -1 47.5z" />
<glyph unicode="v" horiz-adv-x="886" d="M16 969q41 -4 56 -4l47 4q47 -143 137 -365q94 -238 205 -498q31 68 174 424q80 199 174 439q20 -4 35 -4q10 0 39 4q-115 -258 -201 -459q-147 -346 -207 -510q-25 4 -31 4q-23 0 -34 -4q-72 190 -183 463q-205 492 -211 506z" />
<glyph unicode="w" horiz-adv-x="1476" d="M25 969q37 -4 53 -4t49 4q63 -203 129 -385q121 -338 168 -457q8 27 33.5 97.5t64.5 176t58 158.5q135 393 141 410q16 -4 26.5 -4t30.5 4q57 -188 150 -461q27 -78 137 -379q70 164 176 440q66 162 152 400q12 -2 39 -2q24 0 38 2q-100 -215 -225 -523 q-92 -231 -172 -446q-16 4 -29 4q-18 0 -30 -4q-39 129 -146 446q-84 252 -135 385q-31 -72 -147 -393q-113 -315 -152 -438q-29 4 -31 4q-8 0 -28 -4q-57 186 -174 502q-35 96 -72 194.5t-67.5 178t-36.5 94.5z" />
<glyph unicode="x" horiz-adv-x="909" d="M47 0v10q270 352 365 482q-225 299 -363 477q20 -4 57 -4q18 0 56 4q150 -219 303 -416q98 125 313 416q37 -4 39 -4q33 0 47 4q-129 -147 -366 -457q59 -84 206.5 -280.5t165.5 -221.5v-10q-18 4 -57 4q-35 0 -49 -4q-76 113 -320 451q-207 -283 -321 -451q-20 4 -35 4 q-29 0 -41 -4z" />
<glyph unicode="y" horiz-adv-x="907" d="M10 969q12 -4 53 -4q12 0 50 4q72 -186 168 -414q90 -217 190 -444q193 436 217 495q117 283 146 363q29 -4 36 -4q14 0 43 4q-41 -86 -157.5 -348.5t-165.5 -370.5q-236 -518 -297 -668q-29 4 -39 4q-12 0 -45 -4q98 172 215 424q-10 27 -213 500q-102 238 -201 463z " />
<glyph unicode="z" horiz-adv-x="870" d="M31 0v20q98 123 366 480q172 227 305 413q-418 -6 -577 -14q2 16 2 37q0 27 -2 33q172 -8 342 -8l364 6v-21q-25 -33 -81 -107.5t-142 -189t-133 -178.5q-199 -264 -309 -416q51 -1 101 -1q288 0 550 20q-2 -12 -2 -39q0 -25 2 -35q-100 4 -393 4q-152 0 -393 -4z" />
<glyph unicode="{" horiz-adv-x="942" d="M176 0q10 344 10 754q0 354 -8 649q164 -6 307 -6q231 0 336 6q-4 -29 -4 -39q0 -25 4 -37q-111 8 -323 12h-84h-85h-48q-10 -295 -7 -571q119 -2 195 0q205 4 305 10q-8 -29 -8 -39q0 -14 6 -37q-123 8 -289 9h-209q0 -565 2 -648h271q100 0 284 13q-4 -12 -4 -37t4 -39 q-254 4 -337 4q-236 0 -318 -4zM180 1565v69h635v-69h-635z" />
<glyph unicode="|" horiz-adv-x="630" d="M279 0v1532h73v-1532h-73z" />
<glyph unicode="}" horiz-adv-x="964" d="M72 483q0 223 117.5 364.5t320.5 141.5q182 0 284.5 -112.5t112.5 -296.5v-54q-176 2 -387 4l-356 -2q-18 -211 82 -356t291 -145q180 0 313 129q12 12 22 12l-8 -70q-156 -121 -334 -121q-211 0 -334.5 137.5t-123.5 368.5zM129 1133v63h756v-63h-756zM168 580 q133 -6 338 -7q186 1 321 7q-10 158 -84.5 262t-232.5 104q-156 0 -240 -107.5t-102 -258.5z" />
<glyph unicode="~" horiz-adv-x="1241" d="M121 662q102 209 272 208q74 0 246 -76.5t225 -76.5q72 0 131.5 44t91.5 107l33 -30q-100 -190 -268 -191q-68 0 -234.5 76t-238.5 76q-131 0 -227 -166z" />
<glyph unicode="&#xa1;" horiz-adv-x="550" d="M203 920q0 29 20.5 49t49 20t50 -20.5t21.5 -49t-21.5 -50t-50 -21.5t-49 20.5t-20.5 51.5zM219 -315q0 14 2 46.5t2 37.5l35 864h27l41 -862q4 -20 4 -86q0 -70 -11.5 -96.5t-44 -26.5t-44 25.5t-11.5 97.5z" />
<glyph unicode="&#xa2;" horiz-adv-x="978" d="M80 483q0 233 138 369.5t360 136.5q27 0 75 -4q14 45 66 227q23 -14 55 -14q-46 -145 -69 -221q109 -18 188 -74l-29 -72h-12q-49 63 -162 99q-23 -72 -262 -885q72 -23 147 -22q176 0 312 124l8 -6l-6 -61q-139 -102 -316 -103q-84 0 -157 19q-37 -123 -78 -262 q-27 18 -59 18q45 137 81 260q-131 51 -205.5 170t-74.5 301zM172 492q0 -313 205 -424q104 333 264 872q-31 6 -61 6q-188 0 -298 -128t-110 -326z" />
<glyph unicode="&#xa3;" horiz-adv-x="935" d="M2 0q6 31 0 68q174 -8 241.5 104.5t67.5 304.5q0 33 -16 213q-41 0 -201 -6q4 16 0 55q23 0 92.5 -2t102.5 -2q-16 147 -17 168q-14 244 80 359q45 55 117 85.5t143 30.5q182 0 262 -110q-33 -33 -51 -60l-8 2q-27 59 -85 88t-118 29q-125 0 -190.5 -78t-65.5 -223 q0 -121 19 -291q147 0 315 8q-4 -27 -2 -59q-156 6 -309 6q51 -457 -168 -614q426 0 676 12q-10 -41 0 -88q-303 4 -418 4q-344 0 -467 -4z" />
<glyph unicode="&#xa4;" horiz-adv-x="1146" d="M66 489v58q68 0 118 -2q-6 57 -6 119q0 57 6 110q-29 0 -69.5 -1t-48.5 -1v57q70 0 124 -2q43 242 191.5 392.5t386.5 150.5q195 0 350 -94q-18 -47 -22 -82h-4q-141 131 -326 131q-203 0 -325 -137t-156 -363h225q311 0 422 6q-4 -29 0 -61q-147 8 -420 8 q-152 0 -233 -2q-6 -59 -7 -114q0 -59 7 -119h227q313 0 426 6q-4 -31 0 -62q-152 8 -424 9q-145 0 -223 -2q33 -221 151.5 -349.5t327.5 -128.5q184 0 338 136q8 4 12 4l-12 -78q-139 -109 -354 -109q-236 0 -377.5 138.5t-177.5 384.5q-31 0 -75 -1.5t-52 -1.5z" />
<glyph unicode="&#xa5;" horiz-adv-x="1110" d="M16 1343q20 -4 62 -4q39 0 57 4q88 -158 205 -348q154 -254 229 -366q102 154 228 362q156 264 202 352q56 -10 95 0q-68 -96 -232 -352q-63 -96 -119 -188l250 6v-61l-278 6q-78 -127 -115 -191v-47l393 4v-59h-61.5t-134 1t-134 1h-61.5q0 -143 8 -463q-41 4 -55 4 q-16 0 -49 -4q2 51 6 251t4 214l-397 -4v59l397 -4v37q-10 16 -58 93t-67 108l-272 -6v61l239 -6q-72 115 -104 168q-82 127 -238 372z" />
<glyph unicode="&#xa7;" horiz-adv-x="1024" d="M143 688q0 72 42 141.5t102 108.5q-68 70 -68 184q0 145 95.5 226.5t248.5 81.5q178 0 271 -109q-25 -27 -39 -72h-9q-33 63 -96 100t-135 37q-119 0 -193.5 -62t-74.5 -173q0 -152 178 -229l237 -103q181 -82 181 -250q0 -131 -140 -258q96 -82 97 -198 q0 -166 -111 -259.5t-291 -93.5q-156 0 -293 84l21 90h8q41 -53 118 -90t167 -37q139 0 225 73t86 192q0 88 -47 139t-137 88l-211 92q-109 49 -170.5 116.5t-61.5 180.5zM203 723q0 -98 63.5 -157.5t184.5 -110.5q184 -76 266 -127q104 101 104 207q0 133 -162 206l-206 90 q-109 51 -144 84q-106 -82 -106 -192z" />
<glyph unicode="&#xa8;" d="M104 1208.5q0 26.5 18.5 46t45.5 19.5t46 -19.5t19 -46.5q0 -29 -18 -47t-47 -18q-27 0 -45.5 19.5t-18.5 46zM451 1208q0 27 19 46.5t46 19.5t45.5 -19.5t18.5 -46t-18.5 -46t-45.5 -19.5q-29 0 -47 18.5t-18 46.5z" />
<glyph unicode="&#xa9;" horiz-adv-x="1536" d="M39 698q0 301 214 514t515 213q303 0 515 -213t212 -514q0 -303 -212 -516t-515 -213q-301 0 -515 213t-214 516zM104 698.5q0 -274.5 196 -471t468 -196.5t467 196.5t195 471t-194 470t-468 195.5q-272 0 -468 -195.5t-196 -470zM397 698q0 170 119 291t307 121 q135 0 250 -55q-12 -45 -14 -58l-8 -2q-88 78 -232 78q-154 0 -234.5 -106.5t-80.5 -270.5q0 -168 79 -269t234 -101q133 0 236 80h4q4 2 6 2l-8 -54q-102 -66 -240 -65q-190 0 -304 111.5t-114 297.5z" />
<glyph unicode="&#xaa;" horiz-adv-x="663" d="M51 659v43h549v-43h-549zM61 971q0 45 28 84t71 57q59 25 155.5 39t120.5 27q6 4 10.5 6t7.5 6t4 6t2 8t1 9.5v13.5v14q0 147 -170 148q-109 0 -168 -86h-8v55q82 68 192 67q113 0 165 -48t52 -158v-240q0 -39 1 -56.5t15.5 -36t43.5 -18.5q25 0 32 4v-22 q-18 -10 -43 -12q-104 -14 -112 80q-78 -96 -207 -97q-86 -2 -139.5 40t-53.5 110zM133 979q0 -123 148 -123q108 0 178 98v189l-74 -13q-57 -8 -93 -15t-77 -23.5t-61.5 -44t-20.5 -68.5z" />
<glyph unicode="&#xab;" horiz-adv-x="829" d="M137 483l260 379q18 -21 47 -37l-237 -340l227 -354q-29 -10 -49 -37zM414 483l258 379q27 -27 47 -37l-236 -340l226 -354q-31 -12 -50 -37z" />
<glyph unicode="&#xad;" d="M84 473v72h512v-72h-512z" />
<glyph unicode="&#xae;" horiz-adv-x="1536" d="M39 698q0 301 214 514t517 213q301 0 513 -213t212 -514q0 -303 -212 -516t-513 -213q-303 0 -517 213t-214 516zM104 698.5q0 -274.5 196 -471t470 -196.5q272 0 466 196.5t194 471t-194 470t-466 195.5q-274 0 -470 -195.5t-196 -470zM549 309q6 131 6 422 q0 266 -6 377h237q117 0 182.5 -48t65.5 -140q0 -180 -250 -215q312 -384 322 -396q-8 0 -29.5 1t-28 1t-28 -1t-27.5 -1q-145 197 -311 393h-37q0 -301 2 -393q-4 0 -23.5 1t-25.5 1q-4 0 -24.5 -1t-24.5 -1zM643 741q16 -2 43 -2q104 0 180 40t76 134q0 76 -53 116 t-148 40q-33 0 -94 -4z" />
<glyph unicode="&#xaf;" d="M82 1174v63h520v-63h-520z" />
<glyph unicode="&#xb0;" horiz-adv-x="716" d="M80 1092q-2 113 81 195.5t197.5 82.5t197.5 -81.5t83 -196.5q0 -117 -83 -199t-197.5 -82t-196.5 82t-82 199zM133 1092q0 -94 65.5 -160t159.5 -66q92 0 159 66t67 160q0 92 -66.5 158.5t-161.5 66.5q-92 0 -158.5 -66.5t-64.5 -158.5z" />
<glyph unicode="&#xb4;" d="M270 1090l281 258q59 49 67 53q27 10 49.5 -12.5t4.5 -49.5q-8 -10 -47 -39l-308 -210h-47z" />
<glyph unicode="&#xb6;" horiz-adv-x="1142" d="M111 1024q0 233 172 324q43 23 102 34t95 12t116 1h410v-41h-129v-1520h131v-43h-619v43h158v832q-31 -4 -60 -4q-170 2 -273 92t-103 270zM246 991q0 -135 71.5 -210.5t200.5 -75.5l29 2v647q-152 4 -226.5 -74t-74.5 -231v-58zM621 -166h180v1520h-180v-1520z" />
<glyph unicode="&#xb7;" horiz-adv-x="417" d="M137 688q0 29 21.5 50.5t50.5 21.5t49.5 -20.5t20.5 -49t-20.5 -50.5t-49.5 -22t-50.5 20.5t-21.5 49.5z" />
<glyph unicode="&#xb8;" d="M158 -387l18 39q68 -41 143 -41q68 0 111 30.5t43 84.5q0 49 -30.5 75.5t-84.5 26.5q-45 0 -86 -21l-24 11l80 180h51l-64 -137q33 16 88 16q63 0 109.5 -38.5t46.5 -104.5q0 -80 -67.5 -125t-166 -45t-167.5 49z" />
<glyph unicode="&#xba;" horiz-adv-x="696" d="M49 1126q0 131 86 215t219 84q131 0 212 -84t81 -217t-84 -219t-219 -86q-131 0 -213 86t-82 221zM63 659v43h570v-43h-570zM119 1118q0 -109 57 -188.5t172 -79.5t172.5 86t57.5 190q0 106 -55.5 187.5t-168.5 81.5q-119 0 -177 -82t-58 -195z" />
<glyph unicode="&#xbb;" horiz-adv-x="829" d="M111 825q27 8 47 37l260 -379l-248 -389q-20 27 -49 37l227 354zM387 825q25 6 47 37l260 -379l-248 -389q-18 25 -49 37l226 354z" />
<glyph unicode="&#xbf;" horiz-adv-x="720" d="M117 -170q0 86 29.5 148.5t93.5 132.5l129 141q37 41 53 60.5t35.5 59.5t19.5 77q0 59 -31.5 94t-78.5 37q-37 0 -66 -15l-8 6l18 45q18 8 58 9q78 -2 130 -50.5t52 -148.5q0 -106 -123 -233l-121 -132q-115 -123 -114 -239q0 -86 60 -146.5t165 -60.5q51 0 109.5 24.5 t86.5 59.5q-2 -27 11 -72q-113 -63 -213 -63q-129 0 -212 72.5t-83 193.5zM342 917.5q0 28.5 21.5 50t50 21.5t50 -20.5t21.5 -49t-21.5 -50t-50 -21.5t-50 20.5t-21.5 49z" />
<glyph unicode="&#xc0;" horiz-adv-x="1300" d="M18 0q88 190 312 707l309 720h41q188 -461 313 -759q185 -457 283 -668q-41 4 -57 4q-20 0 -62 -4q-35 106 -219 561q-186 2 -315 2l-293 -2q-150 -362 -219 -561q-29 4 -45 4q-14 0 -48 -4zM354 621q147 -4 262 -5l302 2l-279 678zM387 1776q-18 27 3.5 49t47.5 12 q16 -6 68 -53l280 -258h-47l-307 211q-37 29 -45 39z" />
<glyph unicode="&#xc1;" horiz-adv-x="1300" d="M18 0q88 190 312 707l309 720h41q188 -461 313 -759q185 -457 283 -668q-41 4 -57 4q-20 0 -62 -4q-35 106 -219 561q-186 2 -315 2l-293 -2q-150 -362 -219 -561q-29 4 -45 4q-14 0 -48 -4zM354 621q147 -4 262 -5l302 2l-279 678zM584 1526l280 258q59 49 68 53 q27 10 49 -12t4 -49q-8 -10 -47 -39l-307 -211h-47z" />
<glyph unicode="&#xc2;" horiz-adv-x="1300" d="M18 0q88 190 312 707l309 720h41q188 -461 313 -759q185 -457 283 -668q-41 4 -57 4q-20 0 -62 -4q-35 106 -219 561q-186 2 -315 2l-293 -2q-150 -362 -219 -561q-29 4 -45 4q-14 0 -48 -4zM354 621q147 -4 262 -5l302 2l-279 678zM391 1526l250 342h66l251 -342h-43 l-241 256l-240 -256h-43z" />
<glyph unicode="&#xc3;" horiz-adv-x="1300" d="M18 0q88 190 312 707l309 720h41q188 -461 313 -759q185 -457 283 -668q-41 4 -57 4q-20 0 -62 -4q-35 106 -219 561q-186 2 -315 2l-293 -2q-150 -362 -219 -561q-29 4 -45 4q-14 0 -48 -4zM354 621q147 -4 262 -5l302 2l-279 678zM379 1569q18 72 63 113.5t105 43.5 q53 0 143 -53q76 -45 117 -45q74 0 115 98h39q-45 -164 -175 -163q-49 0 -139 47q-86 47 -121 49q-78 0 -108 -90h-39z" />
<glyph unicode="&#xc4;" horiz-adv-x="1300" d="M18 0q88 190 312 707l309 720h41q188 -461 313 -759q185 -457 283 -668q-41 4 -57 4q-20 0 -62 -4q-35 106 -219 561q-186 2 -315 2l-293 -2q-150 -362 -219 -561q-29 4 -45 4q-14 0 -48 -4zM354 621q147 -4 262 -5l302 2l-279 678zM438 1644.5q0 26.5 18.5 46t45 19.5 t46 -19.5t19.5 -46t-19.5 -46t-46 -19.5t-45 19.5t-18.5 46zM784 1644.5q0 26.5 19.5 46t46.5 19.5t45 -19.5t18 -46t-18 -46t-45 -19.5t-46.5 19.5t-19.5 46z" />
<glyph unicode="&#xc5;" horiz-adv-x="1300" d="M18 0q88 190 312 707l309 720h41q188 -461 313 -759q185 -457 283 -668q-41 4 -57 4q-20 0 -62 -4q-35 106 -219 561q-186 2 -315 2l-293 -2q-150 -362 -219 -561q-29 4 -45 4q-14 0 -48 -4zM354 621q147 -4 262 -5l302 2l-279 678zM485 1696q0 82 56.5 137t136.5 55 t136 -55t56 -137t-56 -136.5t-136 -54.5t-136.5 54.5t-56.5 136.5zM537 1696q0 -63 40.5 -101.5t100 -38.5t100.5 38.5t41 101.5q0 61 -41 101t-100.5 40t-100 -40t-40.5 -101z" />
<glyph unicode="&#xc6;" horiz-adv-x="1660" d="M39 0q170 254 453 694q82 131 186 299t173 279.5t81 130.5q88 -4 287 -4q270 0 340 4q-8 -37 0 -76q-164 12 -525 12q-6 -147 -6 -573q369 0 485 8q-8 -43 -2 -72q-117 6 -483 7q0 -496 6 -650q336 0 535 13q-10 -37 0 -72q-2 0 -63.5 1t-141.5 2t-127 1q-231 0 -309 -4 q12 344 12 551h-473q-180 -287 -328 -551q-49 10 -100 0zM498 604q47 -2 218 -2t224 2q4 592 4 707q-6 -2 -6 0q-352 -561 -440 -707z" />
<glyph unicode="&#xc7;" horiz-adv-x="1304" d="M96 698q0 307 198 521.5t537 214.5q242 0 455 -99q-14 -31 -24 -86l-15 -2q-72 59 -185.5 97t-236.5 38q-289 0 -459.5 -199.5t-170.5 -488.5q0 -295 163.5 -485.5t462.5 -190.5q113 0 228.5 38t201.5 104q2 0 8.5 2t10.5 2l-15 -80q-172 -115 -438 -115h-45l-51 -108 q33 16 88 16q63 0 109.5 -39t46.5 -104q0 -80 -68 -125t-166 -45t-168 49l19 39q68 -41 143 -41q68 0 111 30.5t43 84.5q0 49 -31 75.5t-84 26.5q-45 0 -86 -21l-25 11l70 155q-301 27 -464 219.5t-163 505.5z" />
<glyph unicode="&#xc8;" horiz-adv-x="942" d="M176 0q10 344 10 754q0 354 -8 649q164 -6 307 -6q231 0 336 6q-4 -29 -4 -39q0 -25 4 -37q-111 8 -323 12h-84h-85h-48q-10 -295 -7 -571q119 -2 195 0q205 4 305 10q-8 -29 -8 -39q0 -14 6 -37q-123 8 -289 9h-209q0 -565 2 -648h271q100 0 284 13q-4 -12 -4 -37t4 -39 q-254 4 -337 4q-236 0 -318 -4zM195 1776q-18 27 3 49t48 12q16 -6 67 -53l281 -258h-47l-307 211q-37 29 -45 39z" />
<glyph unicode="&#xc9;" horiz-adv-x="942" d="M176 0q10 344 10 754q0 354 -8 649q164 -6 307 -6q231 0 336 6q-4 -29 -4 -39q0 -25 4 -37q-111 8 -323 12h-84h-85h-48q-10 -295 -7 -571q119 -2 195 0q205 4 305 10q-8 -29 -8 -39q0 -14 6 -37q-123 8 -289 9h-209q0 -565 2 -648h271q100 0 284 13q-4 -12 -4 -37t4 -39 q-254 4 -337 4q-236 0 -318 -4zM412 1526l280 258q59 49 68 53q27 10 49 -12t4 -49q-8 -10 -47 -39l-307 -211h-47z" />
<glyph unicode="&#xca;" horiz-adv-x="942" d="M176 0q10 344 10 754q0 354 -8 649q164 -6 307 -6q231 0 336 6q-4 -29 -4 -39q0 -25 4 -37q-111 8 -323 12h-84h-85h-48q-10 -295 -7 -571q119 -2 195 0q205 4 305 10q-8 -29 -8 -39q0 -14 6 -37q-123 8 -289 9h-209q0 -565 2 -648h271q100 0 284 13q-4 -12 -4 -37t4 -39 q-254 4 -337 4q-236 0 -318 -4zM211 1526l250 342h65l252 -342h-43l-241 256l-240 -256h-43z" />
<glyph unicode="&#xcb;" horiz-adv-x="942" d="M176 0q10 344 10 754q0 354 -8 649q164 -6 307 -6q231 0 336 6q-4 -29 -4 -39q0 -25 4 -37q-111 8 -323 12h-84h-85h-48q-10 -295 -7 -571q119 -2 195 0q205 4 305 10q-8 -29 -8 -39q0 -14 6 -37q-123 8 -289 9h-209q0 -565 2 -648h271q100 0 284 13q-4 -12 -4 -37t4 -39 q-254 4 -337 4q-236 0 -318 -4zM252 1644.5q0 26.5 18.5 46t45 19.5t46 -19.5t19.5 -46t-18.5 -46t-47.5 -19.5q-27 0 -45 19.5t-18 46zM598 1644.5q0 26.5 19.5 46t46 19.5t45 -19.5t18.5 -46t-18.5 -46t-44.5 -19.5q-29 0 -47.5 19.5t-18.5 46z" />
<glyph unicode="&#xcc;" horiz-adv-x="466" d="M-68 1776q-18 27 3.5 49t48.5 12q16 -6 67 -53l281 -258h-47l-308 211q-37 29 -45 39zM178 0q12 332 12 764q0 307 -12 639q31 -6 55 -6q8 0 17.5 1t20 3t16.5 2q-10 -240 -11 -639l11 -764q-6 0 -24.5 3t-29.5 3z" />
<glyph unicode="&#xcd;" horiz-adv-x="466" d="M158 1526l280 258q59 49 68 53q27 10 49 -12t4 -49q-8 -10 -47 -39l-307 -211h-47zM178 0q12 332 12 764q0 307 -12 639q31 -6 55 -6q8 0 17.5 1t20 3t16.5 2q-10 -240 -11 -639l11 -764q-6 0 -24.5 3t-29.5 3z" />
<glyph unicode="&#xce;" horiz-adv-x="466" d="M-53 1526l250 342h65l252 -342h-43l-242 256l-239 -256h-43zM178 0q12 332 12 764q0 307 -12 639q31 -6 55 -6q8 0 17.5 1t20 3t16.5 2q-10 -240 -11 -639l11 -764q-6 0 -24.5 3t-29.5 3z" />
<glyph unicode="&#xcf;" horiz-adv-x="466" d="M-14 1644.5q0 26.5 18.5 46t45 19.5t46 -19.5t19.5 -46t-18.5 -46t-47.5 -19.5q-27 0 -45 19.5t-18 46zM178 0q12 332 12 764q0 307 -12 639q31 -6 55 -6q8 0 17.5 1t20 3t16.5 2q-10 -240 -11 -639l11 -764q-6 0 -24.5 3t-29.5 3zM332 1644.5q0 26.5 19.5 46t46 19.5 t45 -19.5t18.5 -46t-18.5 -46t-45.5 -19.5q-29 0 -47 19.5t-18 46z" />
<glyph unicode="&#xd0;" horiz-adv-x="1452" d="M25 696v60l155 -4q0 399 -6 649q45 -4 107.5 -4t147.5 2t132 2q193 0 323 -25.5t236 -107.5q226 -177 226 -529q0 -393 -269 -598q-111 -86 -243 -113.5t-338 -27.5h-326q10 207 10 698zM268 698q-2 -254 6 -639q154 -10 218 -10q182 0 298.5 26.5t210.5 96.5 q109 80 174.5 228.5t65.5 330.5q0 150 -50 285t-144 209q-98 78 -222.5 102.5t-296.5 24.5l-252 -6q-8 -262 -8 -594q365 0 434 4v-60z" />
<glyph unicode="&#xd1;" horiz-adv-x="1490" d="M178 0q18 203 19 770l-2 660h26q86 -117 541 -676q408 -504 473 -584q4 188 4 602q0 395 -10 631q14 -4 45 -4q29 0 41 4q-12 -150 -17 -696q-4 -582 0 -734h-28q-178 231 -555 703q-360 446 -457 563q-2 -119 -2 -575q0 -391 10 -664q-33 4 -43 4q-12 0 -45 -4z M471 1569q18 72 63.5 113.5t104.5 43.5q53 0 143 -53q76 -45 117 -45q74 0 115 98h39q-45 -164 -174 -163q-49 0 -140 47q-86 47 -121 49q-78 0 -108 -90h-39z" />
<glyph unicode="&#xd2;" horiz-adv-x="1634" d="M100 700q0 326 204 530t509 204q309 0 516 -195.5t207 -525.5q0 -344 -200.5 -544t-522.5 -200q-313 0 -513 193.5t-200 537.5zM201 690q0 -307 172 -490.5t442 -183.5q272 0 446.5 192t174.5 499q0 299 -172 488t-443 189q-274 0 -447 -194.5t-173 -499.5zM510 1776 q-18 27 3.5 49t47.5 12q16 -6 68 -53l280 -258h-47l-307 211q-37 29 -45 39z" />
<glyph unicode="&#xd3;" horiz-adv-x="1634" d="M100 700q0 326 204 530t509 204q309 0 516 -195.5t207 -525.5q0 -344 -200.5 -544t-522.5 -200q-313 0 -513 193.5t-200 537.5zM201 690q0 -307 172 -490.5t442 -183.5q272 0 446.5 192t174.5 499q0 299 -172 488t-443 189q-274 0 -447 -194.5t-173 -499.5zM727 1526 l281 258q59 49 67 53q27 10 49 -12t4 -49q-8 -10 -47 -39l-307 -211h-47z" />
<glyph unicode="&#xd4;" horiz-adv-x="1634" d="M100 700q0 326 204 530t509 204q309 0 516 -195.5t207 -525.5q0 -344 -200.5 -544t-522.5 -200q-313 0 -513 193.5t-200 537.5zM201 690q0 -307 172 -490.5t442 -183.5q272 0 446.5 192t174.5 499q0 299 -172 488t-443 189q-274 0 -447 -194.5t-173 -499.5zM530 1526 l250 342h66l252 -342h-43l-242 256l-240 -256h-43z" />
<glyph unicode="&#xd5;" horiz-adv-x="1634" d="M100 700q0 326 204 530t509 204q309 0 516 -195.5t207 -525.5q0 -344 -200.5 -544t-522.5 -200q-313 0 -513 193.5t-200 537.5zM201 690q0 -307 172 -490.5t442 -183.5q272 0 446.5 192t174.5 499q0 299 -172 488t-443 189q-274 0 -447 -194.5t-173 -499.5zM522 1569 q18 72 63.5 113.5t104.5 43.5q53 0 144 -53q76 -45 116 -45q74 0 115 98h39q-45 -164 -174 -163q-49 0 -139 47q-86 47 -121 49q-78 0 -109 -90h-39z" />
<glyph unicode="&#xd6;" horiz-adv-x="1634" d="M100 700q0 326 204 530t509 204q309 0 516 -195.5t207 -525.5q0 -344 -200.5 -544t-522.5 -200q-313 0 -513 193.5t-200 537.5zM201 690q0 -307 172 -490.5t442 -183.5q272 0 446.5 192t174.5 499q0 299 -172 488t-443 189q-274 0 -447 -194.5t-173 -499.5zM565 1644.5 q0 26.5 18.5 46t45 19.5t46 -19.5t19.5 -46t-19.5 -46t-46 -19.5t-45 19.5t-18.5 46zM911 1644.5q0 26.5 19.5 46t46.5 19.5t45 -19.5t18 -46t-18 -46t-45 -19.5t-46.5 19.5t-19.5 46z" />
<glyph unicode="&#xd8;" horiz-adv-x="1619" d="M86 698q0 326 206 531t515 205q285 0 473 -156q135 166 166 207q4 -4 12 -12.5t15.5 -15.5t13.5 -13q-43 -47 -170 -195q219 -201 219 -536q0 -344 -203 -544t-526 -200q-268 0 -455 140q-117 -137 -170 -209q-25 31 -45 37q168 190 178 204q-229 197 -229 557zM193 688 q0 -307 172 -491q719 850 866 1026q-170 166 -416 166q-283 0 -452.5 -201t-169.5 -500zM397 164q166 -154 412 -154q274 0 447.5 192.5t173.5 502.5q0 299 -166 485q-165 -192 -867 -1026z" />
<glyph unicode="&#xd9;" horiz-adv-x="1456" d="M176 1403q25 -6 53 -6q33 0 54 6q-10 -276 -11 -615q0 -227 7 -303q14 -238 133 -352q113 -104 327 -104q156 0 255.5 61.5t146.5 151.5q72 133 71 479q0 475 -8 682q45 -6 86 0l-18 -821q-4 -229 -64 -340q-123 -270 -485 -271q-260 0 -404 131q-137 133 -137 435 q0 45 1 133t1 133q0 377 -8 600zM434 1776q-18 27 3.5 49t47.5 12q16 -6 68 -53l281 -258h-48l-307 211q-37 29 -45 39z" />
<glyph unicode="&#xda;" horiz-adv-x="1456" d="M176 1403q25 -6 53 -6q33 0 54 6q-10 -276 -11 -615q0 -227 7 -303q14 -238 133 -352q113 -104 327 -104q156 0 255.5 61.5t146.5 151.5q72 133 71 479q0 475 -8 682q45 -6 86 0l-18 -821q-4 -229 -64 -340q-123 -270 -485 -271q-260 0 -404 131q-137 133 -137 435 q0 45 1 133t1 133q0 377 -8 600zM657 1526l281 258q59 49 68 53q27 10 49 -12t4 -49q-8 -10 -47 -39l-307 -211h-48z" />
<glyph unicode="&#xdb;" horiz-adv-x="1456" d="M176 1403q25 -6 53 -6q33 0 54 6q-10 -276 -11 -615q0 -227 7 -303q14 -238 133 -352q113 -104 327 -104q156 0 255.5 61.5t146.5 151.5q72 133 71 479q0 475 -8 682q45 -6 86 0l-18 -821q-4 -229 -64 -340q-123 -270 -485 -271q-260 0 -404 131q-137 133 -137 435 q0 45 1 133t1 133q0 377 -8 600zM467 1526l250 342h65l252 -342h-43l-241 256l-240 -256h-43z" />
<glyph unicode="&#xdc;" horiz-adv-x="1456" d="M176 1403q25 -6 53 -6q33 0 54 6q-10 -276 -11 -615q0 -227 7 -303q14 -238 133 -352q113 -104 327 -104q156 0 255.5 61.5t146.5 151.5q72 133 71 479q0 475 -8 682q45 -6 86 0l-18 -821q-4 -229 -64 -340q-123 -270 -485 -271q-260 0 -404 131q-137 133 -137 435 q0 45 1 133t1 133q0 377 -8 600zM512 1603.5q0 26.5 18.5 46t45 19.5t46 -19.5t19.5 -46t-19.5 -46t-46 -19.5t-45 19.5t-18.5 46zM858 1603.5q0 26.5 19.5 46t46 19.5t45 -19.5t18.5 -46t-18.5 -46t-45 -19.5t-46 19.5t-19.5 46z" />
<glyph unicode="&#xdd;" horiz-adv-x="1148" d="M39 1403q31 -6 61.5 -6t59.5 6q121 -219 213 -375q45 -74 131 -214t98 -161q145 240 227 379q20 35 68.5 121t87.5 157.5t51 92.5q58 -10 97 0q-106 -156 -259 -408q-203 -330 -241 -407q0 -395 10 -588q-45 4 -55 4q-20 0 -53 -4q10 266 10 578q-20 35 -246 403 q-55 88 -260 422zM498 1526l280 258q59 49 68 53q27 10 49 -12t4 -49q-8 -10 -47 -39l-307 -211h-47z" />
<glyph unicode="&#xde;" horiz-adv-x="997" d="M166 0q12 225 12 719q0 371 -12 682q18 -2 55 -2t53 2q-4 -119 -4 -238q41 0 120 1t93 1q475 4 475 -348q0 -203 -143 -304t-385 -103q-94 0 -164 6q0 -166 6 -416q-37 4 -51 4q-23 0 -55 -4zM266 467q61 -8 144 -8q448 0 448 354q0 143 -96 223t-270 80q-162 0 -222 -4 q0 -4 -1 -75.5t-2 -170t-1 -161.5v-238z" />
<glyph unicode="&#xdf;" horiz-adv-x="1003" d="M158 0q4 139 8 981q0 270 61 379q39 74 111 121t160 47q119 0 193.5 -68.5t74.5 -169.5q0 -123 -115 -243q-8 -8 -29.5 -32t-30.5 -35t-26.5 -31.5t-26 -34t-18.5 -31t-14 -31.5t-4 -27q0 -55 28.5 -93t85.5 -77q16 -12 67.5 -44.5t64.5 -41.5q90 -59 138 -116.5 t48 -147.5q0 -141 -98.5 -232t-247.5 -91q-109 0 -197 45q20 49 25 75q84 -74 198 -73q106 0 173 67.5t67 173.5q0 29 -6 55.5t-25.5 52t-31 41t-46 41t-45 33t-55.5 36t-51 32.5q-53 35 -83 59.5t-58.5 69.5t-28.5 96q0 82 117 203q152 156 151 293q0 90 -53 147.5 t-143 57.5q-139 0 -203 -148q-45 -104 -45 -356q0 -829 8 -983q-37 4 -49 4q-31 0 -49 -4z" />
<glyph unicode="&#xe0;" horiz-adv-x="944" d="M94 227q0 156 123 228q78 43 256 71q176 29 213 68q4 14 4 96q0 115 -60.5 179.5t-174.5 64.5q-76 0 -146.5 -39t-105.5 -96h-19v73q150 117 295.5 117t220 -80t74.5 -217q0 -98 -5 -271t-5 -183q0 -137 12 -164q12 -29 45 -29q29 0 47 8v-35q-37 -18 -73 -18 q-94 0 -109 125q-127 -147 -311 -148q-121 0 -201 67t-80 183zM180 238q0 -100 65.5 -154.5t168.5 -54.5q168 4 268 155l8 351q-43 -20 -162 -41q-176 -29 -262 -81.5t-86 -174.5zM199 1339q-18 27 3 49.5t48 12.5q16 -6 67 -53l281 -258h-47l-307 210q-37 29 -45 39z" />
<glyph unicode="&#xe1;" horiz-adv-x="944" d="M94 227q0 156 123 228q78 43 256 71q176 29 213 68q4 14 4 96q0 115 -60.5 179.5t-174.5 64.5q-76 0 -146.5 -39t-105.5 -96h-19v73q150 117 295.5 117t220 -80t74.5 -217q0 -98 -5 -271t-5 -183q0 -137 12 -164q12 -29 45 -29q29 0 47 8v-35q-37 -18 -73 -18 q-94 0 -109 125q-127 -147 -311 -148q-121 0 -201 67t-80 183zM180 238q0 -100 65.5 -154.5t168.5 -54.5q168 4 268 155l8 351q-43 -20 -162 -41q-176 -29 -262 -81.5t-86 -174.5zM375 1090l280 258q59 49 68 53q27 10 49 -12.5t4 -49.5q-8 -10 -47 -39l-307 -210h-47z" />
<glyph unicode="&#xe2;" horiz-adv-x="944" d="M94 227q0 156 123 228q78 43 256 71q176 29 213 68q4 14 4 96q0 115 -60.5 179.5t-174.5 64.5q-76 0 -146.5 -39t-105.5 -96h-19v73q150 117 295.5 117t220 -80t74.5 -217q0 -98 -5 -271t-5 -183q0 -137 12 -164q12 -29 45 -29q29 0 47 8v-35q-37 -18 -73 -18 q-94 0 -109 125q-127 -147 -311 -148q-121 0 -201 67t-80 183zM180 238q0 -100 65.5 -154.5t168.5 -54.5q168 4 268 155l8 351q-43 -20 -162 -41q-176 -29 -262 -81.5t-86 -174.5zM186 1090l250 342h66l252 -342h-43l-242 256l-240 -256h-43z" />
<glyph unicode="&#xe3;" horiz-adv-x="944" d="M94 227q0 156 123 228q78 43 256 71q176 29 213 68q4 14 4 96q0 115 -60.5 179.5t-174.5 64.5q-76 0 -146.5 -39t-105.5 -96h-19v73q150 117 295.5 117t220 -80t74.5 -217q0 -98 -5 -271t-5 -183q0 -137 12 -164q12 -29 45 -29q29 0 47 8v-35q-37 -18 -73 -18 q-94 0 -109 125q-127 -147 -311 -148q-121 0 -201 67t-80 183zM176 1133q18 72 63.5 113.5t104.5 43.5q53 0 143 -53q76 -45 117 -45q74 0 115 98h39q-45 -164 -174 -164q-49 0 -140 48q-86 47 -120 49q-78 0 -109 -90h-39zM180 238q0 -100 65.5 -154.5t168.5 -54.5 q168 4 268 155l8 351q-43 -20 -162 -41q-176 -29 -262 -81.5t-86 -174.5z" />
<glyph unicode="&#xe4;" horiz-adv-x="944" d="M94 227q0 156 123 228q78 43 256 71q176 29 213 68q4 14 4 96q0 115 -60.5 179.5t-174.5 64.5q-76 0 -146.5 -39t-105.5 -96h-19v73q150 117 295.5 117t220 -80t74.5 -217q0 -98 -5 -271t-5 -183q0 -137 12 -164q12 -29 45 -29q29 0 47 8v-35q-37 -18 -73 -18 q-94 0 -109 125q-127 -147 -311 -148q-121 0 -201 67t-80 183zM180 238q0 -100 65.5 -154.5t168.5 -54.5q168 4 268 155l8 351q-43 -20 -162 -41q-176 -29 -262 -81.5t-86 -174.5zM223 1208.5q0 26.5 18.5 46t45 19.5t46 -19.5t19.5 -46.5q0 -29 -18.5 -47t-46.5 -18 q-27 0 -45.5 19.5t-18.5 46zM569 1208q0 27 19.5 46.5t46.5 19.5t45 -19.5t18 -46t-18 -46t-45 -19.5q-29 0 -47.5 18.5t-18.5 46.5z" />
<glyph unicode="&#xe5;" horiz-adv-x="944" d="M94 227q0 156 123 228q78 43 256 71q176 29 213 68q4 14 4 96q0 115 -60.5 179.5t-174.5 64.5q-76 0 -146.5 -39t-105.5 -96h-19v73q150 117 295.5 117t220 -80t74.5 -217q0 -98 -5 -271t-5 -183q0 -137 12 -164q12 -29 45 -29q29 0 47 8v-35q-37 -18 -73 -18 q-94 0 -109 125q-127 -147 -311 -148q-121 0 -201 67t-80 183zM180 238q0 -100 65.5 -154.5t168.5 -54.5q168 4 268 155l8 351q-43 -20 -162 -41q-176 -29 -262 -81.5t-86 -174.5zM291 1259.5q0 81.5 56 137t136 55.5t136.5 -55.5t56.5 -137t-56.5 -136t-136.5 -54.5 t-136 54.5t-56 136zM342 1260q0 -63 41 -101.5t100.5 -38.5t100.5 38.5t41 101.5q0 61 -41 101t-100.5 40t-100.5 -40t-41 -101z" />
<glyph unicode="&#xe6;" horiz-adv-x="1544" d="M82 227q0 156 121 228q78 43 258 71q180 31 215 68q2 10 2 96q0 115 -60.5 180.5t-175.5 65.5q-72 0 -144.5 -41t-115.5 -102h-10v81q145 115 297 115q117 0 185.5 -53t99.5 -160q115 213 346 213q184 0 287.5 -112.5t111.5 -301.5l-2 -53q-119 4 -385 4l-352 -2 q-16 -213 83 -355t304 -142q174 0 301 135q2 6 14 8l-8 -72q-152 -121 -332 -121q-143 0 -251.5 71t-151.5 185q-39 -127 -136.5 -191.5t-220 -64.5t-201.5 65.5t-79 184.5zM174 238q0 -100 61.5 -155.5t161.5 -55.5q76 0 142.5 36.5t105.5 100.5q31 47 33 139v234 q-53 -23 -162 -39q-174 -29 -258 -84t-84 -176zM764 575q172 -4 332 -4q139 0 315 4q-8 162 -81 266.5t-230 104.5q-156 0 -238 -107.5t-98 -263.5z" />
<glyph unicode="&#xe7;" horiz-adv-x="935" d="M76 483q0 233 137 369.5t358 136.5q182 0 310 -86l-29 -72h-12q-41 51 -116 83t-151 32q-188 0 -296.5 -128t-108.5 -326q0 -229 109.5 -349t291.5 -120q170 0 305 124l9 -6l-6 -61q-139 -102 -310 -103h-18l-53 -116q33 16 88 16q63 0 109 -39t46 -104q0 -80 -67.5 -125 t-165.5 -45t-168 49l18 39q68 -41 144 -41q68 0 110.5 30.5t42.5 84.5q0 49 -30.5 75.5t-83.5 26.5q-45 0 -86 -21l-25 11l72 164q-193 18 -308.5 144t-115.5 357z" />
<glyph unicode="&#xe8;" horiz-adv-x="964" d="M72 483q0 223 117.5 364.5t320.5 141.5q182 0 284.5 -112.5t112.5 -296.5v-54q-176 2 -387 4l-356 -2q-18 -211 82 -356t291 -145q180 0 313 129q12 12 22 12l-8 -70q-156 -121 -334 -121q-211 0 -334.5 137.5t-123.5 368.5zM168 580q133 -6 338 -7q186 1 321 7 q-10 158 -84.5 262t-232.5 104q-156 0 -240 -107.5t-102 -258.5zM229 1339q-18 27 3.5 49.5t48.5 12.5q16 -6 67 -53l281 -258h-47l-308 210q-37 29 -45 39z" />
<glyph unicode="&#xe9;" horiz-adv-x="964" d="M72 483q0 223 117.5 364.5t320.5 141.5q182 0 284.5 -112.5t112.5 -296.5v-54q-176 2 -387 4l-356 -2q-18 -211 82 -356t291 -145q180 0 313 129q12 12 22 12l-8 -70q-156 -121 -334 -121q-211 0 -334.5 137.5t-123.5 368.5zM168 580q133 -6 338 -7q186 1 321 7 q-10 158 -84.5 262t-232.5 104q-156 0 -240 -107.5t-102 -258.5zM401 1090l281 258q59 49 68 53q27 10 49 -12.5t4 -49.5q-8 -10 -47 -39l-307 -210h-48z" />
<glyph unicode="&#xea;" horiz-adv-x="964" d="M72 483q0 223 117.5 364.5t320.5 141.5q182 0 284.5 -112.5t112.5 -296.5v-54q-176 2 -387 4l-356 -2q-18 -211 82 -356t291 -145q180 0 313 129q12 12 22 12l-8 -70q-156 -121 -334 -121q-211 0 -334.5 137.5t-123.5 368.5zM168 580q133 -6 338 -7q186 1 321 7 q-10 158 -84.5 262t-232.5 104q-156 0 -240 -107.5t-102 -258.5zM223 1090l250 342h66l252 -342h-43l-242 256l-240 -256h-43z" />
<glyph unicode="&#xeb;" horiz-adv-x="964" d="M72 483q0 223 117.5 364.5t320.5 141.5q182 0 284.5 -112.5t112.5 -296.5v-54q-176 2 -387 4l-356 -2q-18 -211 82 -356t291 -145q180 0 313 129q12 12 22 12l-8 -70q-156 -121 -334 -121q-211 0 -334.5 137.5t-123.5 368.5zM168 580q133 -6 338 -7q186 1 321 7 q-10 158 -84.5 262t-232.5 104q-156 0 -240 -107.5t-102 -258.5zM266 1208.5q0 26.5 18.5 46t45 19.5t46 -19.5t19.5 -46.5q0 -29 -19.5 -47t-46 -18t-45 19.5t-18.5 46zM612 1208q0 27 19.5 46.5t46.5 19.5t45 -19.5t18 -46t-18 -46t-45 -19.5t-46.5 18.5t-19.5 46.5z" />
<glyph unicode="&#xec;" horiz-adv-x="450" d="M-98 1339q-18 27 3 49.5t48 12.5q16 -6 67 -53l281 -258h-47l-307 210q-37 29 -45 39zM176 0q10 211 10 487q0 250 -10 482q18 -4 51 -4t47 4q-8 -283 -8 -484q0 -270 8 -485q-25 4 -47 4q-35 0 -51 -4z" />
<glyph unicode="&#xed;" horiz-adv-x="450" d="M129 1090l281 258q59 49 67 53q27 10 49 -12.5t4 -49.5q-8 -10 -47 -39l-307 -210h-47zM176 0q10 211 10 487q0 250 -10 482q18 -4 51 -4t47 4q-8 -283 -8 -484q0 -270 8 -485q-25 4 -47 4q-35 0 -51 -4z" />
<glyph unicode="&#xee;" horiz-adv-x="450" d="M-72 1090l250 342h66l252 -342h-43l-242 256l-240 -256h-43zM176 0q10 211 10 487q0 250 -10 482q18 -4 51 -4t47 4q-8 -283 -8 -484q0 -270 8 -485q-25 4 -47 4q-35 0 -51 -4z" />
<glyph unicode="&#xef;" horiz-adv-x="450" d="M-33 1208.5q0 26.5 18.5 46t45 19.5t46 -19.5t19.5 -46.5q0 -29 -19.5 -47t-46 -18t-45 19.5t-18.5 46zM176 0q10 211 10 487q0 250 -10 482q18 -4 51 -4t47 4q-8 -283 -8 -484q0 -270 8 -485q-25 4 -47 4q-35 0 -51 -4zM313 1208q0 27 19.5 46.5t46.5 19.5t45 -19.5 t18 -46t-18 -46t-45 -19.5t-46.5 18.5t-19.5 46.5z" />
<glyph unicode="&#xf0;" horiz-adv-x="1073" d="M59 487q0 219 135.5 359.5t350.5 140.5q203 0 321 -149q-76 246 -258 454l-211 -135l-24 41l205 131q-94 104 -189 166l21 29q96 -39 221 -160l205 129l26 -43l-196 -121q133 -141 241.5 -357.5t108.5 -445.5q0 -240 -131 -394.5t-355 -154.5q-211 0 -341 141.5 t-130 368.5zM156 475q0 -115 35.5 -214t126 -171t219.5 -72q131 0 220 79t123.5 180t34.5 210q0 180 -92 319.5t-278 139.5q-197 0 -293 -141t-96 -330z" />
<glyph unicode="&#xf1;" horiz-adv-x="1042" d="M152 0q10 162 10 479q0 371 -4 490q33 -4 43 -4q31 0 45 4l-4 -197q104 209 329 209q166 0 258 -109q37 -43 53.5 -99t18.5 -91t0 -113q-6 -162 -6 -278l4 -291q-20 4 -49 4q-31 0 -47 -4q12 266 12 506q4 190 -22 260q-31 76 -97.5 116t-148.5 40q-178 0 -264 -150 q-43 -74 -43 -254q0 -375 6 -518q-33 4 -47.5 4t-46.5 -4zM248 1133q18 72 63 113.5t105 43.5q53 0 143 -53q76 -45 117 -45q74 0 115 98h38q-45 -164 -174 -164q-49 0 -139 48q-86 47 -121 49q-78 0 -108 -90h-39z" />
<glyph unicode="&#xf2;" horiz-adv-x="1093" d="M72 479q0 229 133 369.5t350 140.5q209 0 337 -141.5t128 -362.5q0 -229 -133 -368.5t-346 -139.5q-211 0 -340 140.5t-129 361.5zM164 475q0 -115 36 -213t126 -168.5t221 -70.5q127 0 217 72.5t128 173.5t38 218q0 113 -35 212.5t-124 173t-218 73.5q-102 0 -180 -42 t-122 -112.5t-65.5 -150.5t-21.5 -166zM266 1339q-18 27 3.5 49.5t47.5 12.5q16 -6 68 -53l281 -258h-48l-307 210q-37 29 -45 39z" />
<glyph unicode="&#xf3;" horiz-adv-x="1093" d="M72 479q0 229 133 369.5t350 140.5q209 0 337 -141.5t128 -362.5q0 -229 -133 -368.5t-346 -139.5q-211 0 -340 140.5t-129 361.5zM164 475q0 -115 36 -213t126 -168.5t221 -70.5q127 0 217 72.5t128 173.5t38 218q0 113 -35 212.5t-124 173t-218 73.5q-102 0 -180 -42 t-122 -112.5t-65.5 -150.5t-21.5 -166zM459 1090l280 258q59 49 68 53q27 10 49 -12.5t4 -49.5q-8 -10 -47 -39l-307 -210h-47z" />
<glyph unicode="&#xf4;" horiz-adv-x="1093" d="M72 479q0 229 133 369.5t350 140.5q209 0 337 -141.5t128 -362.5q0 -229 -133 -368.5t-346 -139.5q-211 0 -340 140.5t-129 361.5zM164 475q0 -115 36 -213t126 -168.5t221 -70.5q127 0 217 72.5t128 173.5t38 218q0 113 -35 212.5t-124 173t-218 73.5q-102 0 -180 -42 t-122 -112.5t-65.5 -150.5t-21.5 -166zM258 1085l250 342h65l252 -342h-43l-241 256l-240 -256h-43z" />
<glyph unicode="&#xf5;" horiz-adv-x="1093" d="M72 479q0 229 133 369.5t350 140.5q209 0 337 -141.5t128 -362.5q0 -229 -133 -368.5t-346 -139.5q-211 0 -340 140.5t-129 361.5zM164 475q0 -115 36 -213t126 -168.5t221 -70.5q127 0 217 72.5t128 173.5t38 218q0 113 -35 212.5t-124 173t-218 73.5q-102 0 -180 -42 t-122 -112.5t-65.5 -150.5t-21.5 -166zM250 1133q18 72 63 113.5t105 43.5q53 0 143 -53q76 -45 117 -45q74 0 115 98h38q-45 -164 -174 -164q-49 0 -139 48q-86 47 -121 49q-78 0 -108 -90h-39z" />
<glyph unicode="&#xf6;" horiz-adv-x="1093" d="M72 479q0 229 133 369.5t350 140.5q209 0 337 -141.5t128 -362.5q0 -229 -133 -368.5t-346 -139.5q-211 0 -340 140.5t-129 361.5zM164 475q0 -115 36 -213t126 -168.5t221 -70.5q127 0 217 72.5t128 173.5t38 218q0 113 -35 212.5t-124 173t-218 73.5q-102 0 -180 -42 t-122 -112.5t-65.5 -150.5t-21.5 -166zM301 1208.5q0 26.5 18.5 46t45 19.5t46 -19.5t19.5 -46.5q0 -29 -18.5 -47t-46.5 -18q-27 0 -45.5 19.5t-18.5 46zM647 1208q0 27 19.5 46.5t46 19.5t45 -19.5t18.5 -46t-18.5 -46t-44.5 -19.5q-29 0 -47.5 18.5t-18.5 46.5z" />
<glyph unicode="&#xf7;" horiz-adv-x="1241" d="M104 639v74h1033v-74h-1033zM547 323.5q0 30.5 21.5 52t52 21.5t51 -21.5t20.5 -52t-20.5 -52t-51 -21.5t-52 21.5t-21.5 52zM547 1028q0 31 21.5 52.5t52 21.5t51 -21.5t20.5 -52.5t-20.5 -52.5t-51 -21.5t-52 21.5t-21.5 52.5z" />
<glyph unicode="&#xf8;" horiz-adv-x="1073" d="M45 -47q43 49 143 164q-131 143 -131 368q0 221 136.5 362.5t351.5 141.5q176 0 297 -102q59 66 137 164q8 -16 35 -33q-12 -14 -65.5 -72.5t-78.5 -85.5q143 -139 144 -377q0 -221 -133 -363.5t-351 -142.5q-190 0 -311 111q-14 -18 -65.5 -77.5t-73.5 -88.5 q-17 23 -35 31zM156 473q0 -170 86 -297q395 465 555 660q-96 111 -254 110q-135 0 -225.5 -74.5t-126 -177t-35.5 -221.5zM266 141q98 -121 271 -121q127 0 216 73t125.5 175.5t36.5 218.5q0 188 -94 314q-82 -96 -289 -343t-266 -317z" />
<glyph unicode="&#xf9;" horiz-adv-x="1042" d="M141 283q-2 39 0 112q6 166 6 283l-4 291q20 -4 50 -4q31 0 47 4q-12 -268 -13 -510q-4 -195 23 -264q59 -147 246 -148q180 0 264 146q43 74 43 253q0 379 -6 523q33 -4 47 -4q31 0 47 4q-10 -162 -10 -480q0 -371 4 -489q-33 4 -43 4q-31 0 -45 -4l4 193 q-102 -205 -330 -205q-170 0 -258 102q-35 41 -52.5 97.5t-19.5 95.5zM240 1339q-18 27 3 49.5t48 12.5q16 -6 67 -53l281 -258h-47l-307 210q-37 29 -45 39z" />
<glyph unicode="&#xfa;" horiz-adv-x="1042" d="M141 283q-2 39 0 112q6 166 6 283l-4 291q20 -4 50 -4q31 0 47 4q-12 -268 -13 -510q-4 -195 23 -264q59 -147 246 -148q180 0 264 146q43 74 43 253q0 379 -6 523q33 -4 47 -4q31 0 47 4q-10 -162 -10 -480q0 -371 4 -489q-33 4 -43 4q-31 0 -45 -4l4 193 q-102 -205 -330 -205q-170 0 -258 102q-35 41 -52.5 97.5t-19.5 95.5zM420 1090l280 258q59 49 68 53q27 10 49 -12.5t4 -49.5q-8 -10 -47 -39l-307 -210h-47z" />
<glyph unicode="&#xfb;" horiz-adv-x="1042" d="M141 283q-2 39 0 112q6 166 6 283l-4 291q20 -4 50 -4q31 0 47 4q-12 -268 -13 -510q-4 -195 23 -264q59 -147 246 -148q180 0 264 146q43 74 43 253q0 379 -6 523q33 -4 47 -4q31 0 47 4q-10 -162 -10 -480q0 -371 4 -489q-33 4 -43 4q-31 0 -45 -4l4 193 q-102 -205 -330 -205q-170 0 -258 102q-35 41 -52.5 97.5t-19.5 95.5zM236 1090l249 342h66l252 -342h-43l-242 256l-239 -256h-43z" />
<glyph unicode="&#xfc;" horiz-adv-x="1042" d="M141 283q-2 39 0 112q6 166 6 283l-4 291q20 -4 50 -4q31 0 47 4q-12 -268 -13 -510q-4 -195 23 -264q59 -147 246 -148q180 0 264 146q43 74 43 253q0 379 -6 523q33 -4 47 -4q31 0 47 4q-10 -162 -10 -480q0 -371 4 -489q-33 4 -43 4q-31 0 -45 -4l4 193 q-102 -205 -330 -205q-170 0 -258 102q-35 41 -52.5 97.5t-19.5 95.5zM274 1208.5q0 26.5 18.5 46t45.5 19.5t46 -19.5t19 -46.5q0 -29 -19 -47t-46 -18t-45.5 19.5t-18.5 46zM621 1208q0 27 19 46.5t46 19.5t45.5 -19.5t18.5 -46t-18.5 -46t-45.5 -19.5t-46 18.5t-19 46.5z " />
<glyph unicode="&#xfd;" horiz-adv-x="907" d="M10 969q12 -4 53 -4q12 0 50 4q72 -186 168 -414q90 -217 190 -444q193 436 217 495q117 283 146 363q29 -4 36 -4q14 0 43 4q-41 -86 -157.5 -348.5t-165.5 -370.5q-236 -518 -297 -668q-29 4 -39 4q-12 0 -45 -4q98 172 215 424q-10 27 -213 500q-102 238 -201 463z M397 1090l281 258q59 49 67 53q27 10 49.5 -12.5t4.5 -49.5q-8 -10 -47 -39l-308 -210h-47z" />
<glyph unicode="&#xfe;" horiz-adv-x="1054" d="M129 -418q6 98 6 944q0 881 -2 953q29 -4 45 -4q12 0 45 4q-4 -737 -4 -768q41 121 130 196.5t229 75.5q186 0 298.5 -134t112.5 -353q0 -227 -114.5 -371.5t-315.5 -144.5q-111 0 -205 63t-135 186v-360l4 -287q-33 4 -45 4q-16 0 -49 -4zM221 465q0 -201 91 -317.5 t243 -116.5q168 0 252 132t84 335q0 195 -87 317.5t-245 122.5q-164 0 -251 -140.5t-87 -326.5v-6z" />
<glyph unicode="&#xff;" horiz-adv-x="907" d="M10 969q12 -4 53 -4q12 0 50 4q72 -186 168 -414q90 -217 190 -444q193 436 217 495q117 283 146 363q29 -4 36 -4q14 0 43 4q-41 -86 -157.5 -348.5t-165.5 -370.5q-236 -518 -297 -668q-29 4 -39 4q-12 0 -45 -4q98 172 215 424q-10 27 -213 500q-102 238 -201 463z M256 1187.5q0 26.5 18.5 46t45 19.5t46 -19t19.5 -46q0 -29 -18.5 -47.5t-47.5 -18.5q-27 0 -45 19.5t-18 46zM602 1188q0 27 19.5 46t46 19t45 -19.5t18.5 -46t-18.5 -46t-44.5 -19.5q-29 0 -47.5 18.5t-18.5 47.5z" />
<glyph unicode="&#x152;" horiz-adv-x="2052" d="M74 692q0 344 198.5 542t495.5 198q193 0 345.5 -92.5t232.5 -272.5q0 53 -3.5 180t-3.5 154q98 -4 306 -4q229 0 315 6q-2 -14 -2 -37q-2 -12 2 -39q-113 8 -301 12h-223q-6 -387 -6 -573q127 0 200 2q266 4 285 6q-4 -25 -4 -35q0 -23 2 -37q-184 6 -275 7 q-45 0 -123.5 1t-84.5 1q0 -381 4 -652q152 0 258 2q45 2 150.5 6.5t127.5 4.5q-2 -12 -2 -37q0 -23 4 -35q-6 0 -137 3t-195 3q-176 0 -307 -4q4 139 4 326q-164 -358 -577 -359q-299 0 -492.5 188.5t-193.5 534.5zM180 688q0 -311 163 -492.5t421 -181.5q262 0 423 189.5 t161 505.5q0 297 -160 487t-416 190q-274 0 -433 -199.5t-159 -498.5z" />
<glyph unicode="&#x153;" horiz-adv-x="1796" d="M57 479q0 227 135.5 368.5t352.5 141.5q147 0 255.5 -73.5t160.5 -202.5q49 127 149 201.5t244 74.5q184 0 287.5 -112.5t111.5 -301.5l-2 -53q-16 0 -157.5 2t-229.5 2l-350 -2q-16 -213 82 -355t303 -142q174 0 301 135q6 6 16 8l-8 -72q-156 -121 -334 -121 q-152 0 -257 73t-154 202q-55 -129 -169 -202t-264 -73q-211 0 -342 141.5t-131 360.5zM156 475q0 -182 95 -318.5t286 -136.5q96 0 171.5 42t119.5 111t65.5 148.5t21.5 165.5q0 113 -33.5 212.5t-121.5 173t-217 73.5q-102 0 -180 -42t-121 -112.5t-64.5 -150.5 t-21.5 -166zM1018 575q172 -4 332 -4q135 0 315 4q-8 162 -81 266.5t-230.5 104.5t-239.5 -108.5t-96 -262.5z" />
<glyph unicode="&#x178;" horiz-adv-x="1148" d="M39 1403q31 -6 61.5 -6t59.5 6q121 -219 213 -375q45 -74 131 -214t98 -161q145 240 227 379q20 35 68.5 121t87.5 157.5t51 92.5q58 -10 97 0q-106 -156 -259 -408q-203 -330 -241 -407q0 -395 10 -588q-45 4 -55 4q-20 0 -53 -4q10 266 10 578q-20 35 -246 403 q-55 88 -260 422zM362 1585.5q0 26.5 18.5 46t45.5 19.5t46.5 -19.5t19.5 -46.5q0 -29 -18.5 -47t-47.5 -18q-27 0 -45.5 19.5t-18.5 46zM709 1585q0 27 19.5 46.5t46 19.5t45 -19.5t18.5 -46t-18.5 -46t-45.5 -19.5q-29 0 -47 18t-18 47z" />
<glyph unicode="&#x2c6;" d="M57 1090l250 342h66l252 -342h-43l-242 256l-240 -256h-43z" />
<glyph unicode="&#x2dc;" d="M49 1133q18 72 63.5 113.5t104.5 43.5q53 0 143 -53q76 -45 117 -45q74 0 115 98h39q-45 -164 -174 -164q-49 0 -140 48q-86 47 -120 49q-78 0 -109 -90h-39z" />
<glyph unicode="&#x2000;" horiz-adv-x="944" />
<glyph unicode="&#x2001;" horiz-adv-x="1888" />
<glyph unicode="&#x2002;" horiz-adv-x="944" />
<glyph unicode="&#x2003;" horiz-adv-x="1888" />
<glyph unicode="&#x2004;" horiz-adv-x="629" />
<glyph unicode="&#x2005;" horiz-adv-x="472" />
<glyph unicode="&#x2006;" horiz-adv-x="314" />
<glyph unicode="&#x2007;" horiz-adv-x="314" />
<glyph unicode="&#x2008;" horiz-adv-x="236" />
<glyph unicode="&#x2009;" horiz-adv-x="377" />
<glyph unicode="&#x200a;" horiz-adv-x="104" />
<glyph unicode="&#x2010;" d="M84 473v72h512v-72h-512z" />
<glyph unicode="&#x2011;" d="M84 473v72h512v-72h-512z" />
<glyph unicode="&#x2012;" d="M84 473v72h512v-72h-512z" />
<glyph unicode="&#x2013;" horiz-adv-x="1024" d="M68 477v62h890v-62h-890z" />
<glyph unicode="&#x2014;" horiz-adv-x="2048" d="M68 477v62h1912v-62h-1912z" />
<glyph unicode="&#x2018;" horiz-adv-x="417" d="M113 1063q4 27 30 72l170 309l25 -10l-115 -338q-25 -68 -53 -76q-20 -6 -39.5 8t-17.5 35z" />
<glyph unicode="&#x2019;" horiz-adv-x="417" d="M88 1024l115 340q23 63 51 74q23 8 42 -5t17 -38q-2 -23 -30 -72l-170 -309z" />
<glyph unicode="&#x201a;" horiz-adv-x="417" d="M51 -252l117 336q0 2 6 20.5t9 24.5t12.5 16.5t21.5 14.5q25 8 45.5 -5.5t16 -38t-32.5 -73.5l-168 -305z" />
<glyph unicode="&#x201c;" horiz-adv-x="675" d="M104 1065q4 23 33 72l170 309l25 -10l-115 -338q-2 -4 -5 -14.5t-5 -14.5t-5 -12t-6 -12.5t-8.5 -9.5t-11.5 -8t-14 -5q-23 -6 -41.5 6t-16.5 37zM367 1063q4 29 30 74l172 309l25 -12l-117 -338q-20 -63 -53 -74q-20 -6 -39.5 6t-17.5 35z" />
<glyph unicode="&#x201d;" horiz-adv-x="675" d="M88 1026l115 338q25 66 51 76q23 10 43 -4t18 -39q-4 -25 -32 -74l-170 -307zM350 1024l115 340q18 59 51 74q20 8 42 -5t20 -38q-2 -18 -31 -72l-172 -309z" />
<glyph unicode="&#x201e;" horiz-adv-x="675" d="M51 -252l117 336q0 2 5 16.5t7 19.5t8.5 14t12.5 15.5t16 10.5q23 10 44.5 -4.5t17 -39t-32.5 -73.5l-168 -305zM315 -252l115 336q2 4 5 14.5t5 15.5t6.5 13t8.5 13t11 10.5t15 9.5q20 8 42 -5t18 -38q-2 -25 -31 -74l-170 -305z" />
<glyph unicode="&#x2022;" horiz-adv-x="968" d="M211 723q0 113 81 193.5t193.5 80.5t192.5 -79.5t80 -194.5q0 -113 -80 -192.5t-192.5 -79.5t-193.5 79.5t-81 192.5z" />
<glyph unicode="&#x2026;" horiz-adv-x="1353" d="M158 57.5q0 30.5 21.5 52t51.5 21.5q29 0 50.5 -21.5t21.5 -50.5q0 -31 -21.5 -53t-50.5 -22q-31 0 -52 21.5t-21 52zM604 57.5q0 30.5 22.5 52t51.5 21.5q31 0 52.5 -21.5t21.5 -50.5q0 -31 -21.5 -53t-52.5 -22t-52.5 21.5t-21.5 52zM1051 57.5q0 30.5 22.5 52 t50.5 21.5q31 0 52.5 -21.5t21.5 -50.5q0 -31 -21.5 -53t-52 -22t-52 21.5t-21.5 52z" />
<glyph unicode="&#x202f;" horiz-adv-x="377" />
<glyph unicode="&#x2039;" horiz-adv-x="536" d="M129 483l258 379q20 -21 47 -37l-235 -340l225 -354q-31 -12 -49 -37z" />
<glyph unicode="&#x203a;" horiz-adv-x="536" d="M100 825q25 10 45 37l261 -379l-248 -389q-16 25 -47 37l225 354z" />
<glyph unicode="&#x205f;" horiz-adv-x="472" />
<glyph unicode="&#x2122;" horiz-adv-x="1630" d="M61 1311q6 45 0 69q98 -8 289 -8q188 0 289 8q-10 -35 0 -71q-84 8 -248 8q0 -20 -1 -138t-1 -171q0 -166 4 -322q-18 2 -45 2q-29 0 -47 -2q4 164 4 322q0 53 -1 169.5t-1 139.5q-137 0 -242 -6zM668 684q20 111 53 332q47 315 53 375h39q80 -174 129 -275 q23 -47 73 -146.5t70 -140.5q61 119 121 248q66 145 150 314h45q29 -236 45 -375q20 -180 43 -330q-18 2 -47 2q-16 0 -49 -6q-8 98 -27 276q-12 131 -31 271q-12 -25 -48 -98.5t-50 -102.5q-23 -45 -158 -334h-32q-61 141 -138 301q-14 31 -53 111t-55 115 q-12 -111 -33 -265q-25 -197 -33 -272q-37 4 -67 0z" />
<glyph unicode="&#x25fc;" horiz-adv-x="970" d="M0 0v970h970v-970h-970z" />
<glyph unicode="&#xfb01;" horiz-adv-x="878" d="M37 901q4 33 0 51l145 -2l2 146q6 193 64 297q78 139 227 139q33 0 66 -8q-12 -37 -13 -90l-4 -2q-45 27 -94 26q-125 0 -154 -133q-20 -76 -12 -203v-172l211 4q-8 -23 -4 -55l-207 4v-438q0 -309 8 -465q-37 4 -49 4q-31 0 -49 -4q8 213 8 471v432zM600 1284 q0 27 19.5 47.5t48.5 20.5q27 0 46 -19.5t19 -48.5q0 -27 -18.5 -46t-47 -19t-48 19t-19.5 46zM618 0q8 223 9 487q0 295 -9 482q16 -4 52 -4q33 0 47 4q-8 -283 -8 -484q0 -270 8 -485q-25 4 -49 4q-35 0 -50 -4z" />
<glyph unicode="&#xfb02;" horiz-adv-x="878" d="M37 901q4 33 0 51l145 -2l2 146q6 193 66 297q78 139 225 139q33 0 66 -8q-12 -37 -13 -90l-4 -2q-45 27 -94 26q-125 0 -154 -133q-20 -76 -12 -203v-172l211 4q-8 -23 -4 -55l-207 4v-438q0 -309 8 -465q-37 4 -49 4q-31 0 -49 -4q8 213 8 471v432zM618 0q8 215 9 764 q0 571 -9 766q14 -2 52 -2q8 0 24.5 1t22.5 1q-8 -291 -8 -768q0 -434 8 -762q-12 2 -49 2q-35 0 -50 -2z" />
</font>
</defs>
</svg>
