<?xml version="1.0" standalone="no"?>
<!DOCTYPE svg PUBLIC "-//W3C//DTD SVG 1.1//EN" "http://www.w3.org/Graphics/SVG/1.1/DTD/svg11.dtd" >
<svg xmlns="http://www.w3.org/2000/svg">
<metadata>Generated by IcoMoon</metadata>
<defs>
<font id="icomoon" horiz-adv-x="1024">
<font-face units-per-em="1024" ascent="960" descent="-64" />
<missing-glyph horiz-adv-x="1024" />
<glyph unicode="&#x20;" d="" horiz-adv-x="512" />
<glyph unicode="&#xe600;" d="M513.272 122.111l493.479 651.776h-982.313z" horiz-adv-x="1031" />
<glyph unicode="&#xe601;" d="M513.272 773.889l-488.833-651.776h982.313z" horiz-adv-x="1031" />
<glyph unicode="&#xe602;" d="M708.011-2.008l-160.342 244.736h-373.013c-97.341 0-176.53 79.19-176.53 176.523v302.211c0 97.341 79.19 176.53 176.53 176.53h633.003c97.341 0 176.53-79.19 176.53-176.53v-302.211c0-97.334-79.19-176.523-176.53-176.523h-49.020l-50.629-244.736zM174.651 887.99c-91.822 0-166.521-74.698-166.521-166.521v-302.211c0-91.815 74.698-166.514 166.521-166.514h378.425l150.031-229.001 47.385 229.001h57.161c91.822 0 166.521 74.698 166.521 166.514v302.211c0 91.822-74.698 166.521-166.521 166.521h-633.003z" horiz-adv-x="994" />
<glyph unicode="&#xe603;" d="M728.501-32l-181.722 272.592h-347.654c-106.66 0-197.531 86.92-197.531 197.537v292.339c0 106.66 86.914 197.531 197.531 197.531h612.346c106.667 0 197.531-86.914 197.531-197.531v-292.345c0-106.667-86.914-197.537-197.531-197.537h-27.654l-55.315-272.587z" horiz-adv-x="1011" />
<glyph unicode="&#xe604;" d="M256.736 809.052l74.98-176.909-246.206 0.764 171.227 176.146zM694.513 631.53l52.361 183.266 183.266-183.266h-235.628zM683.293 597.868h250.594l-383.529-483.962 132.934 483.962zM468.779 116.567l-383.931 481.297 255.74-0.233 128.191-481.063zM365.241 645.946l-77.216 183.769 184.707-0.342-107.492-183.426zM544.72 829.756h168.494l-48.621-175.792-119.873 175.792zM394.827 631.53l113.408 187.978 126.443-187.978h-239.851zM506.913 102.266l-118.993 495.603h253.162l-134.167-495.603zM993.73 600.423v0 27.214l-239.369 232.041h-497.443c0 0 0 0-3.734 0v0 0 0 0 0 0 0 0l-228.148-231.889v-25.321l465.817-561.881h36.864z" />
<glyph unicode="&#xe605;" d="M57.379 753.521h282.016v-282.022h-282.016v282.022z" horiz-adv-x="1031" />
<glyph unicode="&#xe606;" d="M386.397 753.521h282.016v-282.022h-282.016v282.022z" horiz-adv-x="1031" />
<glyph unicode="&#xe607;" d="M715.415 753.521h282.016v-282.022h-282.016v282.022z" horiz-adv-x="1031" />
<glyph unicode="&#xe608;" d="M57.379 424.502h282.016v-282.023h-282.016v282.023z" horiz-adv-x="1031" />
<glyph unicode="&#xe609;" d="M386.397 424.502h282.016v-282.023h-282.016v282.023z" horiz-adv-x="1031" />
<glyph unicode="&#xe60a;" d="M715.415 424.502h282.016v-282.023h-282.016v282.023z" horiz-adv-x="1031" />
<glyph unicode="&#xe60b;" d="M902.898 815.855c67.013-52.119 100.517-126.58 96.793-215.924-11.171-148.916-212.199-335.060-402.067-502.58-22.337-18.61-63.283-52.119-74.452-67.013-14.89 14.89-59.566 55.843-89.346 78.185-189.869 160.082-390.898 342.499-402.067 487.692-3.722 89.346 29.782 163.804 96.793 215.924 70.737 52.119 171.251 70.737 253.151 40.948 55.843-18.61 104.239-55.843 134.023-96.793 29.782 44.674 78.185 78.185 134.023 96.793 81.905 33.501 182.419 14.89 253.151-37.233z" />
<glyph unicode="&#xe60c;" d="M283.482 801.333c22.337 0 44.674-3.722 63.283-11.171 40.948-14.89 78.185-40.948 100.517-74.452l52.119-78.185 52.119 78.185c22.337 33.501 59.566 59.566 100.517 74.452 18.61 7.449 40.948 11.171 63.283 11.171 48.394 0 96.793-14.89 130.302-40.948 48.394-37.233 74.452-93.069 70.737-160.082-7.449-134.023-260.602-349.947-379.728-457.915l-26.063-22.337c-3.722 0-3.722-3.722-7.449-3.722-14.89 14.89-33.501 29.782-48.394 40.948-119.132 100.517-372.283 312.715-379.728 439.289-3.722 67.013 22.337 122.851 70.737 160.082 40.948 29.782 89.346 44.674 137.745 44.674zM283.482 868.347c-59.566 0-122.851-18.61-171.251-55.843-67.013-52.119-100.517-126.58-96.793-215.924 11.171-141.467 212.199-327.606 402.067-487.692 29.782-22.337 74.452-63.283 89.346-78.185 14.89 11.171 52.119 44.674 74.452 67.013 189.869 163.804 390.898 353.669 402.067 502.58 3.722 89.346-29.782 163.804-96.793 215.924-48.394 37.233-107.967 55.843-171.251 55.843-29.782 0-55.843-3.722-85.627-14.89-55.843-18.61-104.239-55.843-134.023-96.793-29.782 44.674-78.185 78.185-134.023 96.793-22.337 7.449-52.119 11.171-78.185 11.171v0z" />
<glyph unicode="&#xe60d;" d="M989.747 841.547l-80.54 80.54-397.209-395.379-397.209 395.379-80.54-80.54 397.209-395.379-397.209-397.209 80.54-80.54 397.209 397.209 397.209-397.209 80.54 80.54-397.209 397.209z" />
<glyph unicode="&#xe60e;" d="M23.556 801.401v-91.769h995.766v91.769h-995.766zM23.556 496.812v-91.769h995.766v91.769h-995.766zM23.556 190.273v-91.769h995.766v91.769h-995.766z" />
<glyph unicode="&#xe60f;" d="M1004.953 54.789l-315.945 315.945c40.441 60.66 63.188 133.961 63.188 207.262 0 101.104-37.913 194.625-108.684 265.394s-164.29 108.684-265.394 108.684-194.625-37.913-265.394-108.684c-70.771-70.771-108.684-164.29-108.684-265.394s37.913-194.625 108.684-265.394c70.771-70.771 164.29-108.684 265.394-108.684 75.828 0 149.127 22.746 209.79 65.716l315.945-315.945c10.109-10.109 30.33-7.584 42.966 5.057l53.082 53.082c12.636 12.636 15.166 30.33 5.057 42.966zM375.587 305.018c-151.653 0-272.977 123.85-272.977 272.977 0 151.653 123.85 272.977 272.977 272.977s272.977-123.85 272.977-272.977c0-151.653-121.322-272.977-272.977-272.977z" />
<glyph unicode="&#xe610;" d="M883.097 433.539c0 14.461 0 28.915-4.818 43.367l110.847 101.213c-9.644 33.74-24.092 62.647-38.554 91.572l-154.221-9.644c-19.276 24.092-38.554 43.367-62.647 62.647l9.644 154.221c-28.915 14.461-57.833 28.915-91.572 38.554l-101.213-110.847c-14.461 0-28.915 4.818-43.367 4.818s-28.915 0-43.367-4.818l-101.213 110.847c-33.74-9.644-62.647-24.092-91.572-38.554l9.644-154.221c-24.092-19.276-43.367-38.554-62.647-62.647l-154.221 9.644c-14.461-28.915-28.915-57.833-38.554-91.572l110.847-101.213c0-14.461-4.818-28.915-4.818-43.367s0-28.915 4.818-43.367l-110.847-101.213c9.644-33.74 24.092-62.647 38.554-91.572l154.221 9.644c19.276-24.092 38.554-43.367 62.647-62.647l-9.644-154.221c28.915-14.461 57.833-28.915 91.572-38.554l101.213 110.847c14.461 0 28.915-4.818 43.367-4.818s28.915 0 43.367 4.818l101.213-110.847c33.74 9.644 62.647 24.092 91.572 38.554l-9.644 154.221c24.092 19.276 43.367 38.554 62.647 62.647l154.221-9.644c14.461 28.915 28.915 57.833 38.554 91.572l-110.847 101.213c4.818 9.644 4.818 24.092 4.818 43.367zM512 173.299c-144.582 0-260.246 115.661-260.246 260.246s115.661 260.246 260.246 260.246c144.582 0 260.246-115.661 260.246-260.246s-115.661-260.246-260.246-260.246zM646.942 433.539c0-77.11-62.647-134.942-134.942-134.942-77.11 0-134.942 62.647-134.942 134.942 0 77.11 62.647 134.942 134.942 134.942 77.11 0 134.942-62.647 134.942-134.942z" />
<glyph unicode="&#xe611;" d="M1020.26 960.025l3.778-3.778-1020.214-1020.214-3.778 3.778 1020.214 1020.214zM3.828 960.019l1020.214-1020.214-3.778-3.778-1020.214 1020.214 3.778 3.778z" />
<glyph unicode="&#xe612;" d="M43.404 453.239h961.841v-10.477h-961.841v10.477z" />
<glyph unicode="&#xe613;" d="M0 453.575h1023.994v-11.155h-1023.994v11.155zM506.42 960h11.155v-1024h-11.155v1024z" />
<glyph unicode="&#xe614;" d="M292.159-64c-1.027 0-2.055 0.379-2.858 1.136-1.668 1.576-1.743 4.209-0.166 5.877l478.409 506.248-478.4 503.714c-1.581 1.664-1.514 4.297 0.154 5.877 1.66 1.589 4.293 1.518 5.881-0.15l481.112-506.568c1.522-1.601 1.527-4.114 0.008-5.719l-481.116-509.109c-0.819-0.865-1.922-1.306-3.024-1.306z" />
<glyph unicode="&#xe615;" d="M674.78 635.746l-160.922 210.732-157.096-210.732zM218.836 842.644l-203.067-206.9h272.029zM471.705 857.97h-214.556l65.128-199.237zM1008.117 635.746l-210.732 206.9-57.472-206.9zM762.904 857.97h-210.732l153.252-199.237zM11.936 597.43l471.264-540.237-180.073 540.237zM341.442 597.43l187.743-559.4 160.915 559.4zM575.163 57.193l436.78 540.237h-283.523z" />
<glyph unicode="&#xe616;" d="M546.476 960c-302.425 0-546.487-185.699-546.487-419.15 0-122.031 63.668-228.145 169.782-302.425l-37.14-302.425 286.508 201.617c42.446-5.306 79.585-10.611 122.031-10.611 302.425 0 546.487 185.688 546.487 419.15s-238.745 413.845-541.181 413.845z" horiz-adv-x="1088" />
<glyph unicode="&#xe617;" d="M563.882 693.848l207.509 212.029-81.199-284.197 324.796 13.533-270.663-193.975 293.219-225.553-342.84 63.145 85.71-239.076-193.975 166.909-135.332-270.663-81.199 324.786-302.241-112.776 175.931 212.020-243.597 31.577 248.108 85.72-221.042 257.13 365.396-85.72 36.088 311.263z" horiz-adv-x="1038" />
</font>
</defs>
</svg>
