<?xml version="1.0" encoding="utf-8"?>
<!-- Generator: Adobe Illustrator 15.1.0, SVG Export Plug-In . SVG Version: 6.00 Build 0)  -->
<!DOCTYPE svg PUBLIC "-//W3C//DTD SVG 1.0//EN" "http://www.w3.org/TR/2001/REC-SVG-20010904/DTD/svg10.dtd">
<svg version="1.0" id="Layer_1" xmlns="http://www.w3.org/2000/svg" xmlns:xlink="http://www.w3.org/1999/xlink" x="0px" y="0px"
	 width="147.768px" height="134.87px" viewBox="235.702 582.482 147.768 134.87"
	 style="enable-background:new 235.702 582.482 147.768 134.87;" xml:space="preserve">
<style type="text/css">
<![CDATA[
	.st0{fill:#9EAFFF;}
]]>
</style>
<g id="Layer_2_4_">
	<path class="st0" d="M342.083,717.353l-24.028-36.675h-55.898c-14.587,0-26.454-11.867-26.454-26.453v-45.288
		c0-14.587,11.867-26.454,26.454-26.454h94.859c14.587,0,26.454,11.867,26.454,26.454v45.288c0,14.586-11.867,26.453-26.454,26.453
		h-7.346L342.083,717.353z M262.156,583.982c-13.76,0-24.954,11.194-24.954,24.954v45.288c0,13.759,11.194,24.953,24.954,24.953
		h56.709l22.483,34.317l7.101-34.317h8.566c13.76,0,24.954-11.194,24.954-24.953v-45.288c0-13.76-11.194-24.954-24.954-24.954
		H262.156z"/>
</g>
</svg>
