<?xml version="1.0" encoding="utf-8"?>
<!-- Generator: Adobe Illustrator 18.1.1, SVG Export Plug-In . SVG Version: 6.00 Build 0)  -->
<svg version="1.1" id="Layer_1" xmlns="http://www.w3.org/2000/svg" xmlns:xlink="http://www.w3.org/1999/xlink" x="0px" y="0px"
	 viewBox="313.5 795.7 100 100" enable-background="new 313.5 795.7 100 100" xml:space="preserve">
<path fill="#040A2B" d="M362.6,859.4c-6.3,0-11.4-5.1-11.4-11.4s5.1-11.4,11.4-11.4S374,841.7,374,848S368.9,859.4,362.6,859.4z
	 M362.6,837.6c-5.7,0-10.4,4.7-10.4,10.4s4.7,10.4,10.4,10.4c5.7,0,10.4-4.7,10.4-10.4S368.3,837.6,362.6,837.6z"/>
<polygon fill="#040A2B" points="357.3,855.8 362.7,850.5 368,855.8 370.5,853.3 365.2,848 370.5,842.7 368,840.2 362.7,845.5 
	357.4,840.2 354.9,842.7 360.2,848 354.8,853.3 "/>
</svg>
