<?xml version="1.0" encoding="utf-8"?>
<!-- Generator: Adobe Illustrator 18.1.1, SVG Export Plug-In . SVG Version: 6.00 Build 0)  -->
<svg version="1.1" id="Layer_1" xmlns="http://www.w3.org/2000/svg" xmlns:xlink="http://www.w3.org/1999/xlink" x="0px" y="0px"
	 viewBox="184.8 795.7 100 100" enable-background="new 184.8 795.7 100 100" xml:space="preserve">
<polygon fill="#040A2B" points="239.6,841.2 237,838.9 229.5,847.7 225,843.9 222.7,846.5 229.8,852.5 "/>
<path fill="#040A2B" d="M231.6,856.5c-6.3,0-11.4-5.1-11.4-11.4s5.1-11.4,11.4-11.4s11.4,5.1,11.4,11.4S237.9,856.5,231.6,856.5z
	 M231.6,834.7c-5.7,0-10.4,4.7-10.4,10.4c0,5.7,4.7,10.4,10.4,10.4c5.7,0,10.4-4.7,10.4-10.4C242,839.4,237.3,834.7,231.6,834.7z"/>
</svg>
