<?xml version="1.0" encoding="utf-8"?>
<!-- Generator: Adobe Illustrator 18.1.1, SVG Export Plug-In . SVG Version: 6.00 Build 0)  -->
<svg version="1.1" id="Layer_1" xmlns="http://www.w3.org/2000/svg" xmlns:xlink="http://www.w3.org/1999/xlink" x="0px" y="0px"
	 viewBox="560.2 795.7 100 100" enable-background="new 560.2 795.7 100 100" xml:space="preserve">
<path fill="#9A7D46" d="M611.2,859.9c-6.3,0-11.4-5.1-11.4-11.4s5.1-11.4,11.4-11.4s11.4,5.1,11.4,11.4S617.5,859.9,611.2,859.9z
	 M611.2,838.1c-5.7,0-10.4,4.7-10.4,10.4c0,5.7,4.7,10.4,10.4,10.4c5.7,0,10.4-4.7,10.4-10.4C621.6,842.8,616.9,838.1,611.2,838.1z"
	/>
<linearGradient id="SVGID_1_" gradientUnits="userSpaceOnUse" x1="618.2834" y1="841.3799" x2="605.2325" y2="854.811">
	<stop  offset="0.1642" style="stop-color:#CAA04E"/>
	<stop  offset="0.1698" style="stop-color:#CCA352"/>
	<stop  offset="0.2532" style="stop-color:#E4C682"/>
	<stop  offset="0.3167" style="stop-color:#F2DCA0"/>
	<stop  offset="0.3527" style="stop-color:#F8E4AB"/>
	<stop  offset="0.4062" style="stop-color:#EBD191"/>
	<stop  offset="0.48" style="stop-color:#DDBC74"/>
	<stop  offset="0.5532" style="stop-color:#D2AC5F"/>
	<stop  offset="0.6249" style="stop-color:#CCA352"/>
	<stop  offset="0.6933" style="stop-color:#CAA04E"/>
	<stop  offset="0.7957" style="stop-color:#D5B05B"/>
	<stop  offset="0.9955" style="stop-color:#F2DA7E"/>
	<stop  offset="1" style="stop-color:#F3DB7F"/>
</linearGradient>
<polygon fill="url(#SVGID_1_)" points="605.8,856.5 611.2,851.2 616.5,856.5 619,854 613.7,848.7 619,843.4 616.5,840.8 
	611.2,846.1 605.9,840.8 603.4,843.4 608.7,848.7 603.3,854 "/>
</svg>
