<?xml version="1.0" encoding="utf-8"?>
<!-- Generator: Adobe Illustrator 18.1.1, SVG Export Plug-In . SVG Version: 6.00 Build 0)  -->
<svg version="1.1" id="Layer_1" xmlns="http://www.w3.org/2000/svg" xmlns:xlink="http://www.w3.org/1999/xlink" x="0px" y="0px"
	 viewBox="428.8 655.1 100 100" enable-background="new 428.8 655.1 100 100" xml:space="preserve">
<g>
	<circle fill="#040A2B" cx="477.5" cy="703.7" r="11.1"/>
	<path fill="#FFFFFF" d="M477.5,715.3c-6.4,0-11.6-5.2-11.6-11.6s5.2-11.6,11.6-11.6s11.6,5.2,11.6,11.6S483.9,715.3,477.5,715.3z
		 M477.5,693.1c-5.8,0-10.6,4.8-10.6,10.6s4.8,10.6,10.6,10.6s10.6-4.8,10.6-10.6S483.3,693.1,477.5,693.1z"/>
</g>
<g>
	<path fill="#FFFFFF" d="M478.7,701.2c0.3-0.5,0.7-1.1,1-1.8c0.2,0,0.3,0.1,0.5,0.1c0.1,0,0.3,0,0.5-0.1c-0.5,0.7-0.9,1.3-1.4,1.9
		c-0.5,0.6-0.9,1.3-1.3,1.9c0.5,0.8,0.9,1.6,1.4,2.4c0.5,0.8,1,1.5,1.5,2.3c-0.1,0-0.2,0-0.3,0c-0.1,0-0.2,0-0.3,0s-0.2,0-0.3,0
		c-0.1,0-0.2,0-0.3,0c-0.3-0.6-0.7-1.2-1-1.8c-0.3-0.6-0.7-1.2-1.1-1.9c-0.4,0.6-0.8,1.3-1.2,1.9c-0.4,0.6-0.7,1.2-1.1,1.8
		c-0.1,0-0.2,0-0.2,0c-0.1,0-0.2,0-0.2,0c-0.1,0-0.1,0-0.2,0s-0.2,0-0.2,0c0.5-0.7,1-1.4,1.4-2.1c0.5-0.7,0.9-1.4,1.4-2.1
		c-0.4-0.7-0.9-1.4-1.3-2.1c-0.4-0.7-0.9-1.4-1.3-2.1c0.1,0,0.2,0,0.3,0c0.1,0,0.2,0,0.3,0c0.1,0,0.2,0,0.3,0c0.1,0,0.2,0,0.3,0
		c0.3,0.6,0.6,1.1,0.9,1.6c0.3,0.5,0.7,1.1,1,1.8C478,702.3,478.4,701.7,478.7,701.2z"/>
</g>
</svg>
