<?xml version="1.0" encoding="utf-8"?>
<!-- Generator: Adobe Illustrator 18.1.1, SVG Export Plug-In . SVG Version: 6.00 Build 0)  -->
<svg version="1.1" id="Layer_1" xmlns="http://www.w3.org/2000/svg" xmlns:xlink="http://www.w3.org/1999/xlink" x="0px" y="0px"
	 viewBox="-85.9 655.1 100 100" enable-background="new -85.9 655.1 100 100" xml:space="preserve">
<path fill="#040A2B" d="M-12,720.9l-12.5-12.5c1.6-2.4,2.5-5.3,2.5-8.2c0-4-1.5-7.7-4.3-10.5c-2.8-2.8-6.5-4.3-10.5-4.3
	s-7.7,1.5-10.5,4.3c-2.8,2.8-4.3,6.5-4.3,10.5s1.5,7.7,4.3,10.5c2.8,2.8,6.5,4.3,10.5,4.3c3,0,5.9-0.9,8.3-2.6l12.5,12.5
	c0.4,0.4,1.2,0.3,1.7-0.2l2.1-2.1C-11.7,722.1-11.6,721.3-12,720.9z M-36.9,710.9c-6,0-10.8-4.9-10.8-10.8c0-6,4.9-10.8,10.8-10.8
	s10.8,4.9,10.8,10.8C-26.1,706.1-30.9,710.9-36.9,710.9z"/>
</svg>
