<?xml version="1.0" standalone="no"?>
<!DOCTYPE svg PUBLIC "-//W3C//DTD SVG 1.1//EN" "http://www.w3.org/Graphics/SVG/1.1/DTD/svg11.dtd" >
<svg xmlns="http://www.w3.org/2000/svg" xmlns:xlink="http://www.w3.org/1999/xlink" version="1.1">
<metadata>
Created by FontForge 20141024 at Thu Jun  4 20:01:35 2015
 By System Administrator
 The digitally encoded machine readable software for producing the
 Typefaces licensed to you is copyrighted (c) 1989, 1990, 2002 Adobe Systems.
 All rights reserved. This software is the property of Adobe Systems
 Incorporated and its licensors, and may not be reproduced, used,
 displayed, modified, disclosed, or transferred  without the express
 written approval of Adobe.

 The digitally encoded machine readable outline data for producing the Typefaces
 provided as part of your laser printer is copyrighted (c) 1981, 2002 Heidelberger Druckmaschinen AG.
 All rights reserved. This data is the property of Heidelberger Druckmaschinen AG,
 and may not be reproduced, used, displayed, modified, disclosed or transferred
 without the express written approval of Heidelberger Druckmaschinen AG. 
</metadata>
<defs>
<font id="TradeGothicLTStd-BoldObl" horiz-adv-x="500" >
  <font-face 
    font-family="Trade Gothic LT Std"
    font-weight="700"
    font-style="italic"
    font-stretch="normal"
    units-per-em="1000"
    panose-1="0 0 8 0 0 0 0 0 0 0"
    ascent="722"
    descent="-278"
    x-height="544"
    cap-height="722"
    bbox="-169 -279 1092 971"
    underline-thickness="50"
    underline-position="-50"
    slope="-12.5"
    stemh="84"
    stemv="126"
    unicode-range="U+0020-FB02"
  />
<missing-glyph horiz-adv-x="655" 
d="M155 0v700h500v-700h-500zM405 395l170 255h-340zM435 350l170 -255v510zM235 50h340l-170 255zM205 605v-510l170 255z" />
    <glyph glyph-name="fi" unicode="fi" 
d="M437 520h126l-115 -520h-126zM584 614h-126l25 114h126zM431 726l-23 -104h-36c-30 0 -47 -19 -53 -46l-13 -56h75l-22 -102h-75l-93 -418h-126l93 418h-57l22 102h57l12 52c28 126 88 160 180 160c18 0 39 -3 59 -6z" />
    <glyph glyph-name="fl" unicode="fl" 
d="M322 0l160 722h126l-160 -722h-126zM431 726l-23 -104h-36c-30 0 -47 -19 -53 -46l-13 -56h75l-22 -102h-75l-93 -418h-126l93 418h-57l22 102h57l12 52c28 126 88 160 180 160c18 0 39 -3 59 -6z" />
    <glyph glyph-name=".notdef" horiz-adv-x="655" 
d="M155 0v700h500v-700h-500zM405 395l170 255h-340zM435 350l170 -255v510zM235 50h340l-170 255zM205 605v-510l170 255z" />
    <glyph glyph-name="space" unicode=" " horiz-adv-x="278" 
 />
    <glyph glyph-name="exclam" unicode="!" horiz-adv-x="278" 
d="M372 722l-134 -478h-90l78 478h146zM210 0h-142l31 142h142z" />
    <glyph glyph-name="quotedbl" unicode="&#x22;" horiz-adv-x="333" 
d="M299 452l60 270h110l-60 -270h-110zM124 452l60 270h110l-60 -270h-110z" />
    <glyph glyph-name="numbersign" unicode="#" horiz-adv-x="556" 
d="M573 300l-21 -94h-99l-75 -206h-96l74 206h-99l-75 -206h-96l74 206h-94l21 94h107l45 122h-94l20 94h106l75 206h96l-74 -206h99l75 206h96l-74 -206h86l-20 -94h-98l-45 -122h86zM435 422h-99l-45 -122h99z" />
    <glyph glyph-name="dollar" unicode="$" horiz-adv-x="556" 
d="M47 127l103 78c22 -43 58 -83 107 -93l45 206c-97 30 -178 98 -153 211c26 118 132 188 243 193l14 64h78l-14 -64c81 -14 132 -55 167 -106l-95 -75c-21 35 -50 66 -96 71l-41 -184c103 -40 191 -93 161 -228c-26 -121 -138 -197 -256 -200l-25 -114h-78l25 115
c-69 0 -150 60 -185 126zM332 450l37 168c-46 -1 -92 -29 -104 -79c-9 -44 26 -76 67 -89zM375 295l-41 -185c52 0 98 35 109 86c14 59 -25 78 -68 99z" />
    <glyph glyph-name="percent" unicode="%" horiz-adv-x="889" 
d="M374 722c101 0 162 -82 140 -180s-119 -180 -220 -180s-162 82 -140 180s119 180 220 180zM352 624c-45 0 -90 -39 -100 -82c-9 -43 19 -82 64 -82s91 39 100 82c10 43 -19 82 -64 82zM755 360c101 0 162 -82 140 -180s-119 -180 -220 -180s-162 82 -140 180
s119 180 220 180zM733 262c-45 0 -91 -39 -100 -82c-10 -43 19 -82 64 -82s90 39 100 82c9 43 -19 82 -64 82zM195 -10l579 742h85l-579 -742h-85z" />
    <glyph glyph-name="ampersand" unicode="&#x26;" horiz-adv-x="667" 
d="M418 648c-40 0 -71 -34 -81 -78c-9 -42 1 -74 16 -114c46 34 101 67 114 125c7 31 -7 67 -49 67zM587 363l105 -31c-37 -60 -76 -121 -126 -180c24 -20 55 -36 91 -40l-27 -122c-69 0 -111 16 -166 74c-57 -46 -126 -74 -197 -74c-139 0 -220 68 -191 200
c22 100 84 153 166 200c-25 57 -36 102 -23 162c28 124 127 180 225 180s154 -72 134 -163c-20 -93 -104 -147 -183 -200c27 -53 59 -102 96 -147c37 47 71 91 96 141zM218 208c-15 -70 27 -104 80 -104c37 0 77 17 102 40c-44 48 -80 100 -110 154c-36 -24 -63 -48 -72 -90
z" />
    <glyph glyph-name="quoteright" unicode="&#x2019;" horiz-adv-x="222" 
d="M145 432l84 148h-60l31 142h142l-31 -142l-96 -148h-70z" />
    <glyph glyph-name="parenleft" unicode="(" horiz-adv-x="333" 
d="M285 -84h-118c-55 114 -79 255 -45 408s120 294 226 408h118c-101 -108 -195 -233 -234 -408s0 -300 53 -408z" />
    <glyph glyph-name="parenright" unicode=")" horiz-adv-x="333" 
d="M128 -84h-118c101 108 196 233 235 408s-1 300 -54 408h118c56 -114 80 -255 46 -408s-120 -294 -227 -408z" />
    <glyph glyph-name="asterisk" unicode="*" 
d="M360 722h100l-61 -145l3 -5l148 68l6 -89l-150 -18l-3 -6l83 -104l-88 -57l-34 134h-6l-94 -134l-62 57l129 104l-1 6l-142 18l46 89l118 -68l5 5z" />
    <glyph glyph-name="plus" unicode="+" horiz-adv-x="600" 
d="M313 333l47 211h122l-47 -211h211l-27 -122h-211l-47 -211h-122l47 211h-211l27 122h211z" />
    <glyph glyph-name="comma" unicode="," horiz-adv-x="278" 
d="M44 -148l84 148h-60l31 142h142l-31 -142l-96 -148h-70z" />
    <glyph glyph-name="hyphen" unicode="-" horiz-adv-x="333" 
d="M337 217h-246l24 110h246z" />
    <glyph glyph-name="period" unicode="." horiz-adv-x="278" 
d="M210 0h-142l31 142h142z" />
    <glyph glyph-name="slash" unicode="/" horiz-adv-x="278" 
d="M498 732l-436 -742h-122l436 742h122z" />
    <glyph glyph-name="zero" unicode="0" horiz-adv-x="556" 
d="M89 240l54 242c34 154 141 250 297 250s221 -96 187 -250l-54 -242c-34 -154 -141 -250 -297 -250s-221 96 -187 250zM272 467l-47 -212c-26 -117 2 -151 76 -151s118 34 144 151l47 212c25 117 -3 151 -77 151s-118 -34 -143 -151z" />
    <glyph glyph-name="one" unicode="1" horiz-adv-x="556" 
d="M235 0l122 552h-111l18 79c111 21 137 57 180 101h79l-162 -732h-126z" />
    <glyph glyph-name="two" unicode="2" horiz-adv-x="556" 
d="M495 0h-455l26 117c349 274 406 326 423 402c13 58 -10 99 -74 99c-67 0 -112 -41 -124 -95l-6 -26h-132l8 34c23 106 129 201 269 201c141 0 222 -72 192 -210c-37 -167 -261 -296 -390 -408h288z" />
    <glyph glyph-name="three" unicode="3" horiz-adv-x="556" 
d="M81 212h132c-16 -74 9 -108 83 -108c68 0 115 45 129 107c18 81 -21 112 -121 113l25 114c93 0 135 26 150 93c11 50 -14 87 -74 87c-49 0 -93 -35 -106 -84h-132c31 133 143 198 264 198c130 0 209 -68 181 -196c-14 -63 -59 -128 -122 -157c70 -30 83 -93 65 -174
c-31 -143 -152 -215 -282 -215c-162 0 -222 86 -192 222z" />
    <glyph glyph-name="four" unicode="4" horiz-adv-x="556" 
d="M175 292h207l62 282h-2zM68 306l398 416h137l-95 -430h101l-23 -102h-101l-42 -190h-126l42 190h-317z" />
    <glyph glyph-name="five" unicode="5" horiz-adv-x="556" 
d="M81 207h132c-18 -67 15 -103 80 -103c86 0 124 56 147 157c20 89 1 139 -74 139c-45 0 -86 -22 -119 -56h-109l84 378h417l-25 -114h-303l-33 -150c44 27 87 44 140 44c154 0 186 -96 153 -244c-37 -167 -128 -268 -301 -268c-180 0 -213 108 -189 217z" />
    <glyph glyph-name="six" unicode="6" horiz-adv-x="556" 
d="M233 295l-8 -40c-26 -117 2 -151 76 -151c69 0 115 50 134 133c17 80 -18 117 -79 117c-42 0 -82 -28 -123 -59zM619 533h-132c9 49 -23 85 -72 85c-74 0 -118 -34 -143 -151l-15 -67c52 34 110 56 167 56c126 0 169 -98 144 -214c-33 -148 -128 -252 -292 -252
c-156 0 -221 96 -187 250l54 242c34 154 141 250 297 250c125 0 198 -69 179 -199z" />
    <glyph glyph-name="seven" unicode="7" horiz-adv-x="556" 
d="M165 608l25 114h456l-15 -66l-340 -656h-144l335 608h-317z" />
    <glyph glyph-name="eight" unicode="8" horiz-adv-x="556" 
d="M434 209c15 67 -18 111 -85 111s-120 -44 -135 -111c-13 -62 6 -105 87 -105s120 43 133 105zM486 525c12 51 -17 93 -71 93s-101 -42 -113 -93c-11 -51 21 -91 72 -91s101 40 112 91zM565 205c-31 -143 -152 -215 -289 -215s-226 72 -195 215c18 81 60 144 144 174
c-51 29 -66 94 -52 157c30 134 142 196 267 196s211 -62 181 -196c-14 -63 -59 -128 -122 -157c70 -30 84 -93 66 -174z" />
    <glyph glyph-name="nine" unicode="9" horiz-adv-x="556" 
d="M483 427l9 40c25 117 -3 151 -77 151c-69 0 -115 -50 -133 -133c-18 -80 17 -117 78 -117c42 0 82 28 123 59zM97 189h132c-9 -49 23 -85 72 -85c74 0 118 34 144 151l14 67c-52 -34 -110 -56 -167 -56c-126 0 -169 98 -144 214c33 148 128 252 292 252
c156 0 221 -96 187 -250l-54 -242c-34 -154 -141 -250 -297 -250c-125 0 -198 69 -179 199z" />
    <glyph glyph-name="colon" unicode=":" horiz-adv-x="278" 
d="M210 0h-142l31 142h142zM277 300h-142l31 142h142z" />
    <glyph glyph-name="semicolon" unicode=";" horiz-adv-x="278" 
d="M44 -148l84 148h-60l31 142h142l-31 -142l-96 -148h-70zM277 300h-142l31 142h142z" />
    <glyph glyph-name="less" unicode="&#x3c;" horiz-adv-x="600" 
d="M596 108l-26 -117l-492 233l21 96l596 233l-26 -117l-426 -164z" />
    <glyph glyph-name="equal" unicode="=" horiz-adv-x="600" 
d="M673 455l-27 -122h-544l27 122h544zM619 211l-27 -122h-544l27 122h544z" />
    <glyph glyph-name="greater" unicode="&#x3e;" horiz-adv-x="600" 
d="M26 -9l26 117l425 164l-352 164l26 117l492 -233l-21 -96z" />
    <glyph glyph-name="question" unicode="?" horiz-adv-x="444" 
d="M245 542l-108 32c47 99 134 158 236 158c95 0 174 -59 150 -170c-11 -46 -57 -94 -103 -140c-47 -47 -93 -92 -102 -132l-11 -50h-110l22 98c11 48 167 176 180 234c7 34 -18 58 -50 58c-41 0 -91 -44 -104 -88zM270 0h-142l31 142h142z" />
    <glyph glyph-name="at" unicode="@" horiz-adv-x="800" 
d="M511 452c-62 0 -120 -60 -133 -117c-10 -48 11 -83 59 -83c65 0 122 59 135 119c11 48 -14 81 -61 81zM627 492l23 50h90l-104 -244c-4 -11 -13 -26 -16 -39c-2 -11 0 -19 11 -19c46 0 113 55 137 162c36 160 -58 246 -210 246c-167 0 -303 -123 -339 -288
c-39 -175 57 -286 227 -286c77 0 154 28 213 70h92c-91 -99 -208 -154 -331 -154c-211 0 -351 156 -303 370c47 211 253 372 462 372c176 0 320 -118 279 -302c-48 -220 -255 -288 -317 -288c-28 0 -49 18 -42 52l-2 1c-31 -28 -76 -53 -112 -53c-86 0 -141 82 -121 176
c27 120 133 236 258 236c49 0 87 -19 105 -62z" />
    <glyph glyph-name="A" unicode="A" horiz-adv-x="556" 
d="M403 566l-132 -292h137l-3 292h-2zM146 0h-133l339 722h177l14 -722h-132l-1 152h-191z" />
    <glyph glyph-name="B" unicode="B" horiz-adv-x="556" 
d="M62 0l160 722h194c148 0 219 -62 192 -186c-14 -63 -57 -115 -122 -150c65 -48 86 -88 66 -178c-32 -143 -142 -208 -288 -208h-202zM271 322l-46 -208h58c72 0 120 42 134 105c15 69 -26 103 -98 103h-48zM335 608l-38 -172h48c62 0 111 36 122 85c11 53 -12 87 -77 87
h-55z" />
    <glyph glyph-name="C" unicode="C" horiz-adv-x="556" 
d="M301 508l-66 -294c-17 -80 13 -102 68 -102s95 22 112 102l11 48h138l-7 -30c-39 -178 -147 -242 -281 -242s-214 64 -175 242l58 258c39 178 147 242 281 242s214 -64 175 -242l-1 -2h-138l5 20c17 80 -13 102 -68 102s-95 -22 -112 -102z" />
    <glyph glyph-name="D" unicode="D" horiz-adv-x="556" 
d="M62 0l160 722h192c158 0 231 -68 197 -250l-50 -222c-46 -182 -149 -250 -307 -250h-192zM333 600l-106 -478h48c76 0 128 36 152 144l42 190c23 102 -2 144 -88 144h-48z" />
    <glyph glyph-name="E" unicode="E" 
d="M450 0h-388l160 722h378l-27 -122h-240l-37 -166h183l-27 -122h-183l-42 -190h250z" />
    <glyph glyph-name="F" unicode="F" horiz-adv-x="444" 
d="M200 0h-138l160 722h360l-27 -122h-222l-37 -166h174l-27 -122h-174z" />
    <glyph glyph-name="G" unicode="G" horiz-adv-x="556" 
d="M428 0l-8 60c-46 -42 -92 -70 -144 -70c-134 0 -214 64 -175 242l58 258c39 178 147 242 281 242c141 0 199 -81 168 -245h-138c21 93 -7 123 -57 123c-55 0 -95 -22 -112 -102l-66 -294c-17 -80 13 -102 68 -102c52 0 92 38 106 100l10 44h-97l25 114h235l-82 -370h-72z
" />
    <glyph glyph-name="H" unicode="H" horiz-adv-x="611" 
d="M208 0h-138l160 722h138l-64 -288h195l64 288h138l-160 -722h-138l69 312h-195z" />
    <glyph glyph-name="I" unicode="I" horiz-adv-x="278" 
d="M208 0h-138l160 722h138z" />
    <glyph glyph-name="J" unicode="J" horiz-adv-x="333" 
d="M285 722h138l-126 -569c-22 -97 -101 -163 -221 -163c-30 0 -48 1 -68 3l27 122c14 -1 25 -3 37 -3c63 0 82 17 93 69z" />
    <glyph glyph-name="K" unicode="K" horiz-adv-x="556" 
d="M200 0h-138l160 722h138l-66 -298h2l245 298h151l-250 -291l111 -431h-155l-77 303l-72 -82z" />
    <glyph glyph-name="L" unicode="L" horiz-adv-x="444" 
d="M422 0h-360l160 722h138l-133 -600h222z" />
    <glyph glyph-name="M" unicode="M" horiz-adv-x="778" 
d="M188 0h-118l160 722h193l20 -474h2l230 474h193l-160 -722h-118l126 568h-2l-273 -568h-104l-21 568h-2z" />
    <glyph glyph-name="N" unicode="N" horiz-adv-x="611" 
d="M196 0h-126l160 722h151l97 -428h2l95 428h126l-160 -722h-132l-108 466h-2z" />
    <glyph glyph-name="O" unicode="O" horiz-adv-x="556" 
d="M101 232l58 258c39 178 147 242 281 242s214 -64 175 -242l-58 -258c-39 -178 -147 -242 -281 -242s-214 64 -175 242zM301 508l-66 -294c-17 -80 13 -102 68 -102s95 22 112 102l66 294c17 80 -13 102 -68 102s-95 -22 -112 -102z" />
    <glyph glyph-name="P" unicode="P" horiz-adv-x="556" 
d="M208 0h-138l160 722h199c170 0 235 -80 205 -216s-131 -216 -301 -216h-61zM343 608l-45 -204h74c68 0 109 34 124 102s-11 102 -79 102h-74z" />
    <glyph glyph-name="Q" unicode="Q" horiz-adv-x="556" 
d="M564 67l-27 -120c-67 0 -104 31 -129 71c-40 -20 -84 -28 -132 -28c-134 0 -214 64 -175 242l58 258c39 178 147 242 281 242s214 -64 175 -242l-58 -258c-13 -59 -33 -105 -60 -141c16 -14 37 -23 67 -24zM309 180l27 120c43 -6 66 -32 82 -66h2l61 274
c17 80 -13 102 -68 102s-95 -22 -112 -102l-66 -294c-17 -80 13 -102 68 -102c21 0 38 3 54 11c-13 27 -27 49 -48 57z" />
    <glyph glyph-name="R" unicode="R" horiz-adv-x="556" 
d="M534 0h-148l-55 294h-66l-65 -294h-138l160 722h200c166 0 227 -80 197 -216c-20 -90 -66 -155 -150 -184zM335 608l-45 -200h71c61 0 105 30 121 100c15 70 -15 100 -76 100h-71z" />
    <glyph glyph-name="S" unicode="S" horiz-adv-x="556" 
d="M614 557l-131 -36c-8 68 -32 97 -80 97c-49 0 -83 -30 -94 -79c-24 -109 283 -117 232 -343c-27 -124 -130 -206 -275 -206c-112 0 -186 61 -191 203l142 29c-3 -87 40 -118 81 -118c48 0 92 32 104 86c30 136 -277 138 -233 340c28 124 119 202 262 202
c123 0 182 -73 183 -175z" />
    <glyph glyph-name="T" unicode="T" 
d="M180 722h460l-27 -122h-161l-133 -600h-138l133 600h-161z" />
    <glyph glyph-name="U" unicode="U" horiz-adv-x="611" 
d="M230 722h138l-112 -505c-15 -69 7 -105 74 -105s106 36 121 105l112 505h138l-112 -506c-35 -159 -144 -226 -286 -226s-220 67 -185 226z" />
    <glyph glyph-name="V" unicode="V" horiz-adv-x="556" 
d="M200 0l-25 722h136l13 -516h2l240 516h135l-344 -722h-157z" />
    <glyph glyph-name="W" unicode="W" horiz-adv-x="833" 
d="M174 0l9 722h128l-8 -472h2l204 472h133l-5 -472h2l201 472h129l-318 -722h-133l9 494h-2l-219 -494h-132z" />
    <glyph glyph-name="X" unicode="X" horiz-adv-x="556" 
d="M334 722l56 -216l152 216h148l-251 -342l108 -380h-149l-63 255l-177 -255h-149l278 380l-101 342h148z" />
    <glyph glyph-name="Y" unicode="Y" horiz-adv-x="556" 
d="M319 722l57 -291l181 291h147l-292 -430l-65 -292h-138l65 292l-102 430h147z" />
    <glyph glyph-name="Z" unicode="Z" 
d="M194 600l27 122h400l-26 -116l-380 -484h279l-27 -122h-434l26 117l380 483h-245z" />
    <glyph glyph-name="bracketleft" unicode="[" horiz-adv-x="333" 
d="M268 -74h-234l176 796h234l-13 -60h-124l-150 -676h124z" />
    <glyph glyph-name="backslash" unicode="\" horiz-adv-x="278" 
d="M212 -10l-108 742h122l108 -742h-122z" />
    <glyph glyph-name="bracketright" unicode="]" horiz-adv-x="333" 
d="M209 722h234l-176 -796h-234l13 60h124l150 676h-124z" />
    <glyph glyph-name="asciicircum" unicode="^" horiz-adv-x="600" 
d="M240 320h-117l283 402h108l105 -402h-119l-67 282z" />
    <glyph glyph-name="underscore" unicode="_" 
d="M472 -125h-500l11 50h500z" />
    <glyph glyph-name="quoteleft" unicode="&#x2018;" horiz-adv-x="222" 
d="M335 732l-84 -148h60l-31 -142h-142l31 142l96 148h70z" />
    <glyph glyph-name="a" unicode="a" 
d="M259 385h-126c19 61 53 103 96 130c42 27 94 39 144 39c134 0 170 -68 148 -165l-76 -345c-4 -15 -4 -30 -3 -44h-126c0 14 2 31 3 53c-45 -37 -101 -63 -164 -63c-76 0 -116 42 -96 130c28 126 160 180 327 227l9 40c10 47 -15 65 -51 65c-38 0 -76 -28 -85 -67z
M339 134l29 132c-81 -26 -166 -68 -179 -125c-8 -36 10 -57 44 -57c38 0 69 20 106 50z" />
    <glyph glyph-name="b" unicode="b" 
d="M279 421l-66 -298c19 -27 40 -39 68 -39c34 0 66 22 90 130l26 116c24 108 1 130 -33 130c-28 0 -54 -12 -85 -39zM176 0h-116l160 722h126l-50 -228c69 44 105 60 139 60c98 0 121 -76 90 -216l-29 -132c-31 -140 -88 -216 -186 -216c-56 0 -103 42 -117 76h-2z" />
    <glyph glyph-name="c" unicode="c" 
d="M528 356h-125l5 24c10 42 -16 64 -60 64s-78 -22 -88 -64l-48 -216c-9 -42 16 -64 60 -64s79 22 88 64l8 34h126l-1 -2c-31 -144 -119 -206 -245 -206s-186 62 -155 206l34 152c32 144 120 206 246 206c123 0 184 -60 155 -198z" />
    <glyph glyph-name="d" unicode="d" 
d="M341 123l66 298c-19 27 -39 39 -67 39c-34 0 -67 -22 -91 -130l-26 -116c-24 -108 0 -130 34 -130c28 0 53 12 84 39zM440 0h-116l15 66h-2c-30 -34 -95 -76 -151 -76c-98 0 -121 76 -90 216l29 132c31 140 88 216 186 216c34 0 62 -16 113 -60l50 228h126z" />
    <glyph glyph-name="e" unicode="e" 
d="M504 242h-274l-16 -72c-12 -54 14 -78 56 -78c53 0 82 34 91 76h126c-31 -112 -112 -178 -239 -178c-120 0 -184 74 -157 193l39 178c26 119 123 193 243 193c117 0 183 -74 159 -185zM252 344h148l7 30c11 48 -6 78 -57 78s-80 -30 -91 -78z" />
    <glyph glyph-name="f" unicode="f" horiz-adv-x="278" 
d="M431 726l-23 -104h-36c-30 0 -47 -19 -53 -46l-13 -56h75l-22 -102h-75l-93 -418h-126l93 418h-57l22 102h57l12 52c28 126 88 160 180 160c18 0 39 -3 59 -6z" />
    <glyph glyph-name="g" unicode="g" 
d="M369 347c15 70 1 105 -43 105c-48 0 -73 -33 -92 -118c-15 -68 -1 -102 37 -102c54 0 77 20 98 115zM601 554l-25 -110c-9 2 -27 8 -37 8c-13 0 -27 -7 -45 -12c0 -36 2 -63 -6 -96c-30 -136 -105 -214 -229 -214c-18 0 -33 1 -51 7c-9 -10 -26 -19 -29 -32
c-15 -68 324 37 281 -160c-21 -93 -127 -137 -273 -137c-134 0 -199 38 -186 99c9 41 61 66 95 85c-26 18 -42 42 -35 77c10 43 61 72 96 91c-52 40 -60 98 -40 189c26 117 91 205 232 205c52 0 104 -24 128 -63c41 40 77 63 124 63zM298 -36l-135 12
c-16 -13 -32 -24 -36 -44c-6 -28 32 -40 106 -40c60 0 98 15 105 43c4 18 -3 26 -40 29z" />
    <glyph glyph-name="h" unicode="h" 
d="M186 0h-126l160 722h126l-53 -240c51 40 101 72 153 72c77 0 108 -39 86 -140l-92 -414h-126l89 400c8 36 1 60 -33 60c-26 0 -61 -25 -93 -49z" />
    <glyph glyph-name="i" unicode="i" horiz-adv-x="278" 
d="M197 544h126l-121 -544h-126zM343 638h-126l26 114h126z" />
    <glyph glyph-name="j" unicode="j" horiz-adv-x="278" 
d="M197 544h126l-131 -588c-23 -104 -103 -148 -187 -148c-16 0 -31 1 -45 3l25 111c54 0 77 16 85 50zM343 638h-126l26 114h126z" />
    <glyph glyph-name="k" unicode="k" 
d="M192 0h-126l160 722h126l-86 -389h2l181 211h141l-166 -184l56 -360h-133l-35 255l-83 -89z" />
    <glyph glyph-name="l" unicode="l" horiz-adv-x="278" 
d="M76 0l160 722h126l-160 -722h-126z" />
    <glyph glyph-name="m" unicode="m" horiz-adv-x="722" 
d="M60 0l121 544h122l-14 -62c49 37 98 72 151 72c47 0 74 -32 78 -82c48 43 97 82 152 82c76 0 105 -46 83 -144l-91 -410h-126l92 414c8 36 -3 46 -23 46c-24 0 -69 -28 -90 -49l-91 -411h-126l92 414c8 36 -4 46 -24 46c-27 0 -69 -28 -89 -49l-91 -411h-126z" />
    <glyph glyph-name="n" unicode="n" 
d="M186 0h-126l121 544h122l-14 -62c55 40 105 72 157 72c77 0 108 -39 86 -140l-92 -414h-126l89 400c8 36 1 60 -33 60c-26 0 -61 -25 -93 -49z" />
    <glyph glyph-name="o" unicode="o" 
d="M93 196l34 152c32 144 120 206 246 206s186 -62 154 -206l-34 -152c-31 -144 -119 -206 -245 -206s-186 62 -155 206zM260 380l-48 -216c-9 -42 16 -64 60 -64s79 22 88 64l48 216c10 42 -16 64 -60 64s-78 -22 -88 -64z" />
    <glyph glyph-name="p" unicode="p" 
d="M279 421l-66 -298c19 -27 40 -39 68 -39c34 0 66 22 90 130l26 116c24 108 1 130 -33 130c-28 0 -54 -12 -85 -39zM181 544h116l-15 -66h2c30 34 95 76 151 76c98 0 121 -76 90 -216l-29 -132c-31 -140 -88 -216 -186 -216c-34 0 -63 16 -113 60l-54 -242h-126z" />
    <glyph glyph-name="q" unicode="q" 
d="M341 123l66 298c-19 27 -39 39 -67 39c-34 0 -67 -22 -91 -130l-26 -116c-24 -108 0 -130 34 -130c28 0 53 12 84 39zM445 544h116l-164 -736h-126l54 242c-70 -44 -105 -60 -139 -60c-98 0 -121 76 -90 216l29 132c31 140 88 216 186 216c56 0 103 -42 117 -76h2z" />
    <glyph glyph-name="r" unicode="r" horiz-adv-x="333" 
d="M186 0h-126l121 544h123l-16 -72h2c41 54 85 82 148 82l-30 -136c-20 6 -42 14 -64 14c-41 0 -69 -31 -76 -60z" />
    <glyph glyph-name="s" unicode="s" horiz-adv-x="444" 
d="M497 418l-113 -40c-6 50 -33 74 -71 74c-29 0 -55 -21 -62 -49c-18 -84 227 -86 191 -248c-24 -108 -112 -165 -217 -165c-76 0 -140 19 -171 155l120 31c0 -51 23 -84 73 -84c38 0 65 18 72 48c23 104 -228 79 -188 262c23 103 117 152 206 152c94 0 147 -54 160 -136z
" />
    <glyph glyph-name="t" unicode="t" horiz-adv-x="278" 
d="M149 418h-50l22 102h50l33 148h126l-33 -148h81l-22 -102h-81l-62 -278c-6 -27 14 -40 48 -40c9 0 17 0 25 1l-23 -106c-25 -4 -49 -5 -73 -5c-82 0 -130 30 -112 108z" />
    <glyph glyph-name="u" unicode="u" 
d="M435 544h126l-121 -544h-122l14 62c-55 -40 -105 -72 -157 -72c-77 0 -109 39 -86 140l92 414h126l-89 -400c-8 -36 -1 -60 33 -60c26 0 60 25 92 49z" />
    <glyph glyph-name="v" unicode="v" horiz-adv-x="444" 
d="M259 544l5 -350h2l161 350h126l-269 -544h-124l-27 544h126z" />
    <glyph glyph-name="w" unicode="w" horiz-adv-x="667" 
d="M143 0l-9 544h118l-3 -340h2l149 340h108l1 -340h2l145 340h118l-249 -544h-118l-2 340h-2l-142 -340h-118z" />
    <glyph glyph-name="x" unicode="x" horiz-adv-x="444" 
d="M217 280l-79 264h134l36 -156l108 156h134l-197 -265l85 -279h-134l-43 176l-121 -176h-134z" />
    <glyph glyph-name="y" unicode="y" horiz-adv-x="444" 
d="M-10 -190l24 110c12 -2 24 -2 37 -2c55 0 101 48 107 72c7 32 5 69 2 115l-28 439h128l5 -360h2l159 360h128l-266 -542c-71 -147 -133 -194 -259 -194c-12 0 -25 1 -39 2z" />
    <glyph glyph-name="z" unicode="z" horiz-adv-x="444" 
d="M147 434l25 110h362l-24 -108l-304 -326h231l-24 -110h-382l24 108l299 326h-207z" />
    <glyph glyph-name="braceleft" unicode="{" horiz-adv-x="333" 
d="M423 732l-13 -60h-31c-36 0 -57 -17 -67 -61l-43 -194c-12 -57 -49 -83 -99 -91v-2c46 -8 71 -34 59 -91l-44 -196c-10 -44 4 -61 40 -61h31l-14 -60h-79c-55 0 -106 37 -88 119l43 197c12 50 -17 63 -57 63l14 60c40 0 74 13 85 63l43 195c18 82 86 119 141 119h79z" />
    <glyph glyph-name="bar" unicode="|" horiz-adv-x="460" 
d="M261 838h101v-1117h-101v1117z" />
    <glyph glyph-name="braceright" unicode="}" horiz-adv-x="333" 
d="M53 -84l14 60h31c36 0 56 17 66 61l43 194c13 57 50 83 99 91l1 2c-46 8 -72 34 -59 91l43 196c10 44 -3 61 -39 61h-31l13 60h79c55 0 107 -37 89 -119l-44 -197c-11 -50 17 -63 57 -63l-13 -60c-40 0 -74 -13 -85 -63l-43 -195c-18 -82 -87 -119 -142 -119h-79z" />
    <glyph glyph-name="asciitilde" unicode="~" horiz-adv-x="600" 
d="M592 369l16 -98c-41 -45 -87 -92 -154 -92c-43 0 -72 18 -103 37c-32 18 -67 36 -119 36c-42 0 -77 -40 -102 -77l-18 96c34 46 84 93 156 93c75 0 158 -73 218 -73c38 0 72 40 106 78z" />
    <glyph glyph-name="exclamdown" unicode="&#xa1;" horiz-adv-x="278" 
d="M173 -178h-146l134 478h90zM189 544h142l-32 -142h-142z" />
    <glyph glyph-name="cent" unicode="&#xa2;" horiz-adv-x="556" 
d="M223 135l145 309h-2c-52 0 -86 -22 -96 -64l-48 -216c-2 -10 -2 -20 1 -29zM558 356h-125l5 24c4 17 1 30 -7 40l-153 -319c4 -1 8 -1 12 -1c56 0 91 22 100 64l8 34h126l-1 -2c-31 -144 -119 -206 -257 -206c-11 0 -22 1 -34 2l-65 -132h-89l76 154
c-51 31 -71 90 -51 182l34 152c32 144 120 206 254 206c11 0 21 0 30 -2l62 124h89l-71 -144c55 -26 76 -84 57 -176z" />
    <glyph glyph-name="sterling" unicode="&#xa3;" horiz-adv-x="556" 
d="M182 318h-96l20 88h83c2 43 5 89 14 131c29 129 138 195 247 195c162 0 215 -81 186 -214h-126c9 62 -4 104 -72 104c-52 0 -92 -36 -104 -90c-10 -45 -11 -86 -13 -126h132l-20 -88h-120c-5 -26 -33 -126 -62 -170c31 -24 64 -44 114 -44s76 41 96 114h120
c-26 -118 -80 -228 -231 -228c-68 0 -98 10 -174 65c-62 -46 -98 -65 -155 -65l27 122c62 2 107 70 128 162c3 14 5 28 6 44z" />
    <glyph glyph-name="fraction" unicode="&#x2044;" horiz-adv-x="167" 
d="M-169 -10l569 742h96l-569 -742h-96z" />
    <glyph glyph-name="yen" unicode="&#xa5;" horiz-adv-x="556" 
d="M599 452l-19 -88h-126l-48 -72h158l-20 -88h-162l-45 -204h-118l45 204h-162l20 88h158l-16 72h-126l19 88h86l-65 270h122l69 -322l207 322h122l-185 -270h86z" />
    <glyph glyph-name="florin" unicode="&#x192;" horiz-adv-x="556" 
d="M-14 -181l39 103c10 -6 32 -12 49 -12c28 0 57 20 84 85l153 371h-98l20 88h119c80 204 142 278 256 278c27 0 50 -5 72 -12l-41 -100c-9 5 -25 10 -41 10c-45 -2 -76 -44 -124 -176h99l-20 -88h-116l-137 -329c-47 -112 -108 -229 -244 -229c-24 0 -49 2 -70 11z" />
    <glyph glyph-name="section" unicode="&#xa7;" 
d="M547 652l-80 -54c-16 25 -36 50 -71 50c-27 0 -51 -18 -57 -42c-17 -78 200 -196 170 -331c-15 -66 -71 -103 -134 -114c23 -32 36 -72 26 -117c-19 -83 -97 -128 -173 -128c-85 0 -111 37 -142 85l80 53c8 -28 34 -54 78 -54c27 0 55 18 62 48c18 84 -195 220 -171 326
c20 90 69 120 133 130c-22 36 -33 65 -22 112c14 64 82 116 159 116c69 0 110 -25 142 -80zM412 271c4 17 -5 34 -47 92c-34 50 -64 75 -81 75c-20 0 -41 -15 -47 -37c-4 -19 3 -42 41 -94c41 -57 67 -80 85 -80c25 0 44 20 49 44z" />
    <glyph glyph-name="currency" unicode="&#xa4;" horiz-adv-x="556" 
d="M572 160l-70 -58l-45 58c-38 -31 -97 -49 -154 -49s-108 18 -134 49l-69 -58l-46 58l69 56c-21 35 -25 89 -13 145s40 110 77 145l-43 56l70 58l45 -58c38 31 97 49 154 49s108 -18 134 -49l69 58l46 -58l-69 -56c21 -35 25 -89 13 -145s-40 -110 -77 -145zM494 361
c18 82 -18 148 -103 148s-151 -66 -169 -148s18 -148 103 -148s151 66 169 148z" />
    <glyph glyph-name="quotesingle" unicode="'" horiz-adv-x="222" 
d="M156 452l60 270h110l-60 -270h-110z" />
    <glyph glyph-name="quotedblleft" unicode="&#x201c;" horiz-adv-x="444" 
d="M335 732l-84 -148h60l-31 -142h-142l31 142l96 148h70zM557 732l-84 -148h60l-31 -142h-142l31 142l96 148h70z" />
    <glyph glyph-name="guillemotleft" unicode="&#xab;" horiz-adv-x="556" 
d="M411 112l-87 160l158 160h110l-158 -160l87 -160h-110zM207 112l-87 160l158 160h110l-158 -160l87 -160h-110z" />
    <glyph glyph-name="guilsinglleft" unicode="&#x2039;" horiz-adv-x="333" 
d="M98 272l158 160h110l-158 -160l87 -160h-110z" />
    <glyph glyph-name="guilsinglright" unicode="&#x203a;" horiz-adv-x="333" 
d="M355 272l-157 -160h-110l157 160l-86 160h110z" />
    <glyph glyph-name="endash" unicode="&#x2013;" 
d="M551 230h-500l19 84h500z" />
    <glyph glyph-name="dagger" unicode="&#x2020;" 
d="M170 467l21 96l156 -27l17 196h96l-69 -196l168 27l-21 -96l-153 27l-13 -170c-39 -114 -82 -268 -119 -398h-38c19 130 46 284 57 398l63 170z" />
    <glyph glyph-name="daggerdbl" unicode="&#x2021;" 
d="M273 329l64 177l-165 -27l21 96l156 -27l15 184h96l-67 -184l168 27l-21 -96l-153 27l-14 -177l-64 -177l165 27l-22 -96l-156 27l-14 -184h-96l66 184l-168 -27l22 96l153 -27z" />
    <glyph glyph-name="periodcentered" unicode="&#xb7;" horiz-adv-x="278" 
d="M216 348c45 0 68 -37 59 -76c-8 -39 -48 -76 -93 -76s-67 37 -59 76c9 39 48 76 93 76z" />
    <glyph glyph-name="paragraph" unicode="&#xb6;" horiz-adv-x="556" 
d="M171 -84l101 454c-112 0 -165 66 -142 173c27 119 102 179 254 179h322l-19 -84h-68l-160 -722h-110l160 722h-68l-160 -722h-110z" />
    <glyph glyph-name="bullet" unicode="&#x2022;" 
d="M149 361c22 100 120 180 220 180s163 -80 141 -180s-121 -181 -221 -181s-162 81 -140 181z" />
    <glyph glyph-name="quotesinglbase" unicode="&#x201a;" horiz-adv-x="222" 
d="M16 -148l84 148h-60l31 142h142l-31 -142l-96 -148h-70z" />
    <glyph glyph-name="quotedblbase" unicode="&#x201e;" horiz-adv-x="444" 
d="M16 -148l84 148h-60l31 142h142l-31 -142l-96 -148h-70zM238 -148l84 148h-60l31 142h142l-31 -142l-96 -148h-70z" />
    <glyph glyph-name="quotedblright" unicode="&#x201d;" horiz-adv-x="444" 
d="M145 432l84 148h-60l31 142h142l-31 -142l-96 -148h-70zM367 432l84 148h-60l31 142h142l-31 -142l-96 -148h-70z" />
    <glyph glyph-name="guillemotright" unicode="&#xbb;" horiz-adv-x="556" 
d="M352 272l-157 -160h-110l157 160l-86 160h110zM556 272l-157 -160h-110l157 160l-86 160h110z" />
    <glyph glyph-name="ellipsis" unicode="&#x2026;" horiz-adv-x="1000" 
d="M238 0h-142l31 142h142zM904 0h-142l31 142h142zM571 0h-142l31 142h142z" />
    <glyph glyph-name="perthousand" unicode="&#x2030;" horiz-adv-x="1000" 
d="M322 722c82 0 133 -67 115 -148s-99 -148 -181 -148s-133 67 -115 148s99 148 181 148zM304 640c-38 0 -73 -29 -81 -66s14 -66 52 -66s72 29 80 66s-13 66 -51 66zM524 214c-38 0 -72 -29 -80 -66s13 -66 51 -66s73 29 81 66s-14 66 -52 66zM543 296
c82 0 133 -67 115 -148s-99 -148 -181 -148s-133 67 -115 148s99 148 181 148zM885 214c-38 0 -72 -29 -80 -66s13 -66 51 -66s73 29 81 66s-14 66 -52 66zM904 296c82 0 133 -67 115 -148s-99 -148 -181 -148s-133 67 -115 148s99 148 181 148zM74 -10l572 742h77
l-572 -742h-77z" />
    <glyph glyph-name="questiondown" unicode="&#xbf;" horiz-adv-x="444" 
d="M319 2l108 -32c-47 -99 -134 -158 -236 -158c-95 0 -174 59 -149 170c10 46 57 94 103 141c46 46 92 91 101 131l11 50h110l-21 -98c-11 -48 -167 -176 -180 -234c-8 -34 18 -58 50 -58c41 0 91 44 103 88zM295 544h142l-32 -142h-142z" />
    <glyph glyph-name="grave" unicode="`" horiz-adv-x="278" 
d="M144 756h155l60 -146h-101z" />
    <glyph glyph-name="acute" unicode="&#xb4;" horiz-adv-x="278" 
d="M315 756h155l-180 -146h-101z" />
    <glyph glyph-name="circumflex" unicode="&#x2c6;" horiz-adv-x="278" 
d="M244 756h126l81 -146h-113l-46 82l-82 -82h-113z" />
    <glyph glyph-name="tilde" unicode="&#x2dc;" horiz-adv-x="278" 
d="M422 744h65c-27 -63 -66 -121 -138 -121c-54 0 -94 35 -139 35c-25 0 -44 -19 -54 -42h-63c24 63 71 122 142 122c53 0 98 -37 130 -37c24 0 47 19 57 43z" />
    <glyph glyph-name="macron" unicode="&#xaf;" horiz-adv-x="278" 
d="M455 640h-348l16 74h348z" />
    <glyph glyph-name="breve" unicode="&#x2d8;" horiz-adv-x="278" 
d="M408 754h66c-35 -100 -108 -146 -207 -146c-95 0 -143 49 -129 146h64c-6 -56 40 -70 89 -70c53 0 95 15 117 70z" />
    <glyph glyph-name="dotaccent" unicode="&#x2d9;" horiz-adv-x="278" 
d="M241 732h120l-25 -114h-120z" />
    <glyph glyph-name="dieresis" unicode="&#xa8;" horiz-adv-x="278" 
d="M146 732h120l-25 -114h-120zM336 732h120l-25 -114h-120z" />
    <glyph glyph-name="ring" unicode="&#x2da;" horiz-adv-x="278" 
d="M272 604c-59 0 -95 48 -82 107c12 58 70 107 129 107c58 0 97 -49 85 -107c-13 -59 -74 -107 -132 -107zM307 764c-30 0 -57 -24 -63 -53c-7 -30 10 -53 40 -53c29 0 59 23 66 53c6 29 -14 53 -43 53z" />
    <glyph glyph-name="cedilla" unicode="&#xb8;" horiz-adv-x="278" 
d="M-43 -203l28 42c23 -8 47 -17 72 -17c24 0 58 10 64 39c5 22 -11 37 -33 37c-16 0 -30 -4 -46 -8l-17 20l79 90h53l-56 -61l2 -2c10 6 22 7 33 7c45 0 83 -30 72 -78c-15 -68 -90 -94 -148 -94c-38 0 -71 11 -103 25z" />
    <glyph glyph-name="hungarumlaut" unicode="&#x2dd;" horiz-adv-x="278" 
d="M227 756h151l-174 -146h-97zM407 756h155l-180 -146h-101z" />
    <glyph glyph-name="ogonek" unicode="&#x2db;" horiz-adv-x="278" 
d="M263 21l-3 -12c-57 -20 -155 -58 -170 -125c-7 -33 13 -52 42 -52c32 0 76 26 105 43l13 -34c-52 -30 -108 -59 -164 -59c-57 0 -97 31 -84 91c23 105 179 135 261 148z" />
    <glyph glyph-name="caron" unicode="&#x2c7;" horiz-adv-x="278" 
d="M337 610h-126l-81 146h113l45 -82l83 82h113z" />
    <glyph glyph-name="emdash" unicode="&#x2014;" horiz-adv-x="1000" 
d="M1051 230h-1000l19 84h1000z" />
    <glyph glyph-name="AE" unicode="&#xc6;" horiz-adv-x="1000" 
d="M602 612l-226 -314h174l70 314h-18zM162 0h-148l530 722h532l-27 -122h-294l-37 -166h221l-27 -122h-221l-42 -190h306l-27 -122h-444l39 176h-236z" />
    <glyph glyph-name="ordfeminine" unicode="&#xaa;" horiz-adv-x="300" 
d="M245 627h-90c12 41 35 66 62 82c31 18 62 23 96 23c88 0 112 -40 99 -99l-46 -207c-2 -9 -2 -18 -1 -26h-86c-1 8 1 19 2 32c-25 -22 -62 -38 -103 -38c-49 0 -75 25 -63 78c16 76 102 110 202 138l5 22c4 19 -4 30 -27 30c-25 0 -46 -16 -50 -35zM291 490l12 58
c-44 -16 -89 -33 -95 -63c-4 -18 8 -25 22 -25c25 0 45 12 61 30z" />
    <glyph glyph-name="Lslash" unicode="&#x141;" horiz-adv-x="444" 
d="M270 316l-43 -194h222l-27 -122h-360l58 260l-68 -25l26 116l67 25l77 346h138l-64 -290l177 66l-26 -116z" />
    <glyph glyph-name="Oslash" unicode="&#xd8;" horiz-adv-x="556" 
d="M248 262l232 316c-10 24 -34 32 -67 32c-55 0 -95 -22 -112 -102l-55 -246h2zM462 433l-220 -299c10 -16 33 -22 61 -22c55 0 95 22 112 102l49 219h-2zM617 770h104l-104 -140c11 -36 10 -82 -2 -140l-58 -258c-39 -178 -147 -242 -281 -242c-45 0 -85 7 -115 25
l-68 -93h-104l115 156c-16 37 -17 87 -3 154l58 258c39 178 147 242 281 242c50 0 93 -9 126 -30z" />
    <glyph glyph-name="OE" unicode="&#x152;" horiz-adv-x="944" 
d="M293 436l-34 -150c-29 -132 0 -174 104 -174c89 0 122 46 141 130l52 238c19 84 6 130 -83 130c-104 0 -151 -42 -180 -174zM721 600l-37 -166h223l-27 -122h-223l-42 -190h306l-27 -122h-413c-35 0 -59 -2 -85 -5c-26 -2 -52 -5 -93 -5c-149 0 -224 105 -184 283l42 191
c40 182 175 268 343 268c48 0 81 -2 112 -5c31 -2 60 -5 102 -5h327l-27 -122h-297z" />
    <glyph glyph-name="ordmasculine" unicode="&#xba;" horiz-adv-x="300" 
d="M135 518l20 91c19 86 75 123 157 123c81 0 122 -37 103 -123l-20 -91c-19 -87 -77 -124 -158 -124c-82 0 -121 37 -102 124zM247 620l-25 -114c-5 -25 3 -38 32 -38c28 0 43 13 48 38l25 114c6 25 -3 38 -31 38c-29 0 -44 -13 -49 -38z" />
    <glyph glyph-name="ae" unicode="&#xe6;" horiz-adv-x="778" 
d="M346 134l29 132c-74 -26 -159 -68 -172 -125c-8 -36 10 -57 44 -57c38 0 69 20 99 50zM770 242h-274l-16 -72c-12 -54 14 -78 56 -78c53 0 82 34 91 76h126c-31 -112 -112 -178 -239 -178c-90 0 -134 45 -150 70c-98 -64 -146 -70 -195 -70c-76 0 -116 42 -96 130
c28 126 160 180 320 227l9 40c10 47 -8 65 -44 65c-38 0 -76 -28 -85 -67h-126c36 121 139 169 224 169c63 0 108 -24 130 -62c40 36 93 62 148 62c107 0 173 -74 149 -185zM518 344h148l7 30c11 48 -6 78 -57 78s-80 -30 -91 -78z" />
    <glyph glyph-name="dotlessi" unicode="&#x131;" horiz-adv-x="278" 
d="M202 0h-126l121 544h126z" />
    <glyph glyph-name="lslash" unicode="&#x142;" horiz-adv-x="278" 
d="M286 377l-84 -377h-126l69 313l-82 -37l21 94l82 37l70 315h126l-56 -251l83 37l-21 -94z" />
    <glyph glyph-name="oslash" unicode="&#xf8;" 
d="M224 209l168 223c-10 8 -26 12 -44 12c-44 0 -78 -22 -88 -64l-38 -171h2zM392 317l-157 -209c9 -5 21 -8 37 -8c44 0 79 22 88 64l34 153h-2zM157 6l-89 -118h-89l125 164c-21 33 -25 80 -11 144l34 152c32 144 120 206 246 206c39 0 71 -6 98 -19l72 95h89l-111 -146
c17 -32 19 -77 6 -136l-34 -152c-31 -144 -119 -206 -245 -206c-36 0 -67 5 -91 16z" />
    <glyph glyph-name="oe" unicode="&#x153;" horiz-adv-x="778" 
d="M260 380l-48 -216c-9 -42 16 -64 60 -64s79 22 88 64l48 216c10 42 -16 64 -60 64s-78 -22 -88 -64zM782 242h-278l-16 -72c-12 -54 18 -78 60 -78c53 0 82 34 91 76h126c-31 -112 -112 -178 -239 -178c-62 0 -105 30 -124 72c-38 -42 -91 -72 -160 -72
c-120 0 -180 62 -149 206l34 152c32 144 120 206 240 206c69 0 109 -30 128 -72c38 42 94 72 162 72c111 0 177 -74 153 -185zM526 344h152l7 30c11 48 -6 78 -57 78s-84 -30 -95 -78z" />
    <glyph glyph-name="germandbls" unicode="&#xdf;" 
d="M186 0h-126l116 523c26 118 86 199 233 199c115 0 163 -71 135 -201c-11 -48 -45 -104 -94 -128c64 -39 72 -101 50 -201c-30 -133 -108 -202 -193 -202c-25 0 -49 5 -70 15l25 114c11 -6 24 -9 38 -9c38 0 62 29 77 99c17 76 13 125 -66 125l23 102c45 2 78 34 90 88
c11 51 3 88 -46 88c-39 0 -63 -28 -69 -59z" />
    <glyph glyph-name="onesuperior" unicode="&#xb9;" horiz-adv-x="333" 
d="M208 292l73 330h-67l12 54c65 12 84 30 107 56h62l-97 -440h-90z" />
    <glyph glyph-name="logicalnot" unicode="&#xac;" horiz-adv-x="600" 
d="M470 89l54 244h-422l27 122h544l-81 -366h-122z" />
    <glyph glyph-name="mu" unicode="&#xb5;" 
d="M435 544h126l-121 -544h-122l14 62c-51 -37 -98 -68 -148 -72l-41 -182h-126l164 736h126l-89 -400c-8 -36 -1 -60 33 -60c26 0 60 25 92 49z" />
    <glyph glyph-name="trademark" unicode="&#x2122;" horiz-adv-x="1000" 
d="M752 722l39 -250l148 250h153l-91 -412h-106l62 280h-2l-160 -280h-81l-36 280h-2l-62 -280h-106l91 412h153zM533 722l-19 -84h-115l-72 -328h-112l72 328h-114l19 84h341z" />
    <glyph glyph-name="Eth" unicode="&#xd0;" horiz-adv-x="556" 
d="M77 312l27 122h54l64 288h192c158 0 231 -68 197 -250l-50 -222c-46 -182 -149 -250 -307 -250h-192l69 312h-54zM384 434l-27 -122h-88l-42 -190h48c76 0 128 36 152 144l42 190c23 102 -2 144 -88 144h-48l-37 -166h88z" />
    <glyph glyph-name="onehalf" unicode="&#xbd;" horiz-adv-x="834" 
d="M212 292l73 330h-67l12 54c65 12 84 30 107 56h62l-97 -440h-90zM791 0h-296l17 75c218 161 255 192 265 237c7 29 -5 54 -46 54c-44 0 -68 -25 -74 -51l-4 -16h-90l5 21c14 63 82 120 173 120c92 0 145 -43 127 -126c-23 -100 -159 -177 -240 -240h179zM133 -10l569 742
h96l-569 -742h-96z" />
    <glyph glyph-name="plusminus" unicode="&#xb1;" horiz-adv-x="600" 
d="M330 410l30 134h122l-30 -134h211l-27 -122h-211l-30 -134h-122l30 134h-211l27 122h211zM28 0l27 122h544l-27 -122h-544z" />
    <glyph glyph-name="Thorn" unicode="&#xde;" horiz-adv-x="556" 
d="M208 0h-138l160 722h138l-29 -132h61c170 0 235 -80 205 -216s-131 -216 -301 -216h-61zM314 476l-46 -204h74c68 0 110 34 125 102s-11 102 -79 102h-74z" />
    <glyph glyph-name="onequarter" unicode="&#xbc;" horiz-adv-x="834" 
d="M581 184h102l29 131h-2zM485 184l254 249h89l-55 -249h66l-16 -70h-66l-25 -114h-90l25 114h-198zM212 292l73 330h-67l12 54c65 12 84 30 107 56h62l-97 -440h-90zM151 -10l569 742h96l-569 -742h-96z" />
    <glyph glyph-name="divide" unicode="&#xf7;" horiz-adv-x="600" 
d="M619 211h-544l27 122h544zM314 495c11 52 65 95 117 95c50 0 84 -44 73 -95c-11 -48 -65 -95 -114 -95c-53 0 -88 43 -76 95zM215 49c12 53 65 95 117 95c50 0 84 -43 73 -95c-11 -47 -65 -95 -114 -95c-53 0 -87 44 -76 95z" />
    <glyph glyph-name="brokenbar" unicode="&#xa6;" horiz-adv-x="460" 
d="M261 754h101v-391h-101v391zM261 195h101v-389h-101v389z" />
    <glyph glyph-name="degree" unicode="&#xb0;" horiz-adv-x="400" 
d="M311 502c48 0 91 39 102 87c10 48 -15 87 -63 87s-91 -39 -101 -87c-11 -48 14 -87 62 -87zM299 446c-81 0 -130 63 -112 143c17 80 94 143 175 143s130 -63 113 -143c-18 -80 -95 -143 -176 -143z" />
    <glyph glyph-name="thorn" unicode="&#xfe;" 
d="M279 421l-66 -298c19 -27 40 -39 68 -39c34 0 66 22 90 130l26 116c24 108 1 130 -33 130c-28 0 -54 -12 -85 -39zM220 722h124l-52 -234h2c20 24 85 66 141 66c98 0 121 -76 90 -216l-29 -132c-31 -140 -88 -216 -186 -216c-34 0 -63 16 -113 60l-54 -242h-126z" />
    <glyph glyph-name="threequarters" unicode="&#xbe;" horiz-adv-x="834" 
d="M581 184h102l29 131h-2zM485 184l254 249h89l-55 -249h66l-16 -70h-66l-25 -114h-90l25 114h-198zM129 420h90c-9 -42 6 -60 52 -60c41 0 70 24 78 60c11 48 -16 64 -77 64l17 74c55 0 82 13 91 54c5 24 -11 46 -46 46c-30 0 -56 -21 -63 -49h-90c10 42 33 73 63 93
s68 30 107 30c84 0 136 -41 119 -117c-8 -38 -36 -77 -77 -95c46 -18 56 -55 45 -104c-19 -86 -98 -130 -182 -130c-106 0 -145 53 -127 134zM171 -10l569 742h96l-569 -742h-96z" />
    <glyph glyph-name="twosuperior" unicode="&#xb2;" horiz-adv-x="333" 
d="M376 292h-296l16 75c219 161 256 192 266 237c6 29 -5 54 -46 54c-44 0 -69 -25 -74 -51l-4 -16h-90l5 21c14 63 81 120 172 120c92 0 146 -43 127 -126c-22 -100 -158 -177 -239 -240h179z" />
    <glyph glyph-name="registered" unicode="&#xae;" horiz-adv-x="800" 
d="M409 325l-37 -167h-88l90 407h153c106 0 161 -30 140 -123c-17 -75 -67 -104 -125 -108l55 -176h-97l-50 167h-41zM446 493l-21 -96h77c49 0 66 13 75 54c7 31 -9 42 -69 42h-62zM398 -10c-200 0 -353 138 -301 371s265 371 465 371s353 -138 301 -371
s-265 -371 -465 -371zM749 361c37 168 -59 283 -206 283c-150 0 -295 -115 -332 -283s56 -283 206 -283c147 0 295 115 332 283z" />
    <glyph glyph-name="minus" unicode="&#x2212;" horiz-adv-x="600" 
d="M619 211h-544l27 122h544z" />
    <glyph glyph-name="eth" unicode="&#xf0;" 
d="M254 350l-43 -190c-8 -39 17 -60 61 -60s79 21 87 60l43 190c8 40 -17 60 -61 60s-79 -20 -87 -60zM333 708l121 14c8 -12 16 -24 24 -37l116 37l14 -74l-98 -32c31 -87 36 -184 12 -290l-31 -143c-30 -135 -117 -193 -243 -193s-187 58 -157 193l31 143
c30 135 117 194 243 194c14 0 25 0 42 -4c0 22 -4 43 -10 64l-119 -38l-13 74l102 33c-11 20 -22 39 -34 59z" />
    <glyph glyph-name="multiply" unicode="&#xd7;" horiz-adv-x="600" 
d="M275 273l-145 186l106 85l144 -185l227 185l67 -85l-228 -187l145 -186l-105 -86l-145 186l-226 -186l-68 86l227 186z" />
    <glyph glyph-name="threesuperior" unicode="&#xb3;" horiz-adv-x="333" 
d="M103 420h90c-9 -42 6 -60 52 -60c41 0 70 24 78 60c11 48 -16 64 -77 64l17 74c55 0 82 13 91 54c5 24 -11 46 -46 46c-30 0 -56 -21 -63 -49h-90c10 42 33 73 63 93s68 30 107 30c84 0 136 -41 119 -117c-8 -38 -36 -77 -77 -95c46 -18 56 -55 45 -104
c-19 -86 -98 -130 -182 -130c-106 0 -145 53 -127 134z" />
    <glyph glyph-name="copyright" unicode="&#xa9;" horiz-adv-x="800" 
d="M398 -10c-200 0 -353 138 -301 371s265 371 465 371s353 -138 301 -371s-265 -371 -465 -371zM749 361c37 168 -59 283 -206 283c-150 0 -295 -115 -332 -283s56 -283 206 -283c147 0 295 115 332 283zM572 305h90c-39 -102 -128 -157 -214 -157c-126 0 -186 94 -159 216
c27 124 125 216 253 216c89 0 149 -52 143 -152h-86c1 46 -34 64 -77 64c-65 0 -112 -49 -129 -126c-16 -74 12 -130 74 -130c49 0 89 21 105 69z" />
    <glyph glyph-name="Aacute" unicode="&#xc1;" horiz-adv-x="556" 
d="M403 566l-132 -292h137l-3 292h-2zM146 0h-133l339 722h177l14 -722h-132l-1 152h-191zM488 909h155l-180 -146h-101z" />
    <glyph glyph-name="Acircumflex" unicode="&#xc2;" horiz-adv-x="556" 
d="M403 566l-132 -292h137l-3 292h-2zM146 0h-133l339 722h177l14 -722h-132l-1 152h-191zM417 909h126l81 -146h-113l-46 82l-82 -82h-113z" />
    <glyph glyph-name="Adieresis" unicode="&#xc4;" horiz-adv-x="556" 
d="M403 566l-132 -292h137l-3 292h-2zM146 0h-133l339 722h177l14 -722h-132l-1 152h-191zM319 885h120l-25 -114h-120zM509 885h120l-25 -114h-120z" />
    <glyph glyph-name="Agrave" unicode="&#xc0;" horiz-adv-x="556" 
d="M403 566l-132 -292h137l-3 292h-2zM146 0h-133l339 722h177l14 -722h-132l-1 152h-191zM317 909h155l60 -146h-101z" />
    <glyph glyph-name="Aring" unicode="&#xc5;" horiz-adv-x="556" 
d="M403 566l-132 -292h137l-3 292h-2zM146 0h-133l339 722h177l14 -722h-132l-1 152h-191zM445 757c-59 0 -96 48 -82 107c12 58 70 107 129 107c58 0 97 -49 85 -107c-14 -59 -74 -107 -132 -107zM480 917c-30 0 -57 -24 -63 -53c-7 -30 10 -53 40 -53c29 0 59 23 66 53
c6 29 -14 53 -43 53z" />
    <glyph glyph-name="Atilde" unicode="&#xc3;" horiz-adv-x="556" 
d="M403 566l-132 -292h137l-3 292h-2zM146 0h-133l339 722h177l14 -722h-132l-1 152h-191zM595 897h65c-27 -63 -66 -121 -138 -121c-54 0 -94 35 -139 35c-25 0 -44 -19 -55 -42h-63c24 63 72 122 143 122c53 0 98 -37 130 -37c24 0 47 19 57 43z" />
    <glyph glyph-name="Ccedilla" unicode="&#xc7;" horiz-adv-x="556" 
d="M301 508l-66 -294c-17 -80 13 -102 68 -102s95 22 112 102l11 48h138l-7 -30c-38 -173 -141 -238 -270 -242l-47 -51l2 -2c10 6 22 7 33 7c45 0 83 -30 72 -78c-15 -68 -90 -94 -148 -94c-38 0 -71 11 -103 25l28 42c23 -8 47 -17 72 -17c24 0 58 10 64 39
c5 22 -11 37 -33 37c-16 0 -30 -4 -46 -8l-17 20l72 82c-109 12 -170 80 -135 240l58 258c39 178 147 242 281 242s214 -64 175 -242l-1 -2h-138l5 20c17 80 -13 102 -68 102s-95 -22 -112 -102z" />
    <glyph glyph-name="Eacute" unicode="&#xc9;" 
d="M450 0h-388l160 722h378l-27 -122h-240l-37 -166h183l-27 -122h-183l-42 -190h250zM460 909h155l-180 -146h-101z" />
    <glyph glyph-name="Ecircumflex" unicode="&#xca;" 
d="M450 0h-388l160 722h378l-27 -122h-240l-37 -166h183l-27 -122h-183l-42 -190h250zM389 909h126l81 -146h-113l-46 82l-82 -82h-113z" />
    <glyph glyph-name="Edieresis" unicode="&#xcb;" 
d="M450 0h-388l160 722h378l-27 -122h-240l-37 -166h183l-27 -122h-183l-42 -190h250zM291 885h120l-25 -114h-120zM481 885h120l-25 -114h-120z" />
    <glyph glyph-name="Egrave" unicode="&#xc8;" 
d="M450 0h-388l160 722h378l-27 -122h-240l-37 -166h183l-27 -122h-183l-42 -190h250zM289 909h155l60 -146h-101z" />
    <glyph glyph-name="Iacute" unicode="&#xcd;" horiz-adv-x="278" 
d="M208 0h-138l160 722h138zM349 909h155l-180 -146h-101z" />
    <glyph glyph-name="Icircumflex" unicode="&#xce;" horiz-adv-x="278" 
d="M208 0h-138l160 722h138zM278 909h126l81 -146h-113l-46 82l-82 -82h-113z" />
    <glyph glyph-name="Idieresis" unicode="&#xcf;" horiz-adv-x="278" 
d="M208 0h-138l160 722h138zM180 885h120l-25 -114h-120zM370 885h120l-25 -114h-120z" />
    <glyph glyph-name="Igrave" unicode="&#xcc;" horiz-adv-x="278" 
d="M208 0h-138l160 722h138zM178 909h155l60 -146h-101z" />
    <glyph glyph-name="Ntilde" unicode="&#xd1;" horiz-adv-x="611" 
d="M196 0h-126l160 722h151l97 -428h2l95 428h126l-160 -722h-132l-108 466h-2zM623 897h65c-27 -63 -66 -121 -138 -121c-54 0 -94 35 -139 35c-25 0 -44 -19 -55 -42h-63c24 63 72 122 143 122c53 0 98 -37 130 -37c24 0 47 19 57 43z" />
    <glyph glyph-name="Oacute" unicode="&#xd3;" horiz-adv-x="556" 
d="M101 232l58 258c39 178 147 242 281 242s214 -64 175 -242l-58 -258c-39 -178 -147 -242 -281 -242s-214 64 -175 242zM301 508l-66 -294c-17 -80 13 -102 68 -102s95 22 112 102l66 294c17 80 -13 102 -68 102s-95 -22 -112 -102zM488 909h155l-180 -146h-101z" />
    <glyph glyph-name="Ocircumflex" unicode="&#xd4;" horiz-adv-x="556" 
d="M101 232l58 258c39 178 147 242 281 242s214 -64 175 -242l-58 -258c-39 -178 -147 -242 -281 -242s-214 64 -175 242zM301 508l-66 -294c-17 -80 13 -102 68 -102s95 22 112 102l66 294c17 80 -13 102 -68 102s-95 -22 -112 -102zM417 909h126l81 -146h-113l-46 82
l-82 -82h-113z" />
    <glyph glyph-name="Odieresis" unicode="&#xd6;" horiz-adv-x="556" 
d="M101 232l58 258c39 178 147 242 281 242s214 -64 175 -242l-58 -258c-39 -178 -147 -242 -281 -242s-214 64 -175 242zM301 508l-66 -294c-17 -80 13 -102 68 -102s95 22 112 102l66 294c17 80 -13 102 -68 102s-95 -22 -112 -102zM319 885h120l-25 -114h-120zM509 885
h120l-25 -114h-120z" />
    <glyph glyph-name="Ograve" unicode="&#xd2;" horiz-adv-x="556" 
d="M101 232l58 258c39 178 147 242 281 242s214 -64 175 -242l-58 -258c-39 -178 -147 -242 -281 -242s-214 64 -175 242zM301 508l-66 -294c-17 -80 13 -102 68 -102s95 22 112 102l66 294c17 80 -13 102 -68 102s-95 -22 -112 -102zM317 909h155l60 -146h-101z" />
    <glyph glyph-name="Otilde" unicode="&#xd5;" horiz-adv-x="556" 
d="M101 232l58 258c39 178 147 242 281 242s214 -64 175 -242l-58 -258c-39 -178 -147 -242 -281 -242s-214 64 -175 242zM301 508l-66 -294c-17 -80 13 -102 68 -102s95 22 112 102l66 294c17 80 -13 102 -68 102s-95 -22 -112 -102zM595 897h65
c-27 -63 -66 -121 -138 -121c-54 0 -94 35 -139 35c-25 0 -44 -19 -55 -42h-63c24 63 72 122 143 122c53 0 98 -37 130 -37c24 0 47 19 57 43z" />
    <glyph glyph-name="Scaron" unicode="&#x160;" horiz-adv-x="556" 
d="M614 557l-131 -36c-8 68 -32 97 -80 97c-49 0 -83 -30 -94 -79c-24 -109 283 -117 232 -343c-27 -124 -130 -206 -275 -206c-112 0 -186 61 -191 203l142 29c-3 -87 40 -118 81 -118c48 0 92 32 104 86c30 136 -277 138 -233 340c28 124 119 202 262 202
c123 0 182 -73 183 -175zM510 763h-126l-81 146h113l45 -82l83 82h113z" />
    <glyph glyph-name="Uacute" unicode="&#xda;" horiz-adv-x="611" 
d="M230 722h138l-112 -505c-15 -69 7 -105 74 -105s106 36 121 105l112 505h138l-112 -506c-35 -159 -144 -226 -286 -226s-220 67 -185 226zM516 909h155l-180 -146h-101z" />
    <glyph glyph-name="Ucircumflex" unicode="&#xdb;" horiz-adv-x="611" 
d="M230 722h138l-112 -505c-15 -69 7 -105 74 -105s106 36 121 105l112 505h138l-112 -506c-35 -159 -144 -226 -286 -226s-220 67 -185 226zM445 909h126l81 -146h-113l-46 82l-82 -82h-113z" />
    <glyph glyph-name="Udieresis" unicode="&#xdc;" horiz-adv-x="611" 
d="M230 722h138l-112 -505c-15 -69 7 -105 74 -105s106 36 121 105l112 505h138l-112 -506c-35 -159 -144 -226 -286 -226s-220 67 -185 226zM347 885h120l-25 -114h-120zM537 885h120l-25 -114h-120z" />
    <glyph glyph-name="Ugrave" unicode="&#xd9;" horiz-adv-x="611" 
d="M230 722h138l-112 -505c-15 -69 7 -105 74 -105s106 36 121 105l112 505h138l-112 -506c-35 -159 -144 -226 -286 -226s-220 67 -185 226zM345 909h155l60 -146h-101z" />
    <glyph glyph-name="Yacute" unicode="&#xdd;" horiz-adv-x="556" 
d="M319 722l57 -291l181 291h147l-292 -430l-65 -292h-138l65 292l-102 430h147zM488 909h155l-180 -146h-101z" />
    <glyph glyph-name="Ydieresis" unicode="&#x178;" horiz-adv-x="556" 
d="M319 722l57 -291l181 291h147l-292 -430l-65 -292h-138l65 292l-102 430h147zM319 885h120l-25 -114h-120zM509 885h120l-25 -114h-120z" />
    <glyph glyph-name="Zcaron" unicode="&#x17d;" 
d="M194 600l27 122h400l-26 -116l-380 -484h279l-27 -122h-434l26 117l380 483h-245zM482 763h-126l-81 146h113l45 -82l83 82h113z" />
    <glyph glyph-name="aacute" unicode="&#xe1;" 
d="M259 385h-126c19 61 53 103 96 130c42 27 94 39 144 39c134 0 170 -68 148 -165l-76 -345c-4 -15 -4 -30 -3 -44h-126c0 14 2 31 3 53c-45 -37 -101 -63 -164 -63c-76 0 -116 42 -96 130c28 126 160 180 327 227l9 40c10 47 -15 65 -51 65c-38 0 -76 -28 -85 -67z
M339 134l29 132c-81 -26 -166 -68 -179 -125c-8 -36 10 -57 44 -57c38 0 69 20 106 50zM426 756h155l-180 -146h-101z" />
    <glyph glyph-name="acircumflex" unicode="&#xe2;" 
d="M259 385h-126c19 61 53 103 96 130c42 27 94 39 144 39c134 0 170 -68 148 -165l-76 -345c-4 -15 -4 -30 -3 -44h-126c0 14 2 31 3 53c-45 -37 -101 -63 -164 -63c-76 0 -116 42 -96 130c28 126 160 180 327 227l9 40c10 47 -15 65 -51 65c-38 0 -76 -28 -85 -67z
M339 134l29 132c-81 -26 -166 -68 -179 -125c-8 -36 10 -57 44 -57c38 0 69 20 106 50zM355 756h126l81 -146h-113l-46 82l-82 -82h-113z" />
    <glyph glyph-name="adieresis" unicode="&#xe4;" 
d="M259 385h-126c19 61 53 103 96 130c42 27 94 39 144 39c134 0 170 -68 148 -165l-76 -345c-4 -15 -4 -30 -3 -44h-126c0 14 2 31 3 53c-45 -37 -101 -63 -164 -63c-76 0 -116 42 -96 130c28 126 160 180 327 227l9 40c10 47 -15 65 -51 65c-38 0 -76 -28 -85 -67z
M339 134l29 132c-81 -26 -166 -68 -179 -125c-8 -36 10 -57 44 -57c38 0 69 20 106 50zM257 732h120l-25 -114h-120zM447 732h120l-25 -114h-120z" />
    <glyph glyph-name="agrave" unicode="&#xe0;" 
d="M259 385h-126c19 61 53 103 96 130c42 27 94 39 144 39c134 0 170 -68 148 -165l-76 -345c-4 -15 -4 -30 -3 -44h-126c0 14 2 31 3 53c-45 -37 -101 -63 -164 -63c-76 0 -116 42 -96 130c28 126 160 180 327 227l9 40c10 47 -15 65 -51 65c-38 0 -76 -28 -85 -67z
M339 134l29 132c-81 -26 -166 -68 -179 -125c-8 -36 10 -57 44 -57c38 0 69 20 106 50zM255 756h155l60 -146h-101z" />
    <glyph glyph-name="aring" unicode="&#xe5;" 
d="M259 385h-126c19 61 53 103 96 130c42 27 94 39 144 39c134 0 170 -68 148 -165l-76 -345c-4 -15 -4 -30 -3 -44h-126c0 14 2 31 3 53c-45 -37 -101 -63 -164 -63c-76 0 -116 42 -96 130c28 126 160 180 327 227l9 40c10 47 -15 65 -51 65c-38 0 -76 -28 -85 -67z
M339 134l29 132c-81 -26 -166 -68 -179 -125c-8 -36 10 -57 44 -57c38 0 69 20 106 50zM383 604c-59 0 -95 48 -82 107c12 58 70 107 129 107c58 0 97 -49 85 -107c-13 -59 -74 -107 -132 -107zM418 764c-30 0 -57 -24 -63 -53c-7 -30 10 -53 40 -53c29 0 59 23 66 53
c6 29 -14 53 -43 53z" />
    <glyph glyph-name="atilde" unicode="&#xe3;" 
d="M259 385h-126c19 61 53 103 96 130c42 27 94 39 144 39c134 0 170 -68 148 -165l-76 -345c-4 -15 -4 -30 -3 -44h-126c0 14 2 31 3 53c-45 -37 -101 -63 -164 -63c-76 0 -116 42 -96 130c28 126 160 180 327 227l9 40c10 47 -15 65 -51 65c-38 0 -76 -28 -85 -67z
M339 134l29 132c-81 -26 -166 -68 -179 -125c-8 -36 10 -57 44 -57c38 0 69 20 106 50zM533 744h65c-27 -63 -66 -121 -138 -121c-54 0 -94 35 -139 35c-25 0 -44 -19 -54 -42h-63c24 63 71 122 142 122c53 0 98 -37 130 -37c24 0 47 19 57 43z" />
    <glyph glyph-name="ccedilla" unicode="&#xe7;" 
d="M528 356h-125l5 24c10 42 -16 64 -60 64s-78 -22 -88 -64l-48 -216c-9 -42 16 -64 60 -64s79 22 88 64l8 34h126l-1 -2c-31 -140 -114 -202 -234 -206l-47 -51l2 -2c10 6 22 7 33 7c45 0 83 -30 72 -78c-15 -68 -90 -94 -148 -94c-38 0 -71 11 -103 25l28 42
c23 -8 47 -17 72 -17c24 0 58 10 64 39c5 22 -11 37 -33 37c-16 0 -30 -4 -46 -8l-17 20l72 82c-98 12 -143 76 -115 204l34 152c32 144 120 206 246 206c123 0 184 -60 155 -198z" />
    <glyph glyph-name="eacute" unicode="&#xe9;" 
d="M504 242h-274l-16 -72c-12 -54 14 -78 56 -78c53 0 82 34 91 76h126c-31 -112 -112 -178 -239 -178c-120 0 -184 74 -157 193l39 178c26 119 123 193 243 193c117 0 183 -74 159 -185zM252 344h148l7 30c11 48 -6 78 -57 78s-80 -30 -91 -78zM426 756h155l-180 -146h-101
z" />
    <glyph glyph-name="ecircumflex" unicode="&#xea;" 
d="M504 242h-274l-16 -72c-12 -54 14 -78 56 -78c53 0 82 34 91 76h126c-31 -112 -112 -178 -239 -178c-120 0 -184 74 -157 193l39 178c26 119 123 193 243 193c117 0 183 -74 159 -185zM252 344h148l7 30c11 48 -6 78 -57 78s-80 -30 -91 -78zM355 756h126l81 -146h-113
l-46 82l-82 -82h-113z" />
    <glyph glyph-name="edieresis" unicode="&#xeb;" 
d="M504 242h-274l-16 -72c-12 -54 14 -78 56 -78c53 0 82 34 91 76h126c-31 -112 -112 -178 -239 -178c-120 0 -184 74 -157 193l39 178c26 119 123 193 243 193c117 0 183 -74 159 -185zM252 344h148l7 30c11 48 -6 78 -57 78s-80 -30 -91 -78zM257 732h120l-25 -114h-120z
M447 732h120l-25 -114h-120z" />
    <glyph glyph-name="egrave" unicode="&#xe8;" 
d="M504 242h-274l-16 -72c-12 -54 14 -78 56 -78c53 0 82 34 91 76h126c-31 -112 -112 -178 -239 -178c-120 0 -184 74 -157 193l39 178c26 119 123 193 243 193c117 0 183 -74 159 -185zM252 344h148l7 30c11 48 -6 78 -57 78s-80 -30 -91 -78zM255 756h155l60 -146h-101z
" />
    <glyph glyph-name="iacute" unicode="&#xed;" horiz-adv-x="278" 
d="M202 0h-126l121 544h126zM315 756h155l-180 -146h-101z" />
    <glyph glyph-name="icircumflex" unicode="&#xee;" horiz-adv-x="278" 
d="M202 0h-126l121 544h126zM244 756h126l81 -146h-113l-46 82l-82 -82h-113z" />
    <glyph glyph-name="idieresis" unicode="&#xef;" horiz-adv-x="278" 
d="M202 0h-126l121 544h126zM146 732h120l-25 -114h-120zM336 732h120l-25 -114h-120z" />
    <glyph glyph-name="igrave" unicode="&#xec;" horiz-adv-x="278" 
d="M202 0h-126l121 544h126zM144 756h155l60 -146h-101z" />
    <glyph glyph-name="ntilde" unicode="&#xf1;" 
d="M186 0h-126l121 544h122l-14 -62c55 40 105 72 157 72c77 0 108 -39 86 -140l-92 -414h-126l89 400c8 36 1 60 -33 60c-26 0 -61 -25 -93 -49zM533 744h65c-27 -63 -66 -121 -138 -121c-54 0 -94 35 -139 35c-25 0 -44 -19 -54 -42h-63c24 63 71 122 142 122
c53 0 98 -37 130 -37c24 0 47 19 57 43z" />
    <glyph glyph-name="oacute" unicode="&#xf3;" 
d="M93 196l34 152c32 144 120 206 246 206s186 -62 154 -206l-34 -152c-31 -144 -119 -206 -245 -206s-186 62 -155 206zM260 380l-48 -216c-9 -42 16 -64 60 -64s79 22 88 64l48 216c10 42 -16 64 -60 64s-78 -22 -88 -64zM426 756h155l-180 -146h-101z" />
    <glyph glyph-name="ocircumflex" unicode="&#xf4;" 
d="M93 196l34 152c32 144 120 206 246 206s186 -62 154 -206l-34 -152c-31 -144 -119 -206 -245 -206s-186 62 -155 206zM260 380l-48 -216c-9 -42 16 -64 60 -64s79 22 88 64l48 216c10 42 -16 64 -60 64s-78 -22 -88 -64zM355 756h126l81 -146h-113l-46 82l-82 -82h-113z
" />
    <glyph glyph-name="odieresis" unicode="&#xf6;" 
d="M93 196l34 152c32 144 120 206 246 206s186 -62 154 -206l-34 -152c-31 -144 -119 -206 -245 -206s-186 62 -155 206zM260 380l-48 -216c-9 -42 16 -64 60 -64s79 22 88 64l48 216c10 42 -16 64 -60 64s-78 -22 -88 -64zM257 732h120l-25 -114h-120zM447 732h120
l-25 -114h-120z" />
    <glyph glyph-name="ograve" unicode="&#xf2;" 
d="M93 196l34 152c32 144 120 206 246 206s186 -62 154 -206l-34 -152c-31 -144 -119 -206 -245 -206s-186 62 -155 206zM260 380l-48 -216c-9 -42 16 -64 60 -64s79 22 88 64l48 216c10 42 -16 64 -60 64s-78 -22 -88 -64zM255 756h155l60 -146h-101z" />
    <glyph glyph-name="otilde" unicode="&#xf5;" 
d="M93 196l34 152c32 144 120 206 246 206s186 -62 154 -206l-34 -152c-31 -144 -119 -206 -245 -206s-186 62 -155 206zM260 380l-48 -216c-9 -42 16 -64 60 -64s79 22 88 64l48 216c10 42 -16 64 -60 64s-78 -22 -88 -64zM533 744h65c-27 -63 -66 -121 -138 -121
c-54 0 -94 35 -139 35c-25 0 -44 -19 -54 -42h-63c24 63 71 122 142 122c53 0 98 -37 130 -37c24 0 47 19 57 43z" />
    <glyph glyph-name="scaron" unicode="&#x161;" horiz-adv-x="444" 
d="M497 418l-113 -40c-6 50 -33 74 -71 74c-29 0 -55 -21 -62 -49c-18 -84 227 -86 191 -248c-24 -108 -112 -165 -217 -165c-76 0 -140 19 -171 155l120 31c0 -51 23 -84 73 -84c38 0 65 18 72 48c23 104 -228 79 -188 262c23 103 117 152 206 152c94 0 147 -54 160 -136z
M420 610h-126l-81 146h113l45 -82l83 82h113z" />
    <glyph glyph-name="uacute" unicode="&#xfa;" 
d="M435 544h126l-121 -544h-122l14 62c-55 -40 -105 -72 -157 -72c-77 0 -109 39 -86 140l92 414h126l-89 -400c-8 -36 -1 -60 33 -60c26 0 60 25 92 49zM417 756h155l-180 -146h-101z" />
    <glyph glyph-name="ucircumflex" unicode="&#xfb;" 
d="M435 544h126l-121 -544h-122l14 62c-55 -40 -105 -72 -157 -72c-77 0 -109 39 -86 140l92 414h126l-89 -400c-8 -36 -1 -60 33 -60c26 0 60 25 92 49zM346 756h126l81 -146h-113l-46 82l-82 -82h-113z" />
    <glyph glyph-name="udieresis" unicode="&#xfc;" 
d="M435 544h126l-121 -544h-122l14 62c-55 -40 -105 -72 -157 -72c-77 0 -109 39 -86 140l92 414h126l-89 -400c-8 -36 -1 -60 33 -60c26 0 60 25 92 49zM248 732h120l-25 -114h-120zM438 732h120l-25 -114h-120z" />
    <glyph glyph-name="ugrave" unicode="&#xf9;" 
d="M435 544h126l-121 -544h-122l14 62c-55 -40 -105 -72 -157 -72c-77 0 -109 39 -86 140l92 414h126l-89 -400c-8 -36 -1 -60 33 -60c26 0 60 25 92 49zM246 756h155l60 -146h-101z" />
    <glyph glyph-name="yacute" unicode="&#xfd;" horiz-adv-x="444" 
d="M-10 -190l24 110c12 -2 24 -2 37 -2c55 0 101 48 107 72c7 32 5 69 2 115l-28 439h128l5 -360h2l159 360h128l-266 -542c-71 -147 -133 -194 -259 -194c-12 0 -25 1 -39 2zM398 756h155l-180 -146h-101z" />
    <glyph glyph-name="ydieresis" unicode="&#xff;" horiz-adv-x="444" 
d="M-10 -190l24 110c12 -2 24 -2 37 -2c55 0 101 48 107 72c7 32 5 69 2 115l-28 439h128l5 -360h2l159 360h128l-266 -542c-71 -147 -133 -194 -259 -194c-12 0 -25 1 -39 2zM229 732h120l-25 -114h-120zM419 732h120l-25 -114h-120z" />
    <glyph glyph-name="zcaron" unicode="&#x17e;" horiz-adv-x="444" 
d="M147 434l25 110h362l-24 -108l-304 -326h231l-24 -110h-382l24 108l299 326h-207zM420 610h-126l-81 146h113l45 -82l83 82h113z" />
    <glyph glyph-name="Delta" unicode="&#x2206;" horiz-adv-x="653" 
d="M28 0l16 71l378 660h139l80 -658l-16 -73h-597zM169 96h351l-44 316c-3 56 -15 141 -16 186h-4c-17 -37 -63 -114 -91 -171z" />
    <glyph glyph-name="Omega" unicode="&#x2126;" horiz-adv-x="706" 
d="M199 97v3c-50 60 -88 162 -59 294c41 184 198 332 376 332c191 0 257 -169 223 -325c-30 -135 -116 -243 -192 -301v-3h139l-22 -97h-258l16 71c73 43 156 141 192 304c28 128 -5 251 -121 251c-110 0 -205 -109 -238 -255c-33 -150 3 -259 58 -300l-16 -71h-258l22 97
h138z" />
    <glyph glyph-name="uni03BC" unicode="&#x3bc;" 
d="M435 544h126l-121 -544h-122l14 62c-51 -37 -98 -68 -148 -72l-41 -182h-126l164 736h126l-89 -400c-8 -36 -1 -60 33 -60c26 0 60 25 92 49z" />
    <glyph glyph-name="pi" unicode="&#x3c0;" horiz-adv-x="595" 
d="M667 435h-72l-63 -285c-17 -76 -20 -119 -20 -150h-114c-6 21 -1 71 15 145l64 290h-145c-30 -114 -102 -328 -162 -435h-115c61 119 132 318 160 435c-50 0 -78 -4 -101 -11l4 80c29 19 83 32 167 32h414z" />
    <glyph glyph-name="Euro" unicode="&#x20ac;" horiz-adv-x="556" 
d="M533 391h-214l-16 -72h190l-48 -88h-162l-1 -5c-17 -76 14 -122 89 -122c59 0 108 7 166 41l-26 -118c-56 -26 -122 -35 -175 -35c-140 0 -210 86 -182 210l6 29h-79l48 88h51l16 72h-79l47 88h51l11 48c27 124 153 205 287 205c65 0 129 -19 172 -60l-61 -113
c-34 39 -88 59 -142 59c-73 0 -125 -54 -138 -112l-6 -27h242z" />
    <glyph glyph-name="afii61289" unicode="&#x2113;" horiz-adv-x="507" 
d="M480 182l38 -50c-73 -100 -155 -138 -233 -138c-121 0 -153 80 -141 173l3 12c-19 -13 -42 -29 -63 -43l-16 64c36 25 68 46 98 71l58 263c41 181 138 256 232 256s119 -79 96 -179c-26 -121 -129 -238 -276 -357l-9 -44c-18 -82 15 -122 65 -122c56 0 111 48 148 94z
M338 534l-37 -170c89 83 161 173 178 251c13 55 5 89 -37 89c-32 0 -74 -38 -104 -170z" />
    <glyph glyph-name="estimated" unicode="&#x212e;" horiz-adv-x="1056" 
d="M1021 351h-667c-3 0 -6 -1 -6 -5v-202c0 -9 4 -16 9 -23c65 -67 154 -110 253 -110c106 0 200 49 265 123h59c-73 -86 -193 -143 -326 -143c-227 0 -411 165 -411 369c0 206 184 372 411 372c229 0 413 -166 413 -372v-9zM870 377v203c0 9 -4 18 -10 24
c-65 64 -153 106 -250 106c-98 0 -187 -43 -252 -109c-6 -7 -10 -15 -10 -25v-199c0 -2 3 -7 6 -7h511c4 0 5 5 5 7z" />
    <glyph glyph-name="partialdiff" unicode="&#x2202;" horiz-adv-x="570" 
d="M251 662l-15 89c37 25 101 58 192 58c143 0 243 -127 185 -388c-56 -255 -194 -426 -371 -426c-138 0 -176 128 -151 241c37 164 158 267 276 267c82 0 120 -56 129 -83h2l8 36c31 138 -12 255 -114 255c-60 0 -110 -27 -141 -49zM276 94h1c78 0 153 117 187 224
c-3 34 -33 89 -97 89c-70 0 -139 -83 -160 -175c-17 -78 8 -138 69 -138z" />
    <glyph glyph-name="product" unicode="&#x220f;" horiz-adv-x="876" 
d="M851 603h-102v-702h-120v702h-223v-702h-120v702h-102v112h667v-112z" />
    <glyph glyph-name="summation" unicode="&#x2211;" horiz-adv-x="715" 
d="M696 -99h-514v80l244 328l-235 320v86h488v-104h-325v-3l209 -279l-232 -311v-3h365v-114z" />
    <glyph glyph-name="uni2219" unicode="&#x2219;" horiz-adv-x="278" 
d="M216 348c45 0 68 -37 59 -76c-8 -39 -48 -76 -93 -76s-67 37 -59 76c9 39 48 76 93 76z" />
    <glyph glyph-name="radical" unicode="&#x221a;" horiz-adv-x="752" 
d="M760 858l-224 -1002h-98l-149 451l-74 -29l-20 69l167 68l105 -329c7 -32 15 -66 20 -88h1c4 21 9 57 16 93l172 767h84z" />
    <glyph glyph-name="infinity" unicode="&#x221e;" horiz-adv-x="887" 
d="M839 296v-1c0 -109 -79 -173 -162 -173c-59 0 -113 27 -181 115c-52 -64 -105 -115 -187 -115c-83 0 -158 69 -158 168c0 101 71 172 166 172c76 0 130 -46 183 -113c43 49 94 113 183 113s156 -66 156 -166zM318 189h1c58 0 101 52 140 98c-42 56 -79 109 -145 109
c-59 0 -94 -46 -94 -107c0 -55 42 -100 98 -100zM676 396h-1c-62 0 -108 -66 -141 -102c62 -76 94 -105 146 -105c57 0 89 55 89 101c0 62 -37 106 -93 106z" />
    <glyph glyph-name="integral" unicode="&#x222b;" horiz-adv-x="558" 
d="M535 871l-13 -85c-10 5 -22 9 -36 9c-19 0 -37 -7 -50 -26c-22 -28 -28 -86 -28 -173c0 -166 14 -313 14 -495c0 -99 -15 -165 -37 -205c-27 -51 -78 -71 -126 -71c-32 0 -62 8 -76 16l16 88c9 -4 24 -11 43 -11c16 0 33 6 44 21c18 24 28 68 28 161
c0 185 -15 334 -15 507c0 119 17 184 60 230c28 31 73 46 115 46c25 0 49 -6 61 -12z" />
    <glyph glyph-name="approxequal" unicode="&#x2248;" horiz-adv-x="653" 
d="M570 458l43 -40c-30 -60 -77 -104 -135 -104c-40 0 -67 13 -112 41c-30 19 -55 34 -88 34c-44 0 -69 -36 -93 -73l-44 39c29 60 82 104 144 104c49 0 81 -24 107 -38c35 -21 57 -36 87 -36c39 0 64 29 91 73zM570 271l43 -39c-30 -59 -76 -104 -135 -104
c-40 0 -68 14 -112 41c-31 19 -55 34 -87 34c-46 0 -70 -37 -94 -74l-44 40c29 59 83 103 144 103c49 0 81 -23 106 -37c32 -18 56 -37 88 -37c40 0 63 29 91 73z" />
    <glyph glyph-name="notequal" unicode="&#x2260;" horiz-adv-x="671" 
d="M525 521l-40 -90h138v-72h-164l-61 -138h225v-71h-252l-50 -115l-56 23l41 92h-137v71h164l60 138h-224v72h250l50 112z" />
    <glyph glyph-name="lessequal" unicode="&#x2264;" horiz-adv-x="691" 
d="M640 101l-446 227v77l446 226v-84l-376 -179v-2l376 -181v-84zM644 -10h-454v73h454v-73z" />
    <glyph glyph-name="greaterequal" unicode="&#x2265;" horiz-adv-x="691" 
d="M196 631l446 -227v-77l-446 -226v84l375 180v3l-375 179v84zM643 -10h-453v73h453v-73z" />
    <glyph glyph-name="lozenge" unicode="&#x25ca;" horiz-adv-x="753" 
d="M703 357l-199 -406h-98l-193 406l198 407h98zM595 354l-116 247c-7 19 -15 44 -19 62h-3c-5 -19 -12 -41 -20 -62l-116 -241l117 -251c7 -21 14 -45 17 -59h4c4 15 13 45 18 57z" />
    <glyph glyph-name="uni00A0" unicode="&#xa0;" horiz-adv-x="278" 
 />
    <glyph glyph-name="uni00AD" unicode="&#xad;" horiz-adv-x="333" 
d="M337 217h-246l24 110h246z" />
    <glyph glyph-name="uni02C9" unicode="&#x2c9;" horiz-adv-x="278" 
d="M455 640h-348l16 74h348z" />
    <glyph glyph-name="uni03A9" unicode="&#x3a9;" horiz-adv-x="706" 
d="M199 97v3c-50 60 -88 162 -59 294c41 184 198 332 376 332c191 0 257 -169 223 -325c-30 -135 -116 -243 -192 -301v-3h139l-22 -97h-258l16 71c73 43 156 141 192 304c28 128 -5 251 -121 251c-110 0 -205 -109 -238 -255c-33 -150 3 -259 58 -300l-16 -71h-258l22 97
h138z" />
    <glyph glyph-name="uni2215" unicode="&#x2215;" horiz-adv-x="167" 
d="M-169 -10l569 742h96l-569 -742h-96z" />
    </font>
</defs>
</svg>
